<?xml version="1.0" encoding="UTF-8" standalone="no"?>
<!-- Created with Inkscape (http://www.inkscape.org/) -->

<svg
   xmlns:dc="http://purl.org/dc/elements/1.1/"
   xmlns:cc="http://creativecommons.org/ns#"
   xmlns:rdf="http://www.w3.org/1999/02/22-rdf-syntax-ns#"
   xmlns:svg="http://www.w3.org/2000/svg"
   xmlns="http://www.w3.org/2000/svg"
   xmlns:sodipodi="http://sodipodi.sourceforge.net/DTD/sodipodi-0.dtd"
   xmlns:inkscape="http://www.inkscape.org/namespaces/inkscape"
   width="161.86276mm"
   height="103.13473mm"
   viewBox="0 0 573.52947 365.43801"
   id="svg5861"
   version="1.1"
   inkscape:version="0.91 r13725"
   sodipodi:docname="logo.svg">
  <defs
     id="defs5863">
    <marker
       inkscape:stockid="Arrow2Mend"
       orient="auto"
       refY="0"
       refX="0"
       id="Arrow2Mend"
       style="overflow:visible"
       inkscape:isstock="true">
      <path
         id="path8805"
         style="fill:#000000;fill-opacity:1;fill-rule:evenodd;stroke:#000000;stroke-width:0.625;stroke-linejoin:round;stroke-opacity:1"
         d="M 8.7185878,4.0337352 -2.2072895,0.01601326 8.7185884,-4.0017078 c -1.7454984,2.3720609 -1.7354408,5.6174519 -6e-7,8.035443 z"
         transform="scale(-0.6,-0.6)"
         inkscape:connector-curvature="0" />
    </marker>
    <marker
       inkscape:stockid="Arrow2Mend"
       orient="auto"
       refY="0"
       refX="0"
       id="Arrow2Mend-6"
       style="overflow:visible"
       inkscape:isstock="true">
      <path
         inkscape:connector-curvature="0"
         id="path8805-7"
         style="fill:#000000;fill-opacity:1;fill-rule:evenodd;stroke:#000000;stroke-width:0.625;stroke-linejoin:round;stroke-opacity:1"
         d="M 8.7185878,4.0337352 -2.2072895,0.01601326 8.7185884,-4.0017078 c -1.7454984,2.3720609 -1.7354408,5.6174519 -6e-7,8.035443 z"
         transform="scale(-0.6,-0.6)" />
    </marker>
    <marker
       inkscape:stockid="Arrow2Mend"
       orient="auto"
       refY="0"
       refX="0"
       id="Arrow2Mend-3"
       style="overflow:visible"
       inkscape:isstock="true">
      <path
         inkscape:connector-curvature="0"
         id="path8805-5"
         style="fill:#000000;fill-opacity:1;fill-rule:evenodd;stroke:#000000;stroke-width:0.625;stroke-linejoin:round;stroke-opacity:1"
         d="M 8.7185878,4.0337352 -2.2072895,0.01601326 8.7185884,-4.0017078 c -1.7454984,2.3720609 -1.7354408,5.6174519 -6e-7,8.035443 z"
         transform="scale(-0.6,-0.6)" />
    </marker>
  </defs>
  <sodipodi:namedview
     id="base"
     pagecolor="#ffffff"
     bordercolor="#666666"
     borderopacity="1.0"
     inkscape:pageopacity="0.0"
     inkscape:pageshadow="2"
     inkscape:zoom="0.98994949"
     inkscape:cx="287.79758"
     inkscape:cy="206.73408"
     inkscape:document-units="px"
     inkscape:current-layer="layer1"
     showgrid="false"
     inkscape:snap-smooth-nodes="true"
     inkscape:object-nodes="true"
     inkscape:object-paths="true"
     inkscape:window-width="1855"
     inkscape:window-height="1056"
     inkscape:window-x="65"
     inkscape:window-y="24"
     inkscape:window-maximized="1"
     objecttolerance="10"
     fit-margin-top="1"
     fit-margin-left="1"
     fit-margin-right="1"
     fit-margin-bottom="1" />
  <metadata
     id="metadata5866">
    <rdf:RDF>
      <cc:Work
         rdf:about="">
        <dc:format>image/svg+xml</dc:format>
        <dc:type
           rdf:resource="http://purl.org/dc/dcmitype/StillImage" />
        <dc:title></dc:title>
      </cc:Work>
    </rdf:RDF>
  </metadata>
  <g
     inkscape:label="Layer 1"
     inkscape:groupmode="layer"
     id="layer1"
     transform="translate(-109.21507,-212.03386)">
    <ellipse
       style="opacity:0.73600003;fill:#ffffff;fill-opacity:1;stroke:#000000;stroke-width:4.79799986;stroke-miterlimit:4;stroke-dasharray:none;stroke-opacity:1"
       id="path5881"
       cx="-395.9798"
       cy="394.75287"
       rx="280.82242"
       ry="176.7767"
       transform="scale(-1,1)" />
    <path
       style="fill:#ffffff;fill-opacity:1;fill-rule:evenodd;stroke:#000000;stroke-width:2;stroke-linecap:butt;stroke-linejoin:miter;stroke-miterlimit:4;stroke-dasharray:none;stroke-opacity:1"
       d="m 580.80319,527.84565 -53.50356,-43.1892 53.53808,-23.23351 -50.50762,-35.35534 48.48732,-15.15228 -48.48732,-27.27412 47.47717,-25.25382 -42.42641,-26.26396 43.43656,-19.1929 -42.42641,-14.14214 43.27114,-37.7528 -1.7573,-0.94862"
       id="path5895"
       inkscape:connector-curvature="0" />
    <path
       style="fill:#ffffff;fill-opacity:1;fill-rule:evenodd;stroke:#000000;stroke-width:2;stroke-linecap:butt;stroke-linejoin:miter;stroke-miterlimit:4;stroke-dasharray:none;stroke-opacity:1"
       d="m 211.44361,261.50225 53.50356,43.1892 -53.53808,23.23351 50.50762,35.35534 -48.48732,15.15228 48.48732,27.27412 -47.47717,25.25382 42.42641,26.26396 -43.43656,19.1929 42.42641,14.14214 -43.27114,37.7528 1.7573,0.94862"
       id="path5895-3"
       inkscape:connector-curvature="0" />
    <path
       style="fill:none;fill-rule:evenodd;stroke:#000000;stroke-width:2;stroke-linecap:butt;stroke-linejoin:miter;stroke-miterlimit:4;stroke-dasharray:none;stroke-opacity:1"
       d="M 509.80279,556.35767 C 429.28571,372.36218 507.79399,232.5933 507.79399,232.5933"
       id="path8745"
       inkscape:connector-curvature="0" />
    <g
       id="g9086">
      <ellipse
         ry="14.654515"
         rx="14.475944"
         cy="455.39789"
         cx="514.28571"
         id="path8755"
         style="opacity:0.73600003;fill:#ffffff;fill-opacity:1;stroke:#000000;stroke-width:2;stroke-miterlimit:4;stroke-dasharray:none;stroke-opacity:1" />
      <path
         inkscape:connector-curvature="0"
         id="path8762"
         d="M 528.76165,455.39789 C 575,433.07647 575,433.07647 575,433.07647"
         style="fill:none;fill-rule:evenodd;stroke:#000000;stroke-width:1px;stroke-linecap:butt;stroke-linejoin:miter;stroke-opacity:1;marker-end:url(#Arrow2Mend)" />
    </g>
    <g
       id="g9144">
      <rect
         y="345.07727"
         x="500.57227"
         height="23.141245"
         width="25.284103"
         id="rect9036"
         style="opacity:0.73600003;fill:#ffffff;fill-opacity:1;stroke:#000000;stroke-width:1.71589792;stroke-miterlimit:4;stroke-dasharray:none;stroke-opacity:1" />
      <path
         inkscape:connector-curvature="0"
         id="path8762-5"
         d="m 525.85637,357.86137 c 46.23835,-22.32142 46.23835,-22.32142 46.23835,-22.32142"
         style="fill:none;fill-rule:evenodd;stroke:#000000;stroke-width:1px;stroke-linecap:butt;stroke-linejoin:miter;stroke-opacity:1;marker-end:url(#Arrow2Mend-6)" />
      <path
         inkscape:connector-curvature="0"
         id="path8762-6"
         d="m 525.85637,357.86137 c 46.23835,22.32142 46.23835,22.32142 46.23835,22.32142"
         style="fill:none;fill-rule:evenodd;stroke:#000000;stroke-width:1px;stroke-linecap:butt;stroke-linejoin:miter;stroke-opacity:1;marker-end:url(#Arrow2Mend-3)" />
    </g>
    <path
       style="fill:none;fill-rule:evenodd;stroke:#000000;stroke-width:2;stroke-linecap:butt;stroke-linejoin:miter;stroke-miterlimit:4;stroke-dasharray:none;stroke-opacity:1"
       d="m 316.79517,225.1494 c 92.31661,215.56542 -15.70291,335.98306 -15.70291,335.98306"
       id="path9084"
       inkscape:connector-curvature="0" />
    <path
       style="opacity:0.73600003;fill:#800000;fill-opacity:1;stroke:#000000;stroke-width:2.02030516;stroke-miterlimit:4;stroke-dasharray:none;stroke-opacity:1"
       d="m 201.65515,518.85915 c -45.79656,-28.5125 -74.23506,-64.69732 -81.67621,-103.92388 -3.08842,-16.28087 -1.65631,-38.32483 3.54971,-54.63921 3.56483,-11.17132 12.67963,-28.22271 20.98907,-39.26502 13.79097,-18.32664 35.9822,-37.79954 58.15487,-51.03115 l 9.68541,-5.77979 24.77763,19.96165 c 13.62769,10.97891 24.65071,20.08585 24.49558,20.23764 -0.15512,0.1518 -11.8622,5.28281 -26.01571,11.40225 -14.15352,6.11944 -25.83631,11.50122 -25.96175,11.95952 -0.12544,0.4583 10.63854,8.33366 23.91996,17.50079 13.28142,9.16714 24.16872,16.9169 24.19398,17.22169 0.0252,0.3048 -10.06821,3.67707 -22.42995,7.49393 -12.36174,3.81685 -23.0945,7.2503 -23.85056,7.62986 -0.86228,0.43289 7.51526,5.68099 22.47589,14.07999 13.11781,7.36443 23.84023,13.68213 23.8276,14.03931 -0.0126,0.35721 -10.24042,6.02898 -22.72843,12.60395 -12.48801,6.57497 -22.69064,12.25708 -22.67251,12.62691 0.0269,0.54786 14.48583,9.65015 38.06334,23.96182 l 3.42042,2.07621 -21.76851,9.53292 c -11.97268,5.24311 -21.75136,9.76364 -21.73038,10.04563 0.021,0.28197 9.6049,3.64046 21.29761,7.46329 17.39369,5.68671 21.0145,7.18528 19.91237,8.24129 -6.52249,6.24946 -37.92794,32.79036 -38.80036,32.79036 -0.61741,0 -5.62549,-2.80348 -11.12907,-6.22996 z"
       id="path9185"
       inkscape:connector-curvature="0" />
    <path
       style="opacity:0.73600003;fill:#ff8080;fill-opacity:1;stroke:#000000;stroke-width:2.02030516;stroke-miterlimit:4;stroke-dasharray:none;stroke-opacity:1"
       d="m 555.80863,505.78298 c -13.05622,-10.58065 -24.10622,-19.59239 -24.55556,-20.02609 -0.44935,-0.43371 11.02851,-5.94038 25.50635,-12.23705 14.47783,-6.29667 26.31163,-11.70204 26.29734,-12.01196 -0.0143,-0.3099 -5.88594,-4.60893 -13.0481,-9.55338 l -13.02211,-8.98993 6.73465,-3.23449 c 3.70405,-1.77897 6.98945,-2.84628 7.30088,-2.3718 0.31143,0.47449 1.87382,-0.50213 3.47198,-2.17026 l 2.90576,-3.03295 -4.2296,0 c -2.80831,0 -4.2296,0.44359 -4.2296,1.32008 0,0.72604 -3.12934,2.83395 -6.95408,4.68424 l -6.95408,3.36417 -10.67533,-7.46217 -10.67534,-7.46216 11.82104,-3.70876 c 6.50157,-2.03982 17.16221,-5.37762 23.69032,-7.41732 6.52811,-2.0397 11.86922,-4.00731 11.86912,-4.37246 -9e-5,-0.36514 -10.45517,-6.54392 -23.23351,-13.73062 -12.77833,-7.1867 -23.23333,-13.36252 -23.23333,-13.72405 0,-0.36152 4.43204,-2.946 9.84899,-5.74327 l 9.84898,-5.08597 6.35847,2.92373 c 3.49716,1.60805 6.11996,3.30965 5.82844,3.78133 -0.55348,0.89555 6.54278,2.42046 7.37783,1.58541 0.9144,-0.91439 -4.32454,-5.57678 -5.68137,-5.05612 -0.75124,0.28828 -3.68585,-0.65148 -6.52136,-2.08834 l -5.15548,-2.61248 11.77618,-6.2098 c 6.4769,-3.41539 11.77229,-6.43971 11.76753,-6.72072 -0.005,-0.28101 -3.30038,-2.52552 -7.3236,-4.98779 -4.02323,-2.46228 -9.10606,-5.59091 -11.29519,-6.95251 l -3.98023,-2.47564 4.48531,-2.33686 c 2.46692,-1.28527 5.19759,-2.12989 6.06817,-1.87694 1.63309,0.47451 6.78643,-4.15319 5.76377,-5.17585 -0.82324,-0.82324 -7.92472,0.64102 -7.38039,1.52177 0.2495,0.4037 -2.19951,2.0021 -5.44226,3.55199 l -5.8959,2.81798 -8.20754,-5.05096 -8.20754,-5.05096 15.40872,-6.85651 c 8.4748,-3.77108 18.36343,-8.20133 21.97472,-9.84499 l 6.56599,-2.98847 -21.59669,-7.24592 -21.59669,-7.24592 19.30628,-16.87623 c 10.61845,-9.28193 19.88239,-16.87356 20.58654,-16.8703 0.70414,0.003 5.92294,2.91355 11.59733,6.4673 59.22631,37.09217 89.12674,87.58911 82.03873,138.55 -5.03893,36.2286 -27.56507,69.68226 -66.38919,98.59481 -6.42997,4.78844 -25.79926,17.08876 -26.71795,16.96702 -0.14235,-0.0189 -10.94118,-8.69119 -23.9974,-19.27183 z"
       id="path9187"
       inkscape:connector-curvature="0" />
    <path
       style="opacity:0.73600003;fill:#d40000;fill-opacity:1;stroke:#000000;stroke-width:2.02030516;stroke-miterlimit:4;stroke-dasharray:none;stroke-opacity:1"
       d="m 368.42534,567.83982 c -17.949,-1.1432 -61.24952,-7.19395 -62.83622,-8.78065 -0.15665,-0.15665 2.85639,-5.02295 6.69566,-10.81399 19.56019,-29.50406 34.17559,-69.4509 39.88693,-109.01904 8.99892,-62.34455 -1.07127,-133.36165 -28.57158,-201.49276 -2.23529,-5.53787 -3.96652,-10.16652 -3.84716,-10.28588 0.11936,-0.11935 6.80107,-1.1379 14.84824,-2.26344 23.85839,-3.337 44.77963,-4.45506 71.70485,-3.83199 33.26046,0.76968 52.24133,3.00918 84.03291,9.91483 l 14.83746,3.22293 -1.92175,3.76696 c -5.9945,11.75019 -15.34848,38.97053 -20.24137,58.9029 -7.53738,30.70543 -10.49924,56.39189 -10.49924,91.05375 0,42.14943 5.18746,77.71663 17.19516,117.89664 3.22854,10.80329 12.05108,35.33505 15.96756,44.39905 l 1.59949,3.70173 -12.85693,3.05835 c -33.2826,7.91709 -64.91326,11.396 -100.68959,11.07438 -11.13951,-0.10014 -22.52651,-0.32684 -25.30442,-0.50377 z"
       id="path9189"
       inkscape:connector-curvature="0" />
    <path
       style="opacity:0.73600003;fill:#d45500;fill-opacity:1;stroke:#000000;stroke-width:2.02030516;stroke-miterlimit:4;stroke-dasharray:none;stroke-opacity:1"
       d="m 289.63344,555.39637 c -14.03686,-3.64994 -33.30203,-10.04518 -45.28951,-15.03423 -13.45099,-5.59816 -27.95754,-12.43946 -27.87671,-13.14669 0.0384,-0.33612 9.32744,-8.56607 20.64229,-18.28878 11.31485,-9.72272 20.46006,-18.10373 20.32269,-18.62446 -0.13737,-0.52073 -9.13986,-3.93 -20.00554,-7.57614 l -19.75578,-6.62936 20.57645,-9.0246 c 11.31705,-4.96354 20.57645,-9.34644 20.57645,-9.73979 0,-0.39335 -9.09137,-6.32483 -20.20305,-13.18107 -11.11167,-6.85624 -20.20305,-12.72393 -20.20305,-13.03931 0,-0.31538 10.22697,-6.00545 22.72661,-12.64459 12.49963,-6.63914 22.72742,-12.37379 22.72843,-12.74366 10e-4,-0.36986 -10.4076,-6.50654 -23.13023,-13.63706 -12.72263,-7.13051 -22.6095,-13.25007 -21.97082,-13.599 0.63868,-0.34895 11.23859,-3.74752 23.55535,-7.5524 12.31677,-3.80487 22.22819,-7.18643 22.02539,-7.51455 -0.20279,-0.32814 -11.29319,-8.23929 -24.64533,-17.58034 -13.35213,-9.34106 -24.0731,-17.31301 -23.82437,-17.71545 0.24872,-0.40245 11.83049,-5.64899 25.73726,-11.65898 13.90677,-6.00999 25.28503,-11.21402 25.28503,-11.56451 0,-0.35049 -8.72447,-7.65908 -19.38772,-16.24131 -10.66324,-8.58222 -22.31644,-17.99372 -25.89599,-20.91444 l -6.50827,-5.3104 12.51147,-5.93453 c 22.75849,-10.79497 49.36388,-19.79785 76.55737,-25.90592 6.33488,-1.42291 11.85653,-2.22445 12.27033,-1.78121 1.26117,1.35091 9.74223,23.55781 14.64867,38.35624 14.44272,43.56111 20.91,81.51801 21.05427,123.56899 0.17184,50.08919 -8.43416,90.03121 -28.18564,130.81475 -5.74283,11.85798 -21.19383,36.97292 -22.64062,36.80134 -0.32107,-0.0381 -5.58401,-1.36942 -11.69543,-2.95854 z"
       id="path9191"
       inkscape:connector-curvature="0" />
    <path
       style="opacity:0.73600003;fill:#ffe6d5;fill-opacity:1;stroke:#000000;stroke-width:2.02030516;stroke-miterlimit:4;stroke-dasharray:none;stroke-opacity:1"
       d="m 507.83963,547.94438 c -3.58897,-8.11531 -11.08246,-29.15847 -15.18729,-42.64889 -22.31381,-73.33362 -23.34548,-150.83645 -2.95258,-221.80776 6.0116,-20.92151 16.6934,-47.30225 19.15312,-47.30225 1.95134,0 19.12958,5.44038 30.28824,9.59235 11.51277,4.28373 35.86041,15.61209 35.86041,16.68498 0,0.39251 -9.09137,8.61404 -20.20305,18.27007 -11.11168,9.65604 -20.20305,17.86421 -20.20305,18.24038 0,0.37617 8.52316,3.50588 18.94036,6.95492 10.4172,3.44903 19.2718,6.56838 19.67689,6.93189 0.40509,0.36351 -8.5516,4.73712 -19.90375,9.71913 -11.35215,4.98202 -20.27751,9.42097 -19.83414,9.86435 0.44338,0.44337 4.83576,3.26816 9.76086,6.2773 l 8.95471,5.47116 -11.90904,5.59574 c -6.54998,3.07765 -12.07714,5.59573 -12.28259,5.59573 -0.20545,0 -0.50987,-2.61377 -0.6765,-5.80838 l -0.30295,-5.80838 -13.63705,0 -13.63706,0 -0.28272,12.87945 -0.28272,12.87944 14.17232,0 14.17231,0 0,-4.54568 c 0,-2.50013 0.34093,-4.54082 0.75762,-4.53487 0.41668,0.006 5.68615,2.39244 11.70992,5.3033 l 10.95231,5.29248 -11.20485,5.88265 c -6.16266,3.23545 -11.20485,6.24472 -11.20485,6.68726 0,0.44254 10.4618,6.65945 23.24843,13.81534 l 23.24843,13.0107 -15.41975,4.85854 c -8.48086,2.6722 -19.24731,6.10726 -23.92544,7.63346 l -8.5057,2.77492 10.02093,6.93874 c 5.51151,3.81631 11.09975,7.76385 12.41832,8.77234 l 2.3974,1.8336 -10.83604,5.05994 c -5.95982,2.78297 -10.9593,5.05995 -11.10996,5.05995 -0.15066,0 -0.55257,-1.39322 -0.89313,-3.09602 -1.3345,-6.67251 -10.60405,-12.05542 -18.28006,-10.6154 -4.94931,0.92849 -11.15138,7.15946 -12.08621,12.1425 -1.41464,7.54072 2.20663,14.9381 8.85776,18.09427 4.6393,2.2015 8.9834,2.09125 13.76745,-0.34939 4.51584,-2.30381 6.7438,-5.08598 8.10553,-10.12182 0.88087,-3.25756 1.89627,-4.0094 12.63247,-9.35361 l 11.67462,-5.8113 11.66105,8.21803 c 6.41358,4.51992 11.28642,8.56367 10.82852,8.98611 -0.45789,0.42243 -11.96008,5.56464 -25.56042,11.42711 -13.60034,5.86248 -24.8455,11.02811 -24.98923,11.47919 -0.14374,0.45107 11.30168,10.13879 25.43425,21.52826 l 25.6956,20.70813 -6.76728,3.43881 c -15.65922,7.95729 -37.23265,16.52397 -54.5674,21.6684 l -5.37372,1.59475 -2.3713,-5.36192 z"
       id="path9193"
       inkscape:connector-curvature="0" />
    <path
       style="opacity:0.73600003;fill:#ffe6d5;fill-opacity:1;stroke:#000000;stroke-width:2.02030516;stroke-miterlimit:4;stroke-dasharray:none;stroke-opacity:1"
       d="m 540.24713,363.71724 -11.80327,-5.80838 12.66427,-6.30436 12.66426,-6.30437 10.1095,6.18589 c 5.56022,3.40223 10.10235,6.46648 10.09363,6.80944 -0.0164,0.64405 -20.21157,11.31695 -21.3087,11.26138 -0.33903,-0.0172 -5.9279,-2.645 -12.41969,-5.8396 z"
       id="path9195"
       inkscape:connector-curvature="0" />
  </g>
</svg>
