<?xml version="1.0" encoding="UTF-8" standalone="no"?>
<!-- Created with Inkscape (http://www.inkscape.org/) -->

<svg
   xmlns:dc="http://purl.org/dc/elements/1.1/"
   xmlns:cc="http://creativecommons.org/ns#"
   xmlns:rdf="http://www.w3.org/1999/02/22-rdf-syntax-ns#"
   xmlns:svg="http://www.w3.org/2000/svg"
   xmlns="http://www.w3.org/2000/svg"
   xmlns:xlink="http://www.w3.org/1999/xlink"
   xmlns:sodipodi="http://sodipodi.sourceforge.net/DTD/sodipodi-0.dtd"
   xmlns:inkscape="http://www.inkscape.org/namespaces/inkscape"
   width="163.86276mm"
   height="120.47421mm"
   viewBox="0 0 580.61609 426.8771"
   id="svg4822"
   version="1.1"
   inkscape:version="0.91 r13725"
   sodipodi:docname="odd_parity.svg">
  <sodipodi:namedview
     id="base"
     pagecolor="#ffffff"
     bordercolor="#666666"
     borderopacity="1.0"
     inkscape:pageopacity="0.0"
     inkscape:pageshadow="2"
     inkscape:zoom="2.8"
     inkscape:cx="268.28137"
     inkscape:cy="235.05629"
     inkscape:document-units="px"
     inkscape:current-layer="layer1"
     showgrid="false"
     fit-margin-top="2"
     fit-margin-left="2"
     fit-margin-right="2"
     fit-margin-bottom="2"
     inkscape:window-width="1855"
     inkscape:window-height="1056"
     inkscape:window-x="65"
     inkscape:window-y="24"
     inkscape:window-maximized="1" />
  <defs
     id="defs4824">
    <linearGradient
       id="linearGradient4327"
       inkscape:collect="always">
      <stop
         id="stop4329"
         offset="0"
         style="stop-color:#0000ff;stop-opacity:1" />
      <stop
         id="stop4331"
         offset="1"
         style="stop-color:#2cbd2c;stop-opacity:0;" />
    </linearGradient>
    <marker
       inkscape:stockid="Arrow1Lend"
       orient="auto"
       refY="0"
       refX="0"
       id="Arrow1Lend"
       style="overflow:visible"
       inkscape:isstock="true">
      <path
         id="path4298"
         d="M 0,0 5,-5 -12.5,0 5,5 0,0 Z"
         style="fill:#000000;fill-opacity:1;fill-rule:evenodd;stroke:#000000;stroke-width:1pt;stroke-opacity:1"
         transform="matrix(-0.8,0,0,-0.8,-10,0)"
         inkscape:connector-curvature="0" />
    </marker>
    <linearGradient
       gradientTransform="matrix(1.6609323,0,0,1.5551761,15.114327,-253.68263)"
       gradientUnits="userSpaceOnUse"
       y2="491.68478"
       x2="62.386044"
       y1="495.77454"
       x1="-69.602417"
       id="linearGradient4333-3-5-2"
       xlink:href="#linearGradient4327"
       inkscape:collect="always" />
    <marker
       inkscape:stockid="Arrow2Mend"
       orient="auto"
       refY="0"
       refX="0"
       id="Arrow2Mend-6-2-7"
       style="overflow:visible"
       inkscape:isstock="true"
       inkscape:collect="always">
      <path
         inkscape:connector-curvature="0"
         id="path8805-7-3-3"
         style="fill:#000000;fill-opacity:1;fill-rule:evenodd;stroke:#000000;stroke-width:0.625;stroke-linejoin:round;stroke-opacity:1"
         d="M 8.7185878,4.0337352 -2.2072895,0.01601326 8.7185884,-4.0017078 c -1.7454984,2.3720609 -1.7354408,5.6174519 -6e-7,8.035443 z"
         transform="scale(-0.6,-0.6)" />
    </marker>
    <marker
       inkscape:stockid="Arrow2Mend"
       orient="auto"
       refY="0"
       refX="0"
       id="Arrow2Mend-6-2-1"
       style="overflow:visible"
       inkscape:isstock="true"
       inkscape:collect="always">
      <path
         inkscape:connector-curvature="0"
         id="path8805-7-3-2"
         style="fill:#000000;fill-opacity:1;fill-rule:evenodd;stroke:#000000;stroke-width:0.625;stroke-linejoin:round;stroke-opacity:1"
         d="M 8.7185878,4.0337352 -2.2072895,0.01601326 8.7185884,-4.0017078 c -1.7454984,2.3720609 -1.7354408,5.6174519 -6e-7,8.035443 z"
         transform="scale(-0.6,-0.6)" />
    </marker>
    <clipPath
       clipPathUnits="userSpaceOnUse"
       id="clipPath5229">
      <ellipse
         style="opacity:0.73600003;fill:none;fill-opacity:1;stroke:#000000;stroke-width:3.10428524;stroke-miterlimit:4;stroke-dasharray:none;stroke-opacity:1"
         id="ellipse5231"
         cx="374.12457"
         cy="-343.26605"
         rx="179.22627"
         ry="115.94657"
         transform="matrix(0.8590635,0.51186903,0.54311209,-0.83966021,0,0)" />
    </clipPath>
    <linearGradient
       inkscape:collect="always"
       xlink:href="#linearGradient4327"
       id="linearGradient5262"
       gradientUnits="userSpaceOnUse"
       gradientTransform="matrix(1.6609323,0,0,1.5551761,15.114327,-253.68263)"
       x1="-69.602417"
       y1="495.77454"
       x2="48.95303"
       y2="493.86249" />
    <clipPath
       clipPathUnits="userSpaceOnUse"
       id="clipPath5279">
      <ellipse
         style="opacity:0.73600003;fill:none;fill-opacity:1;stroke:#000000;stroke-width:1.9452697;stroke-miterlimit:4;stroke-dasharray:none;stroke-opacity:1"
         id="ellipse5281"
         cx="287.86121"
         cy="-381.23093"
         rx="108.18256"
         ry="75.42907"
         transform="matrix(0.87668886,0.48105783,0.51865785,-0.85498189,0,0)" />
    </clipPath>
    <linearGradient
       inkscape:collect="always"
       xlink:href="#linearGradient4327"
       id="linearGradient5262-9"
       gradientUnits="userSpaceOnUse"
       gradientTransform="matrix(1.6609323,0,0,1.5551761,15.114327,-253.68263)"
       x1="-69.602417"
       y1="495.77454"
       x2="48.95303"
       y2="493.86249" />
    <clipPath
       clipPathUnits="userSpaceOnUse"
       id="clipPath5328">
      <ellipse
         style="opacity:0.73600003;fill:none;fill-opacity:1;stroke:#000000;stroke-width:1.9452697;stroke-miterlimit:4;stroke-dasharray:none;stroke-opacity:1"
         id="ellipse5330"
         cx="255.11653"
         cy="-390.98386"
         rx="108.18256"
         ry="75.42907"
         transform="matrix(0.87668886,0.48105783,0.51865785,-0.85498189,0,0)" />
    </clipPath>
    <marker
       inkscape:stockid="Arrow2Mend"
       orient="auto"
       refY="0"
       refX="0"
       id="Arrow2Mend-6-2-7-0"
       style="overflow:visible"
       inkscape:isstock="true"
       inkscape:collect="always">
      <path
         inkscape:connector-curvature="0"
         id="path8805-7-3-3-6"
         style="fill:#000000;fill-opacity:1;fill-rule:evenodd;stroke:#000000;stroke-width:0.625;stroke-linejoin:round;stroke-opacity:1"
         d="M 8.7185878,4.0337352 -2.2072895,0.01601326 8.7185884,-4.0017078 c -1.7454984,2.3720609 -1.7354408,5.6174519 -6e-7,8.035443 z"
         transform="scale(-0.6,-0.6)" />
    </marker>
    <marker
       inkscape:stockid="Arrow2Mend"
       orient="auto"
       refY="0"
       refX="0"
       id="Arrow2Mend-6-2-7-0-3"
       style="overflow:visible"
       inkscape:isstock="true"
       inkscape:collect="always">
      <path
         inkscape:connector-curvature="0"
         id="path8805-7-3-3-6-6"
         style="fill:#000000;fill-opacity:1;fill-rule:evenodd;stroke:#000000;stroke-width:0.625;stroke-linejoin:round;stroke-opacity:1"
         d="M 8.7185878,4.0337352 -2.2072895,0.01601326 8.7185884,-4.0017078 c -1.7454984,2.3720609 -1.7354408,5.6174519 -6e-7,8.035443 z"
         transform="scale(-0.6,-0.6)" />
    </marker>
  </defs>
  <metadata
     id="metadata4827">
    <rdf:RDF>
      <cc:Work
         rdf:about="">
        <dc:format>image/svg+xml</dc:format>
        <dc:type
           rdf:resource="http://purl.org/dc/dcmitype/StillImage" />
        <dc:title />
      </cc:Work>
    </rdf:RDF>
  </metadata>
  <g
     inkscape:label="Layer 1"
     inkscape:groupmode="layer"
     id="layer1"
     transform="translate(-18.131482,-326.0722)">
    <path
       inkscape:connector-curvature="0"
       id="path4303"
       d="m 295.35125,488.02504 c -48.72514,-1.57462 -99.18755,-9.60919 -147.22974,-23.44177 -13.08661,-3.76797 -29.64037,-9.2452 -39.31333,-13.00782 l -6.48338,-2.52192 4.74938,-3.17601 c 15.7767,-10.55018 38.96765,-22.17731 59.28725,-29.72453 30.12015,-11.18739 63.17264,-18.76634 97.17001,-22.2811 26.96314,-2.78755 58.31441,-2.97151 85.35789,-0.50087 60.27788,5.50687 117.28908,23.75368 159.02773,50.89785 l 5.73707,3.73103 -5.73707,2.40908 c -29.68217,12.46395 -62.79175,22.45935 -94.6305,28.56786 -28.10711,5.39256 -52.46946,8.04226 -83.33759,9.06395 -16.30372,0.53963 -17.4278,0.53911 -34.59772,-0.0158 l 0,10e-6 z"
       style="color:#000000;clip-rule:nonzero;display:inline;overflow:visible;visibility:visible;opacity:1;isolation:auto;mix-blend-mode:normal;color-interpolation:sRGB;color-interpolation-filters:linearRGB;solid-color:#000000;solid-opacity:1;fill:#2cbd2c;fill-opacity:0.39215686;fill-rule:nonzero;stroke:none;stroke-width:3;stroke-linecap:butt;stroke-linejoin:miter;stroke-miterlimit:4;stroke-dasharray:none;stroke-dashoffset:0;stroke-opacity:1;color-rendering:auto;image-rendering:auto;shape-rendering:auto;text-rendering:auto;enable-background:accumulate" />
    <path
       style="fill:none;fill-rule:evenodd;stroke:#000000;stroke-width:2.31405973;stroke-linecap:butt;stroke-linejoin:miter;stroke-miterlimit:4;stroke-dasharray:none;stroke-opacity:1"
       d="M 517.62852,447.61902 C 306.70444,541.64724 97.918126,448.74905 97.918126,448.74905"
       id="path8745"
       inkscape:connector-curvature="0"
       sodipodi:nodetypes="cc" />
    <ellipse
       style="opacity:0.73600003;fill:#ffffff;fill-opacity:1;stroke:#000000;stroke-width:2;stroke-miterlimit:4;stroke-dasharray:none;stroke-opacity:1"
       id="path8755"
       cx="334.94189"
       cy="461.36282"
       rx="14.475944"
       ry="14.654515" />
    <path
       inkscape:connector-curvature="0"
       id="path4257"
       d="m 295.15911,487.97093 c -48.72514,-1.57462 -99.18755,-9.6092 -147.22974,-23.44178 -13.08661,-3.76797 -29.64038,-9.2452 -39.31334,-13.00781 l -6.48338,-2.52192 4.74939,-3.17601 c 15.7767,-10.55018 38.96765,-22.17731 59.28725,-29.72453 30.12015,-11.1874 63.17264,-18.76634 97.17001,-22.28111 26.96314,-2.78754 58.31441,-2.97151 85.35789,-0.50086 60.27788,5.50687 117.28908,23.75367 159.02773,50.89785 l 5.73707,3.73102 -5.73707,2.40908 c -29.68217,12.46395 -62.79175,22.45936 -94.6305,28.56787 -28.10711,5.39256 -52.46946,8.04226 -83.33759,9.06395 -16.30372,0.53963 -17.4278,0.53911 -34.59772,-0.0158 l 0,10e-6 z m -68.43668,-43.09772 c 0.80863,-0.59129 1.05655,-0.59129 1.64784,0 0.3828,0.3828 1.25958,0.696 1.94839,0.696 0.95168,0 1.4281,-0.42055 1.98423,-1.75154 0.84735,-2.028 0.92027,-2.79414 0.26593,-2.79414 -0.25625,0 -0.72844,0.79549 -1.04932,1.76776 -0.57981,1.75684 -1.18615,2.20377 -1.75064,1.29041 -0.16227,-0.26256 0.61981,-4.11616 1.73796,-8.56357 1.11814,-4.44742 2.03298,-8.21008 2.03298,-8.36147 0,-0.37296 -2.75322,-0.34995 -3.74676,0.0313 -1.12854,0.43306 -0.993,1.20865 0.21123,1.20865 1.16723,0 1.18142,0.083 0.47472,2.77792 -0.91145,3.47568 -0.90639,3.46761 -1.73785,2.77755 -1.72698,-1.43326 -5.59249,0.63298 -7.26145,3.88151 -0.95128,1.8516 -0.70574,5.57637 0.44336,6.72546 1.16992,1.16992 3.427,1.31767 4.79938,0.31415 z m 21.96966,-0.0616 c 0,-0.42089 -0.44896,-0.75761 -1.01015,-0.75761 -0.91206,0 -1.01015,-0.33672 -1.01015,-3.46742 0,-3.72395 1.16392,-6.12903 2.9661,-6.12903 1.65928,0 2.08466,1.10275 2.08466,5.40431 0,3.85542 -0.0811,4.19214 -1.01015,4.19214 -0.5612,0 -1.01016,0.33672 -1.01016,0.75761 0,0.58926 0.67344,0.75762 3.03046,0.75762 2.24347,0 3.03046,-0.18145 3.03046,-0.69871 0,-0.38429 -0.48604,-0.82581 -1.08009,-0.98116 -1.01027,-0.26419 -1.06316,-0.5192 -0.81805,-3.94492 0.2163,-3.02309 0.46387,-3.82589 1.41813,-4.5986 0.63585,-0.51488 1.629,-0.86855 2.20701,-0.78595 0.96554,0.13799 1.06272,0.52976 1.19614,4.82215 0.13713,4.41144 0.0878,4.67196 -0.88388,4.67196 -0.57804,0 -1.02911,0.33207 -1.02911,0.75761 0,0.59573 0.7015,0.75762 3.283,0.75762 2.5815,0 3.28299,-0.16189 3.28299,-0.75762 0,-0.42089 -0.44895,-0.75761 -1.01015,-0.75761 -0.92114,0 -1.01015,-0.33672 -1.01015,-3.82128 0,-3.66146 -0.52007,-5.5995 -1.71711,-6.39878 -0.95862,-0.64009 -3.56614,-0.42004 -4.7365,0.39971 -1.01598,0.71162 -1.22909,0.71162 -2.24507,0 -0.61739,-0.43244 -1.70325,-0.78625 -2.413,-0.78625 -0.70975,0 -1.79561,0.35381 -2.413,0.78625 -1.01598,0.71162 -1.12253,0.71162 -1.12253,0 0,-0.58058 -0.52849,-0.78625 -2.02031,-0.78625 -2.17366,0 -2.88564,1.17112 -1.01015,1.66157 0.90639,0.23703 1.01015,0.68893 1.01015,4.39934 0,3.71041 -0.10376,4.16231 -1.01015,4.39934 -0.55559,0.14529 -1.01015,0.57858 -1.01015,0.96287 0,0.51726 0.78699,0.69871 3.03045,0.69871 2.35703,0 3.03046,-0.16836 3.03046,-0.75762 z m 22.74252,-0.0127 c 0.7629,-0.69042 0.91757,-0.69042 1.49057,0 1.43803,1.73273 4.05118,0.0124 4.05118,-2.66711 0,-1.63806 -1.21889,-1.14774 -1.4225,0.57223 -0.31381,2.65079 -1.10288,1.29133 -1.10288,-1.90012 0,-5.50422 -1.21323,-7.31265 -4.92449,-7.34042 -2.38815,-0.0179 -4.16688,1.27566 -4.16688,3.03024 0,1.35748 1.38872,1.84235 2.39489,0.83618 0.6576,-0.6576 0.68567,-0.94069 0.15649,-1.57832 -0.5305,-0.6392 -0.50692,-0.82991 0.13292,-1.07544 1.57081,-0.60278 3.09629,0.0127 3.60068,1.45266 0.58235,1.66258 0.11247,2.10569 -2.71186,2.55732 -5.38064,0.8604 -5.46048,6.88312 -0.0912,6.88312 0.95803,0 2.12493,-0.34665 2.59312,-0.77035 l 0,10e-6 z m 10.37857,-0.51839 c -0.22075,-0.87954 -0.0214,-1.67278 0.62794,-2.49825 l 0.95139,-1.20949 1.1721,1.58535 c 0.76583,1.03583 0.96687,1.65377 0.58,1.78272 -0.32566,0.10856 -0.5921,0.51936 -0.5921,0.91289 0,0.53782 0.75266,0.71553 3.03045,0.71553 2.35703,0 3.03046,-0.16836 3.03046,-0.75761 0,-0.41669 -0.4334,-0.75762 -0.96312,-0.75762 -0.53523,0 -1.88893,-1.10578 -3.047,-2.48896 l -2.08388,-2.48897 1.58804,-1.80868 c 0.87343,-0.99478 2.13094,-1.94494 2.79447,-2.11148 2.07409,-0.52058 1.3202,-1.20345 -1.32859,-1.20345 -2.39101,0 -2.51848,0.0658 -2.24423,1.15852 0.1949,0.77653 -0.0291,1.44799 -0.67933,2.03645 -0.92803,0.83985 -1.00568,0.82361 -1.79068,-0.37445 -0.45132,-0.6888 -0.68518,-1.6052 -0.5197,-2.03644 0.24991,-0.65127 -0.17881,-0.78408 -2.53108,-0.78408 -1.55758,0 -2.83196,0.22729 -2.83196,0.50508 0,0.27779 0.44416,0.50507 0.98702,0.50507 0.58085,0 1.72578,0.96753 2.78226,2.35116 l 1.79524,2.35116 -1.17911,1.56318 c -0.6485,0.85975 -1.8956,1.90411 -2.77132,2.3208 -2.45069,1.16608 -2.04222,2.0203 0.96605,2.0203 2.51385,0 2.57182,-0.0331 2.25668,-1.28874 l 0,1e-5 z m 15.36623,0.53112 c 0,-0.42089 -0.44895,-0.75761 -1.01015,-0.75761 -0.94638,0 -1.01015,-0.33672 -1.01015,-5.33379 l 0,-5.33379 -1.85499,0.15675 c -2.0587,0.17398 -2.79996,1.14099 -1.19612,1.5604 0.93681,0.24498 1.0308,0.66534 1.0308,4.60999 0,4.00372 -0.0784,4.34044 -1.01015,4.34044 -0.56119,0 -1.01015,0.33672 -1.01015,0.75761 0,0.58926 0.67343,0.75761 3.03046,0.75761 2.35702,0 3.03045,-0.16835 3.03045,-0.75761 z m 7.57615,0 c 0,-0.42089 -0.44896,-0.75761 -1.01015,-0.75761 -0.92036,0 -1.01016,-0.33672 -1.01016,-3.78808 0,-3.1523 0.17475,-3.96282 1.04121,-4.82928 1.35877,-1.35876 3.10859,-1.09522 3.5597,0.53614 0.44953,1.62563 0.54046,6.24726 0.14328,7.28229 -0.16862,0.43941 -0.62318,0.79893 -1.01015,0.79893 -0.38697,0 -0.70358,0.34092 -0.70358,0.75761 0,0.58926 0.67343,0.75761 3.03046,0.75761 2.35702,0 3.03046,-0.16835 3.03046,-0.75761 0,-0.42089 -0.44896,-0.75761 -1.01016,-0.75761 -0.91205,0 -1.01015,-0.33672 -1.01015,-3.46742 0,-3.72395 1.16392,-6.12903 2.9661,-6.12903 1.65929,0 2.08466,1.10275 2.08466,5.40431 0,3.85542 -0.0811,4.19214 -1.01015,4.19214 -0.56119,0 -1.01015,0.33672 -1.01015,0.75761 0,0.58926 0.67343,0.75761 3.03046,0.75761 2.35702,0 3.03045,-0.16835 3.03045,-0.75761 0,-0.42089 -0.44895,-0.75761 -1.01015,-0.75761 -0.93485,0 -1.01015,-0.33672 -1.01015,-4.51705 0,-4.09522 -0.10483,-4.59047 -1.12254,-5.3033 -1.50232,-1.05227 -3.56092,-0.99306 -4.96358,0.14274 -1.11385,0.90195 -1.17431,0.90195 -2.07626,0 -1.24937,-1.24937 -3.98522,-1.19809 -5.37944,0.10083 l -1.10539,1.02983 0,-1.06032 c 0,-0.91302 -0.25769,-1.03854 -1.855,-0.90355 -1.96543,0.16609 -3.04052,1.41944 -1.21755,1.41944 0.98833,0 1.05224,0.27611 1.05224,4.54569 0,4.20897 -0.0748,4.54569 -1.01015,4.54569 -0.5612,0 -1.01015,0.33672 -1.01015,0.75761 0,0.59573 0.70149,0.75761 3.28299,0.75761 2.5815,0 3.283,-0.16188 3.283,-0.75761 z m 22.11097,-0.0286 c 0.61739,-0.43244 1.12254,-0.5614 1.12254,-0.28657 0,0.80992 1.89749,1.17409 3.01138,0.57796 0.73157,-0.39153 1.02923,-1.05694 1.02923,-2.30083 0,-0.96249 -0.22729,-1.74999 -0.50508,-1.74999 -0.27779,0 -0.50508,0.70079 -0.50508,1.55731 0,1.02062 -0.21758,1.48529 -0.63134,1.34831 -0.41916,-0.13876 -0.68054,-1.58877 -0.77771,-4.31438 -0.13301,-3.73113 -0.26584,-4.19936 -1.45707,-5.13638 -2.67272,-2.10236 -7.45472,-0.81473 -7.13797,1.92202 0.11015,0.9517 0.44789,1.34012 1.16526,1.34012 0.81822,0 0.996,-0.31189 0.93568,-1.6415 -0.0673,-1.48419 0.063,-1.6415 1.36032,-1.6415 0.91011,0 1.72232,0.4105 2.22105,1.12254 1.20688,1.72307 0.95616,2.33646 -1.10779,2.71015 -4.8945,0.88618 -7.09798,3.84281 -4.67195,6.26884 1.23394,1.23394 4.3396,1.35084 5.94853,0.2239 z m 12.23421,0.0286 c 0,-0.42089 -0.44895,-0.75761 -1.01015,-0.75761 -0.97054,0 -1.01015,-0.33672 -1.01015,-8.5863 l 0,-8.5863 -1.47392,0 c -1.7751,0 -3.07177,0.44922 -3.07177,1.06419 0,0.24807 0.45457,0.45104 1.01016,0.45104 0.96637,0 1.01015,0.33672 1.01015,7.76978 0,7.46905 -0.0411,7.78051 -1.06098,8.04722 -1.99817,0.52254 -0.39669,1.35559 2.60602,1.35559 2.33052,0 3.00064,-0.16919 3.00064,-0.75761 z m 18.86661,-0.48096 c 0.73505,-0.68122 1.33645,-1.59035 1.33645,-2.0203 0,-1.1349 -0.41039,-0.97177 -1.84528,0.73349 -0.71689,0.85198 -1.76949,1.51523 -2.40473,1.51523 -1.40482,0 -3.11688,-1.82021 -3.44424,-3.6618 l -0.2469,-1.38896 3.97057,0 3.97058,0 0,-1.47648 c 0,-0.85154 -0.55345,-2.13421 -1.30759,-3.03045 -1.08474,-1.28914 -1.67569,-1.55399 -3.46742,-1.55399 -2.71674,0 -4.59461,1.39854 -5.37491,4.00295 -1.66974,5.57312 4.786,10.61285 8.81347,6.88031 z m 11.27826,-3.68592 c 1.37427,-3.42816 2.31234,-5.07599 3.08722,-5.42307 1.80233,-0.80729 1.28835,-1.26919 -1.41228,-1.26919 -2.64856,0 -3.0383,0.2712 -1.74683,1.21554 0.69284,0.50662 0.65569,0.8742 -0.3374,3.33868 -0.61378,1.52316 -1.26965,2.94991 -1.45751,3.17055 -0.18786,0.22065 -0.80945,-0.80213 -1.3813,-2.27284 -0.57186,-1.4707 -1.19978,-3.07176 -1.39538,-3.55789 -0.25054,-0.62265 -0.11576,-0.88389 0.456,-0.88389 0.44642,0 0.81166,-0.22728 0.81166,-0.50507 0,-0.27779 -1.25007,-0.50508 -2.77792,-0.50508 -2.67234,0 -3.73028,0.63291 -1.89404,1.13311 0.57519,0.15668 1.57165,2.02944 2.85315,5.36221 1.08309,2.81679 2.25079,5.12143 2.59488,5.12143 0.34409,0 1.51398,-2.21602 2.59975,-4.92449 z m 12.82547,3.44812 c 1.35733,-1.35733 1.90986,-2.56423 1.17394,-2.56423 -0.16633,0 -0.93938,0.68185 -1.71787,1.51522 -0.77849,0.83338 -1.86728,1.51523 -2.41953,1.51523 -1.51035,0 -3.09404,-1.56479 -3.45046,-3.40926 l -0.31719,-1.6415 3.82139,0 c 2.10177,0 3.96462,-0.23173 4.13966,-0.51495 0.51282,-0.82977 -0.74649,-3.96139 -1.9249,-4.78679 -0.59614,-0.41754 -1.93887,-0.75918 -2.98384,-0.75918 -5.49304,0 -7.49798,8.25212 -2.71376,11.16953 2.3355,1.42418 4.63263,1.23586 6.39256,-0.52407 z m 8.54744,0.71876 c 0,-0.42089 -0.44895,-0.75761 -1.01015,-0.75761 -0.89668,0 -1.01015,-0.33672 -1.01015,-2.99758 0,-3.72068 0.62387,-5.43438 2.24775,-6.17426 2.19382,-0.99958 2.80301,0.0742 2.80301,4.94053 0,3.89459 -0.0804,4.23131 -1.01015,4.23131 -0.57504,0 -1.01015,0.33672 -1.01015,0.78171 0,0.63736 0.57553,0.75395 3.11664,0.63135 1.92977,-0.0931 3.19602,-0.3908 3.32508,-0.78172 0.11922,-0.36108 -0.21488,-0.63134 -0.78046,-0.63134 -0.88795,0 -1.01232,-0.44612 -1.21827,-4.36997 -0.19876,-3.78694 -0.38314,-4.49449 -1.38198,-5.3033 -1.40755,-1.13977 -3.46474,-1.20066 -4.96893,-0.14708 -1.01599,0.71162 -1.12254,0.71162 -1.12254,0 0,-0.58058 -0.52849,-0.78626 -2.02031,-0.78626 -2.17366,0 -2.88564,1.17113 -1.01015,1.66158 0.9113,0.23831 1.01015,0.68893 1.01015,4.60459 0,4.00372 -0.0784,4.34044 -1.01015,4.34044 -0.56119,0 -1.01015,0.33672 -1.01015,0.75761 0,0.58926 0.67343,0.75761 3.03046,0.75761 2.35702,0 3.03045,-0.16835 3.03045,-0.75761 z m -96.25834,-14.19617 c 1.04712,-0.40182 1.03066,-2.52689 -0.0227,-2.9311 -1.62197,-0.62241 -2.84635,1.38795 -1.60272,2.63158 0.70829,0.70829 0.60825,0.68985 1.62544,0.29952 z"
       style="color:#000000;clip-rule:nonzero;display:inline;overflow:visible;visibility:visible;opacity:1;isolation:auto;mix-blend-mode:normal;color-interpolation:sRGB;color-interpolation-filters:linearRGB;solid-color:#000000;solid-opacity:1;fill:none;fill-opacity:0;fill-rule:nonzero;stroke:none;stroke-width:3;stroke-linecap:butt;stroke-linejoin:miter;stroke-miterlimit:4;stroke-dasharray:none;stroke-dashoffset:0;stroke-opacity:1;color-rendering:auto;image-rendering:auto;shape-rendering:auto;text-rendering:auto;enable-background:accumulate" />
    <path
       inkscape:connector-curvature="0"
       id="path4259"
       d="m 295.15911,487.97093 c -48.72514,-1.57462 -99.18755,-9.6092 -147.22974,-23.44178 -13.08661,-3.76797 -29.64038,-9.2452 -39.31334,-13.00781 l -6.48338,-2.52192 4.74939,-3.17601 c 15.7767,-10.55018 38.96765,-22.17731 59.28725,-29.72453 30.12015,-11.1874 63.17264,-18.76634 97.17001,-22.28111 26.96314,-2.78754 58.31441,-2.97151 85.35789,-0.50086 60.27788,5.50687 117.28908,23.75367 159.02773,50.89785 l 5.73707,3.73102 -5.73707,2.40908 c -29.68217,12.46395 -62.79175,22.45936 -94.6305,28.56787 -28.10711,5.39256 -52.46946,8.04226 -83.33759,9.06395 -16.30372,0.53963 -17.4278,0.53911 -34.59772,-0.0158 l 0,10e-6 z"
       style="color:#000000;clip-rule:nonzero;display:inline;overflow:visible;visibility:visible;opacity:1;isolation:auto;mix-blend-mode:normal;color-interpolation:sRGB;color-interpolation-filters:linearRGB;solid-color:#000000;solid-opacity:1;fill:#008000;fill-opacity:0;fill-rule:nonzero;stroke:none;stroke-width:3;stroke-linecap:butt;stroke-linejoin:miter;stroke-miterlimit:4;stroke-dasharray:none;stroke-dashoffset:0;stroke-opacity:1;color-rendering:auto;image-rendering:auto;shape-rendering:auto;text-rendering:auto;enable-background:accumulate" />
    <path
       inkscape:connector-curvature="0"
       id="path4261"
       d="m 295.15911,487.97093 c -48.72514,-1.57462 -99.18755,-9.6092 -147.22974,-23.44178 -13.08661,-3.76797 -29.64038,-9.2452 -39.31334,-13.00781 l -6.48338,-2.52192 4.74939,-3.17601 c 15.7767,-10.55018 38.96765,-22.17731 59.28725,-29.72453 30.12015,-11.1874 63.17264,-18.76634 97.17001,-22.28111 26.96314,-2.78754 58.31441,-2.97151 85.35789,-0.50086 60.27788,5.50687 117.28908,23.75367 159.02773,50.89785 l 5.73707,3.73102 -5.73707,2.40908 c -29.68217,12.46395 -62.79175,22.45936 -94.6305,28.56787 -28.10711,5.39256 -52.46946,8.04226 -83.33759,9.06395 -16.30372,0.53963 -17.4278,0.53911 -34.59772,-0.0158 l 0,10e-6 z"
       style="color:#000000;clip-rule:nonzero;display:inline;overflow:visible;visibility:visible;opacity:1;isolation:auto;mix-blend-mode:normal;color-interpolation:sRGB;color-interpolation-filters:linearRGB;solid-color:#000000;solid-opacity:1;fill:#008000;fill-opacity:0;fill-rule:nonzero;stroke:none;stroke-width:3;stroke-linecap:butt;stroke-linejoin:miter;stroke-miterlimit:4;stroke-dasharray:none;stroke-dashoffset:0;stroke-opacity:1;color-rendering:auto;image-rendering:auto;shape-rendering:auto;text-rendering:auto;enable-background:accumulate" />
    <path
       inkscape:connector-curvature="0"
       id="path4263"
       d="m 295.15911,487.97093 c -48.72514,-1.57462 -99.18755,-9.6092 -147.22974,-23.44178 -13.08661,-3.76797 -29.64038,-9.2452 -39.31334,-13.00781 l -6.48338,-2.52192 4.74939,-3.17601 c 15.7767,-10.55018 38.96765,-22.17731 59.28725,-29.72453 30.12015,-11.1874 63.17264,-18.76634 97.17001,-22.28111 26.96314,-2.78754 58.31441,-2.97151 85.35789,-0.50086 60.27788,5.50687 117.28908,23.75367 159.02773,50.89785 l 5.73707,3.73102 -5.73707,2.40908 c -29.68217,12.46395 -62.79175,22.45936 -94.6305,28.56787 -28.10711,5.39256 -52.46946,8.04226 -83.33759,9.06395 -16.30372,0.53963 -17.4278,0.53911 -34.59772,-0.0158 l 0,10e-6 z"
       style="color:#000000;clip-rule:nonzero;display:inline;overflow:visible;visibility:visible;opacity:1;isolation:auto;mix-blend-mode:normal;color-interpolation:sRGB;color-interpolation-filters:linearRGB;solid-color:#000000;solid-opacity:1;fill:#008000;fill-opacity:0;fill-rule:nonzero;stroke:none;stroke-width:3;stroke-linecap:butt;stroke-linejoin:miter;stroke-miterlimit:4;stroke-dasharray:none;stroke-dashoffset:0;stroke-opacity:1;color-rendering:auto;image-rendering:auto;shape-rendering:auto;text-rendering:auto;enable-background:accumulate" />
    <path
       inkscape:connector-curvature="0"
       id="path4265"
       d="m 295.15911,487.97093 c -48.72514,-1.57462 -99.18755,-9.6092 -147.22974,-23.44178 -13.08661,-3.76797 -29.64038,-9.2452 -39.31334,-13.00781 l -6.48338,-2.52192 4.74939,-3.17601 c 15.7767,-10.55018 38.96765,-22.17731 59.28725,-29.72453 30.12015,-11.1874 63.17264,-18.76634 97.17001,-22.28111 26.96314,-2.78754 58.31441,-2.97151 85.35789,-0.50086 60.27788,5.50687 117.28908,23.75367 159.02773,50.89785 l 5.73707,3.73102 -5.73707,2.40908 c -29.68217,12.46395 -62.79175,22.45936 -94.6305,28.56787 -28.10711,5.39256 -52.46946,8.04226 -83.33759,9.06395 -16.30372,0.53963 -17.4278,0.53911 -34.59772,-0.0158 l 0,10e-6 z"
       style="color:#000000;clip-rule:nonzero;display:inline;overflow:visible;visibility:visible;opacity:1;isolation:auto;mix-blend-mode:normal;color-interpolation:sRGB;color-interpolation-filters:linearRGB;solid-color:#000000;solid-opacity:1;fill:#249e24;fill-opacity:0;fill-rule:nonzero;stroke:none;stroke-width:3;stroke-linecap:butt;stroke-linejoin:miter;stroke-miterlimit:4;stroke-dasharray:none;stroke-dashoffset:0;stroke-opacity:1;color-rendering:auto;image-rendering:auto;shape-rendering:auto;text-rendering:auto;enable-background:accumulate" />
    <path
       inkscape:connector-curvature="0"
       id="path4267"
       d="m 295.15911,487.97093 c -48.72514,-1.57462 -99.18755,-9.6092 -147.22974,-23.44178 -13.08661,-3.76797 -29.64038,-9.2452 -39.31334,-13.00781 l -6.48338,-2.52192 4.74939,-3.17601 c 15.7767,-10.55018 38.96765,-22.17731 59.28725,-29.72453 30.12015,-11.1874 63.17264,-18.76634 97.17001,-22.28111 26.96314,-2.78754 58.31441,-2.97151 85.35789,-0.50086 60.27788,5.50687 117.28908,23.75367 159.02773,50.89785 l 5.73707,3.73102 -5.73707,2.40908 c -29.68217,12.46395 -62.79175,22.45936 -94.6305,28.56787 -28.10711,5.39256 -52.46946,8.04226 -83.33759,9.06395 -16.30372,0.53963 -17.4278,0.53911 -34.59772,-0.0158 l 0,10e-6 z"
       style="color:#000000;clip-rule:nonzero;display:inline;overflow:visible;visibility:visible;opacity:1;isolation:auto;mix-blend-mode:normal;color-interpolation:sRGB;color-interpolation-filters:linearRGB;solid-color:#000000;solid-opacity:1;fill:#249e24;fill-opacity:0;fill-rule:nonzero;stroke:none;stroke-width:3;stroke-linecap:butt;stroke-linejoin:miter;stroke-miterlimit:4;stroke-dasharray:none;stroke-dashoffset:0;stroke-opacity:1;color-rendering:auto;image-rendering:auto;shape-rendering:auto;text-rendering:auto;enable-background:accumulate" />
    <path
       inkscape:connector-curvature="0"
       id="path4269"
       d="m 295.15911,487.97093 c -48.72514,-1.57462 -99.18755,-9.6092 -147.22974,-23.44178 -13.08661,-3.76797 -29.64038,-9.2452 -39.31334,-13.00781 l -6.48338,-2.52192 4.74939,-3.17601 c 15.7767,-10.55018 38.96765,-22.17731 59.28725,-29.72453 30.12015,-11.1874 63.17264,-18.76634 97.17001,-22.28111 26.96314,-2.78754 58.31441,-2.97151 85.35789,-0.50086 60.27788,5.50687 117.28908,23.75367 159.02773,50.89785 l 5.73707,3.73102 -5.73707,2.40908 c -29.68217,12.46395 -62.79175,22.45936 -94.6305,28.56787 -28.10711,5.39256 -52.46946,8.04226 -83.33759,9.06395 -16.30372,0.53963 -17.4278,0.53911 -34.59772,-0.0158 l 0,10e-6 z"
       style="color:#000000;clip-rule:nonzero;display:inline;overflow:visible;visibility:visible;opacity:1;isolation:auto;mix-blend-mode:normal;color-interpolation:sRGB;color-interpolation-filters:linearRGB;solid-color:#000000;solid-opacity:1;fill:#249e24;fill-opacity:0;fill-rule:nonzero;stroke:none;stroke-width:3;stroke-linecap:butt;stroke-linejoin:miter;stroke-miterlimit:4;stroke-dasharray:none;stroke-dashoffset:0;stroke-opacity:1;color-rendering:auto;image-rendering:auto;shape-rendering:auto;text-rendering:auto;enable-background:accumulate" />
    <path
       inkscape:connector-curvature="0"
       id="path4271"
       d="m 295.15911,487.97093 c -48.72514,-1.57462 -99.18755,-9.6092 -147.22974,-23.44178 -13.08661,-3.76797 -29.64038,-9.2452 -39.31334,-13.00781 l -6.48338,-2.52192 4.74939,-3.17601 c 15.7767,-10.55018 38.96765,-22.17731 59.28725,-29.72453 30.12015,-11.1874 63.17264,-18.76634 97.17001,-22.28111 26.96314,-2.78754 58.31441,-2.97151 85.35789,-0.50086 60.27788,5.50687 117.28908,23.75367 159.02773,50.89785 l 5.73707,3.73102 -5.73707,2.40908 c -29.68217,12.46395 -62.79175,22.45936 -94.6305,28.56787 -28.10711,5.39256 -52.46946,8.04226 -83.33759,9.06395 -16.30372,0.53963 -17.4278,0.53911 -34.59772,-0.0158 l 0,10e-6 z"
       style="color:#000000;clip-rule:nonzero;display:inline;overflow:visible;visibility:visible;opacity:1;isolation:auto;mix-blend-mode:normal;color-interpolation:sRGB;color-interpolation-filters:linearRGB;solid-color:#000000;solid-opacity:1;fill:#249e24;fill-opacity:0;fill-rule:nonzero;stroke:none;stroke-width:3;stroke-linecap:butt;stroke-linejoin:miter;stroke-miterlimit:4;stroke-dasharray:none;stroke-dashoffset:0;stroke-opacity:1;color-rendering:auto;image-rendering:auto;shape-rendering:auto;text-rendering:auto;enable-background:accumulate" />
    <path
       inkscape:connector-curvature="0"
       id="path4273"
       d="m 295.15911,487.97093 c -48.72514,-1.57462 -99.18755,-9.6092 -147.22974,-23.44178 -13.08661,-3.76797 -29.64038,-9.2452 -39.31334,-13.00781 l -6.48338,-2.52192 4.74939,-3.17601 c 15.7767,-10.55018 38.96765,-22.17731 59.28725,-29.72453 30.12015,-11.1874 63.17264,-18.76634 97.17001,-22.28111 26.96314,-2.78754 58.31441,-2.97151 85.35789,-0.50086 60.27788,5.50687 117.28908,23.75367 159.02773,50.89785 l 5.73707,3.73102 -5.73707,2.40908 c -29.68217,12.46395 -62.79175,22.45936 -94.6305,28.56787 -28.10711,5.39256 -52.46946,8.04226 -83.33759,9.06395 -16.30372,0.53963 -17.4278,0.53911 -34.59772,-0.0158 l 0,10e-6 z"
       style="color:#000000;clip-rule:nonzero;display:inline;overflow:visible;visibility:visible;opacity:1;isolation:auto;mix-blend-mode:normal;color-interpolation:sRGB;color-interpolation-filters:linearRGB;solid-color:#000000;solid-opacity:1;fill:#249e24;fill-opacity:0;fill-rule:nonzero;stroke:none;stroke-width:3;stroke-linecap:butt;stroke-linejoin:miter;stroke-miterlimit:4;stroke-dasharray:none;stroke-dashoffset:0;stroke-opacity:1;color-rendering:auto;image-rendering:auto;shape-rendering:auto;text-rendering:auto;enable-background:accumulate" />
    <path
       inkscape:connector-curvature="0"
       id="path4275"
       d="m 295.15911,487.97093 c -48.72514,-1.57462 -99.18755,-9.6092 -147.22974,-23.44178 -13.08661,-3.76797 -29.64038,-9.2452 -39.31334,-13.00781 l -6.48338,-2.52192 4.74939,-3.17601 c 15.7767,-10.55018 38.96765,-22.17731 59.28725,-29.72453 30.12015,-11.1874 63.17264,-18.76634 97.17001,-22.28111 26.96314,-2.78754 58.31441,-2.97151 85.35789,-0.50086 60.27788,5.50687 117.28908,23.75367 159.02773,50.89785 l 5.73707,3.73102 -5.73707,2.40908 c -29.68217,12.46395 -62.79175,22.45936 -94.6305,28.56787 -28.10711,5.39256 -52.46946,8.04226 -83.33759,9.06395 -16.30372,0.53963 -17.4278,0.53911 -34.59772,-0.0158 l 0,10e-6 z"
       style="color:#000000;clip-rule:nonzero;display:inline;overflow:visible;visibility:visible;opacity:1;isolation:auto;mix-blend-mode:normal;color-interpolation:sRGB;color-interpolation-filters:linearRGB;solid-color:#000000;solid-opacity:1;fill:#249e24;fill-opacity:0;fill-rule:nonzero;stroke:none;stroke-width:3;stroke-linecap:butt;stroke-linejoin:miter;stroke-miterlimit:4;stroke-dasharray:none;stroke-dashoffset:0;stroke-opacity:1;color-rendering:auto;image-rendering:auto;shape-rendering:auto;text-rendering:auto;enable-background:accumulate" />
    <path
       inkscape:connector-curvature="0"
       id="path4277"
       d="m 295.15911,487.97093 c -48.72514,-1.57462 -99.18755,-9.6092 -147.22974,-23.44178 -13.08661,-3.76797 -29.64038,-9.2452 -39.31334,-13.00781 l -6.48338,-2.52192 4.74939,-3.17601 c 15.7767,-10.55018 38.96765,-22.17731 59.28725,-29.72453 30.12015,-11.1874 63.17264,-18.76634 97.17001,-22.28111 26.96314,-2.78754 58.31441,-2.97151 85.35789,-0.50086 60.27788,5.50687 117.28908,23.75367 159.02773,50.89785 l 5.73707,3.73102 -5.73707,2.40908 c -29.68217,12.46395 -62.79175,22.45936 -94.6305,28.56787 -28.10711,5.39256 -52.46946,8.04226 -83.33759,9.06395 -16.30372,0.53963 -17.4278,0.53911 -34.59772,-0.0158 l 0,10e-6 z"
       style="color:#000000;clip-rule:nonzero;display:inline;overflow:visible;visibility:visible;opacity:1;isolation:auto;mix-blend-mode:normal;color-interpolation:sRGB;color-interpolation-filters:linearRGB;solid-color:#000000;solid-opacity:1;fill:#249e24;fill-opacity:0;fill-rule:nonzero;stroke:none;stroke-width:3;stroke-linecap:butt;stroke-linejoin:miter;stroke-miterlimit:4;stroke-dasharray:none;stroke-dashoffset:0;stroke-opacity:1;color-rendering:auto;image-rendering:auto;shape-rendering:auto;text-rendering:auto;enable-background:accumulate" />
    <path
       inkscape:connector-curvature="0"
       id="path4279"
       d="m 295.15911,487.97093 c -48.72514,-1.57462 -99.18755,-9.6092 -147.22974,-23.44178 -13.08661,-3.76797 -29.64038,-9.2452 -39.31334,-13.00781 l -6.48338,-2.52192 4.74939,-3.17601 c 15.7767,-10.55018 38.96765,-22.17731 59.28725,-29.72453 30.12015,-11.1874 63.17264,-18.76634 97.17001,-22.28111 26.96314,-2.78754 58.31441,-2.97151 85.35789,-0.50086 60.27788,5.50687 117.28908,23.75367 159.02773,50.89785 l 5.73707,3.73102 -5.73707,2.40908 c -29.68217,12.46395 -62.79175,22.45936 -94.6305,28.56787 -28.10711,5.39256 -52.46946,8.04226 -83.33759,9.06395 -16.30372,0.53963 -17.4278,0.53911 -34.59772,-0.0158 l 0,10e-6 z"
       style="color:#000000;clip-rule:nonzero;display:inline;overflow:visible;visibility:visible;opacity:1;isolation:auto;mix-blend-mode:normal;color-interpolation:sRGB;color-interpolation-filters:linearRGB;solid-color:#000000;solid-opacity:1;fill:#249e24;fill-opacity:0;fill-rule:nonzero;stroke:none;stroke-width:3;stroke-linecap:butt;stroke-linejoin:miter;stroke-miterlimit:4;stroke-dasharray:none;stroke-dashoffset:0;stroke-opacity:1;color-rendering:auto;image-rendering:auto;shape-rendering:auto;text-rendering:auto;enable-background:accumulate" />
    <path
       inkscape:connector-curvature="0"
       id="path4281"
       d="m 295.15911,487.97093 c -48.72514,-1.57462 -99.18755,-9.6092 -147.22974,-23.44178 -13.08661,-3.76797 -29.64038,-9.2452 -39.31334,-13.00781 l -6.48338,-2.52192 4.74939,-3.17601 c 15.7767,-10.55018 38.96765,-22.17731 59.28725,-29.72453 30.12015,-11.1874 63.17264,-18.76634 97.17001,-22.28111 26.96314,-2.78754 58.31441,-2.97151 85.35789,-0.50086 60.27788,5.50687 117.28908,23.75367 159.02773,50.89785 l 5.73707,3.73102 -5.73707,2.40908 c -29.68217,12.46395 -62.79175,22.45936 -94.6305,28.56787 -28.10711,5.39256 -52.46946,8.04226 -83.33759,9.06395 -16.30372,0.53963 -17.4278,0.53911 -34.59772,-0.0158 l 0,10e-6 z"
       style="color:#000000;clip-rule:nonzero;display:inline;overflow:visible;visibility:visible;opacity:1;isolation:auto;mix-blend-mode:normal;color-interpolation:sRGB;color-interpolation-filters:linearRGB;solid-color:#000000;solid-opacity:1;fill:#249e24;fill-opacity:0;fill-rule:nonzero;stroke:none;stroke-width:3;stroke-linecap:butt;stroke-linejoin:miter;stroke-miterlimit:4;stroke-dasharray:none;stroke-dashoffset:0;stroke-opacity:1;color-rendering:auto;image-rendering:auto;shape-rendering:auto;text-rendering:auto;enable-background:accumulate" />
    <path
       inkscape:connector-curvature="0"
       id="path4283"
       d="m 295.15911,487.97093 c -48.72514,-1.57462 -99.18755,-9.6092 -147.22974,-23.44178 -13.08661,-3.76797 -29.64038,-9.2452 -39.31334,-13.00781 l -6.48338,-2.52192 4.74939,-3.17601 c 15.7767,-10.55018 38.96765,-22.17731 59.28725,-29.72453 30.12015,-11.1874 63.17264,-18.76634 97.17001,-22.28111 26.96314,-2.78754 58.31441,-2.97151 85.35789,-0.50086 60.27788,5.50687 117.28908,23.75367 159.02773,50.89785 l 5.73707,3.73102 -5.73707,2.40908 c -29.68217,12.46395 -62.79175,22.45936 -94.6305,28.56787 -28.10711,5.39256 -52.46946,8.04226 -83.33759,9.06395 -16.30372,0.53963 -17.4278,0.53911 -34.59772,-0.0158 l 0,10e-6 z"
       style="color:#000000;clip-rule:nonzero;display:inline;overflow:visible;visibility:visible;opacity:1;isolation:auto;mix-blend-mode:normal;color-interpolation:sRGB;color-interpolation-filters:linearRGB;solid-color:#000000;solid-opacity:1;fill:#249e24;fill-opacity:0;fill-rule:nonzero;stroke:none;stroke-width:3;stroke-linecap:butt;stroke-linejoin:miter;stroke-miterlimit:4;stroke-dasharray:none;stroke-dashoffset:0;stroke-opacity:1;color-rendering:auto;image-rendering:auto;shape-rendering:auto;text-rendering:auto;enable-background:accumulate" />
    <path
       inkscape:connector-curvature="0"
       id="path4285"
       d="m 295.15911,487.97093 c -48.72514,-1.57462 -99.18755,-9.6092 -147.22974,-23.44178 -13.08661,-3.76797 -29.64038,-9.2452 -39.31334,-13.00781 l -6.48338,-2.52192 4.74939,-3.17601 c 15.7767,-10.55018 38.96765,-22.17731 59.28725,-29.72453 30.12015,-11.1874 63.17264,-18.76634 97.17001,-22.28111 26.96314,-2.78754 58.31441,-2.97151 85.35789,-0.50086 60.27788,5.50687 117.28908,23.75367 159.02773,50.89785 l 5.73707,3.73102 -5.73707,2.40908 c -29.68217,12.46395 -62.79175,22.45936 -94.6305,28.56787 -28.10711,5.39256 -52.46946,8.04226 -83.33759,9.06395 -16.30372,0.53963 -17.4278,0.53911 -34.59772,-0.0158 l 0,10e-6 z"
       style="color:#000000;clip-rule:nonzero;display:inline;overflow:visible;visibility:visible;opacity:1;isolation:auto;mix-blend-mode:normal;color-interpolation:sRGB;color-interpolation-filters:linearRGB;solid-color:#000000;solid-opacity:1;fill:#249e24;fill-opacity:0;fill-rule:nonzero;stroke:none;stroke-width:3;stroke-linecap:butt;stroke-linejoin:miter;stroke-miterlimit:4;stroke-dasharray:none;stroke-dashoffset:0;stroke-opacity:1;color-rendering:auto;image-rendering:auto;shape-rendering:auto;text-rendering:auto;enable-background:accumulate" />
    <path
       inkscape:connector-curvature="0"
       id="path4287"
       d="m 292.28017,488.02946 c -50.81646,-1.97643 -102.56386,-10.67042 -151.55755,-25.46291 -11.66341,-3.52149 -26.36065,-8.58883 -36.36942,-12.53952 l -2.43771,-0.96222 1.04875,-0.76048 c 0.57681,-0.41826 2.63974,-1.79821 4.58428,-3.06655 26.40339,-17.22173 57.42278,-30.6619 92.3027,-39.99314 49.26704,-13.18015 104.77363,-17.09311 157.90005,-11.13122 53.77799,6.03502 104.1488,22.14254 143.49732,45.88742 4.60536,2.77911 12.25456,7.72233 12.25482,7.91955 2e-4,0.16964 -7.17651,3.20764 -14.26823,6.03995 -31.04197,12.39758 -65.04774,21.79726 -99.50003,27.50323 -21.46266,3.55464 -42.68427,5.67635 -65.78618,6.57722 -7.30763,0.28496 -34.23903,0.27764 -41.6688,-0.0113 l 0,10e-6 z"
       style="color:#000000;clip-rule:nonzero;display:inline;overflow:visible;visibility:visible;opacity:1;isolation:auto;mix-blend-mode:normal;color-interpolation:sRGB;color-interpolation-filters:linearRGB;solid-color:#000000;solid-opacity:1;fill:#249e24;fill-opacity:0;fill-rule:nonzero;stroke:none;stroke-width:3;stroke-linecap:butt;stroke-linejoin:miter;stroke-miterlimit:4;stroke-dasharray:none;stroke-dashoffset:0;stroke-opacity:1;color-rendering:auto;image-rendering:auto;shape-rendering:auto;text-rendering:auto;enable-background:accumulate" />
    <path
       inkscape:connector-curvature="0"
       id="path4289"
       d="m 292.28017,488.02946 c -50.81646,-1.97643 -102.56386,-10.67042 -151.55755,-25.46291 -11.66341,-3.52149 -26.36065,-8.58883 -36.36942,-12.53952 l -2.43771,-0.96222 1.04875,-0.76048 c 0.57681,-0.41826 2.63974,-1.79821 4.58428,-3.06655 26.40339,-17.22173 57.42278,-30.6619 92.3027,-39.99314 49.26704,-13.18015 104.77363,-17.09311 157.90005,-11.13122 53.77799,6.03502 104.1488,22.14254 143.49732,45.88742 4.60536,2.77911 12.25456,7.72233 12.25482,7.91955 2e-4,0.16964 -7.17651,3.20764 -14.26823,6.03995 -31.04197,12.39758 -65.04774,21.79726 -99.50003,27.50323 -21.46266,3.55464 -42.68427,5.67635 -65.78618,6.57722 -7.30763,0.28496 -34.23903,0.27764 -41.6688,-0.0113 l 0,10e-6 z"
       style="color:#000000;clip-rule:nonzero;display:inline;overflow:visible;visibility:visible;opacity:1;isolation:auto;mix-blend-mode:normal;color-interpolation:sRGB;color-interpolation-filters:linearRGB;solid-color:#000000;solid-opacity:1;fill:#249e24;fill-opacity:0;fill-rule:nonzero;stroke:none;stroke-width:3;stroke-linecap:butt;stroke-linejoin:miter;stroke-miterlimit:4;stroke-dasharray:none;stroke-dashoffset:0;stroke-opacity:1;color-rendering:auto;image-rendering:auto;shape-rendering:auto;text-rendering:auto;enable-background:accumulate" />
    <path
       inkscape:connector-curvature="0"
       id="path4291"
       d="m 292.28017,488.02946 c -50.81646,-1.97643 -102.56386,-10.67042 -151.55755,-25.46291 -11.66341,-3.52149 -26.36065,-8.58883 -36.36942,-12.53952 l -2.43771,-0.96222 1.04875,-0.76048 c 0.57681,-0.41826 2.63974,-1.79821 4.58428,-3.06655 26.40339,-17.22173 57.42278,-30.6619 92.3027,-39.99314 49.26704,-13.18015 104.77363,-17.09311 157.90005,-11.13122 53.77799,6.03502 104.1488,22.14254 143.49732,45.88742 4.60536,2.77911 12.25456,7.72233 12.25482,7.91955 2e-4,0.16964 -7.17651,3.20764 -14.26823,6.03995 -31.04197,12.39758 -65.04774,21.79726 -99.50003,27.50323 -21.46266,3.55464 -42.68427,5.67635 -65.78618,6.57722 -7.30763,0.28496 -34.23903,0.27764 -41.6688,-0.0113 l 0,10e-6 z"
       style="color:#000000;clip-rule:nonzero;display:inline;overflow:visible;visibility:visible;opacity:1;isolation:auto;mix-blend-mode:normal;color-interpolation:sRGB;color-interpolation-filters:linearRGB;solid-color:#000000;solid-opacity:1;fill:#249e24;fill-opacity:0;fill-rule:nonzero;stroke:none;stroke-width:3;stroke-linecap:butt;stroke-linejoin:miter;stroke-miterlimit:4;stroke-dasharray:none;stroke-dashoffset:0;stroke-opacity:1;color-rendering:auto;image-rendering:auto;shape-rendering:auto;text-rendering:auto;enable-background:accumulate" />
    <path
       inkscape:connector-curvature="0"
       id="path4293"
       d="m 292.28017,488.02946 c -50.81646,-1.97643 -102.56386,-10.67042 -151.55755,-25.46291 -11.66341,-3.52149 -26.36065,-8.58883 -36.36942,-12.53952 l -2.43771,-0.96222 1.04875,-0.76048 c 0.57681,-0.41826 2.63974,-1.79821 4.58428,-3.06655 26.40339,-17.22173 57.42278,-30.6619 92.3027,-39.99314 49.26704,-13.18015 104.77363,-17.09311 157.90005,-11.13122 53.77799,6.03502 104.1488,22.14254 143.49732,45.88742 4.60536,2.77911 12.25456,7.72233 12.25482,7.91955 2e-4,0.16964 -7.17651,3.20764 -14.26823,6.03995 -31.04197,12.39758 -65.04774,21.79726 -99.50003,27.50323 -21.46266,3.55464 -42.68427,5.67635 -65.78618,6.57722 -7.30763,0.28496 -34.23903,0.27764 -41.6688,-0.0113 l 0,10e-6 z"
       style="color:#000000;clip-rule:nonzero;display:inline;overflow:visible;visibility:visible;opacity:1;isolation:auto;mix-blend-mode:normal;color-interpolation:sRGB;color-interpolation-filters:linearRGB;solid-color:#000000;solid-opacity:1;fill:#249e24;fill-opacity:0;fill-rule:nonzero;stroke:none;stroke-width:3;stroke-linecap:butt;stroke-linejoin:miter;stroke-miterlimit:4;stroke-dasharray:none;stroke-dashoffset:0;stroke-opacity:1;color-rendering:auto;image-rendering:auto;shape-rendering:auto;text-rendering:auto;enable-background:accumulate" />
    <path
       inkscape:connector-curvature="0"
       id="path4299"
       d="m 295.15911,487.97093 c -48.72514,-1.57462 -99.18755,-9.6092 -147.22974,-23.44178 -13.08661,-3.76797 -29.64038,-9.2452 -39.31334,-13.00781 l -6.48338,-2.52192 4.74939,-3.17601 c 15.7767,-10.55018 38.96765,-22.17731 59.28725,-29.72453 30.12015,-11.1874 63.17264,-18.76634 97.17001,-22.28111 26.96314,-2.78754 58.31441,-2.97151 85.35789,-0.50086 60.27788,5.50687 117.28908,23.75367 159.02773,50.89785 l 5.73707,3.73102 -5.73707,2.40908 c -29.68217,12.46395 -62.79175,22.45936 -94.6305,28.56787 -28.10711,5.39256 -52.46946,8.04226 -83.33759,9.06395 -16.30372,0.53963 -17.4278,0.53911 -34.59772,-0.0158 l 0,10e-6 z"
       style="color:#000000;clip-rule:nonzero;display:inline;overflow:visible;visibility:visible;opacity:1;isolation:auto;mix-blend-mode:normal;color-interpolation:sRGB;color-interpolation-filters:linearRGB;solid-color:#000000;solid-opacity:1;fill:#249e24;fill-opacity:0;fill-rule:nonzero;stroke:none;stroke-width:3;stroke-linecap:butt;stroke-linejoin:miter;stroke-miterlimit:4;stroke-dasharray:none;stroke-dashoffset:0;stroke-opacity:1;color-rendering:auto;image-rendering:auto;shape-rendering:auto;text-rendering:auto;enable-background:accumulate" />
    <path
       inkscape:connector-curvature="0"
       id="path4301"
       d="m 295.15911,487.97093 c -48.72514,-1.57462 -99.18755,-9.6092 -147.22974,-23.44178 -13.08661,-3.76797 -29.64038,-9.2452 -39.31334,-13.00781 l -6.48338,-2.52192 4.74939,-3.17601 c 15.7767,-10.55018 38.96765,-22.17731 59.28725,-29.72453 30.12015,-11.1874 63.17264,-18.76634 97.17001,-22.28111 26.96314,-2.78754 58.31441,-2.97151 85.35789,-0.50086 60.27788,5.50687 117.28908,23.75367 159.02773,50.89785 l 5.73707,3.73102 -5.73707,2.40908 c -29.68217,12.46395 -62.79175,22.45936 -94.6305,28.56787 -28.10711,5.39256 -52.46946,8.04226 -83.33759,9.06395 -16.30372,0.53963 -17.4278,0.53911 -34.59772,-0.0158 l 0,10e-6 z"
       style="color:#000000;clip-rule:nonzero;display:inline;overflow:visible;visibility:visible;opacity:1;isolation:auto;mix-blend-mode:normal;color-interpolation:sRGB;color-interpolation-filters:linearRGB;solid-color:#000000;solid-opacity:1;fill:#249e24;fill-opacity:0;fill-rule:nonzero;stroke:none;stroke-width:3;stroke-linecap:butt;stroke-linejoin:miter;stroke-miterlimit:4;stroke-dasharray:none;stroke-dashoffset:0;stroke-opacity:1;color-rendering:auto;image-rendering:auto;shape-rendering:auto;text-rendering:auto;enable-background:accumulate" />
    <path
       style="color:#000000;clip-rule:nonzero;display:inline;overflow:visible;visibility:visible;opacity:1;isolation:auto;mix-blend-mode:normal;color-interpolation:sRGB;color-interpolation-filters:linearRGB;solid-color:#000000;solid-opacity:1;fill:#ea7676;fill-opacity:1;fill-rule:nonzero;stroke:none;stroke-width:2;stroke-linecap:butt;stroke-linejoin:round;stroke-miterlimit:4;stroke-dasharray:none;stroke-dashoffset:0;stroke-opacity:1;color-rendering:auto;image-rendering:auto;shape-rendering:auto;text-rendering:auto;enable-background:accumulate"
       d="m 526.43988,674.72213 c 34.03975,-26.52636 54.87837,-58.78342 59.84974,-92.64415 1.13194,-7.70979 1.3701,-21.5967 0.49459,-28.83936 -4.24559,-35.12207 -24.68711,-67.83551 -59.66691,-95.48753 l -5.72818,-4.52821 -0.12846,56.32795 c -0.0707,30.98037 -0.0707,81.70329 0,112.71759 l 0.12846,56.38965 5.05076,-3.93594 z"
       id="path4844"
       inkscape:connector-curvature="0" />
    <ellipse
       ry="175.48241"
       rx="280.21609"
       cy="566.89807"
       cx="309.16562"
       id="path4353"
       style="color:#000000;clip-rule:nonzero;display:inline;overflow:visible;visibility:visible;opacity:1;isolation:auto;mix-blend-mode:normal;color-interpolation:sRGB;color-interpolation-filters:linearRGB;solid-color:#000000;solid-opacity:1;fill:none;fill-opacity:0.39215686;fill-rule:nonzero;stroke:none;stroke-width:3;stroke-linecap:butt;stroke-linejoin:miter;stroke-miterlimit:4;stroke-dasharray:none;stroke-dashoffset:0;stroke-opacity:1;color-rendering:auto;image-rendering:auto;shape-rendering:auto;text-rendering:auto;enable-background:accumulate" />
    <path
       sodipodi:nodetypes="cc"
       inkscape:connector-curvature="0"
       id="path4313-1"
       d="M 99.747809,448.83363 291.44612,742.1401"
       style="fill:none;fill-rule:evenodd;stroke:#000000;stroke-width:1.00150347px;stroke-linecap:butt;stroke-linejoin:miter;stroke-opacity:1" />
    <path
       sodipodi:nodetypes="cc"
       inkscape:connector-curvature="0"
       id="path4313-2"
       d="M 320.82534,388.35869 512.68272,684.9084"
       style="fill:none;fill-rule:evenodd;stroke:#000000;stroke-width:1.00150347px;stroke-linecap:butt;stroke-linejoin:miter;stroke-opacity:1" />
    <g
       id="g4668"
       transform="translate(-109.00304,76.928117)">
      <path
         style="font-style:normal;font-variant:normal;font-weight:normal;font-stretch:normal;letter-spacing:normal;word-spacing:normal;text-anchor:start;fill:#000000;fill-opacity:1;fill-rule:evenodd;stroke:#000000;stroke-width:0;stroke-linecap:butt;stroke-linejoin:miter;stroke-miterlimit:10.43299961;stroke-dasharray:none;stroke-dashoffset:0;stroke-opacity:1"
         inkscape:connector-curvature="0"
         d="m 475.27895,555.79323 0.12007,-0.21405 0.12529,-0.2036 0.12529,-0.2036 0.13052,-0.19316 0.0626,-0.0888 0.0679,-0.094 0.0731,-0.0888 0.0731,-0.0835 0.0731,-0.0835 0.0731,-0.0835 0.0783,-0.0783 0.0835,-0.0731 0.0835,-0.0731 0.0888,-0.0679 0.0888,-0.0679 0.094,-0.0626 0.0992,-0.0574 0.10441,-0.0574 0.10441,-0.0522 0.10963,-0.047 0.11485,-0.047 0.12007,-0.0366 0.12008,-0.0365 0.13051,-0.0313 0.13573,-0.0313 0.13574,-0.0209 0.14617,-0.0209 0.1514,-0.0157 c 0.23492,-0.0261 0.49073,-0.0261 0.49073,-0.51684 0,-0.10441 -0.10441,-0.28713 -0.30801,-0.28713 l -4.70893,0 c -0.15662,0 -0.49595,0 -0.49595,0.49595 0,0.28191 0.23492,0.30802 0.39154,0.30802 0.62646,0.0261 1.53484,0.23492 1.53484,1.01278 0,0.28713 -0.13052,0.49595 -0.33934,0.86139 l -7.02163,12.2474 -0.96058,-12.89997 c -0.0261,-0.51683 -0.0783,-1.1955 1.82197,-1.2216 0.43853,0 0.69955,0 0.69955,-0.51684 0,-0.26102 -0.28713,-0.28713 -0.39154,-0.28713 l -5.89921,0 c -0.15662,0 -0.49595,0 -0.49595,0.51684 0,0.28713 0.26102,0.28713 0.62124,0.28713 1.14852,0 1.33124,0.15661 1.37823,0.65256 l 0.16183,1.99947 -6.5831,11.46954 -0.98668,-13.18188 c 0,-0.31323 0,-0.91359 1.97336,-0.93969 0.26103,0 0.54816,0 0.54816,-0.51684 0,-0.28713 -0.31324,-0.28713 -0.36544,-0.28713 l -5.92532,0 c -0.13051,0 -0.46985,0 -0.46985,0.49595 0,0.30802 0.23493,0.30802 0.64735,0.30802 1.30514,0 1.33124,0.23492 1.37822,0.96058 l 1.17463,15.89133 c 0.0261,0.46985 0.047,0.67867 0.41242,0.67867 0.31323,0 0.39154,-0.15662 0.62647,-0.54816 l 7.64287,-13.2654 0.9658,13.13489 c 0.0522,0.54816 0.10441,0.67867 0.41242,0.67867 0.33934,0 0.49596,-0.26103 0.62647,-0.49595 z"
         id="path7990" />
      <path
         style="font-style:normal;font-variant:normal;font-weight:normal;font-stretch:normal;letter-spacing:normal;word-spacing:normal;text-anchor:start;fill:#000000;fill-opacity:1;fill-rule:evenodd;stroke:#000000;stroke-width:0;stroke-linecap:butt;stroke-linejoin:miter;stroke-miterlimit:10.43299961;stroke-dasharray:none;stroke-dashoffset:0;stroke-opacity:1"
         inkscape:connector-curvature="0"
         d="m 490.3872,569.98788 0.005,-0.0157 0.005,-0.0104 0,-0.0104 0.005,-0.0104 0.005,-0.0104 0.005,-0.005 0.005,-0.0104 0.005,-0.0104 0,-0.0104 0.005,-0.0104 0.005,-0.0157 0.0104,-0.0157 0.005,-0.0157 0.005,-0.0157 0.005,-0.0104 0.005,-0.0157 0,-0.0104 0.005,-0.0157 0.005,-0.0104 0,-0.0104 0.005,-0.0104 0,-0.005 0.005,-0.0104 0,-0.005 0,-0.0104 0.005,-0.005 0,-0.005 0,-0.005 0,-0.005 0,-0.005 0,-0.005 0,-0.005 0,-0.005 0,0 0,-0.005 0,0 0,0 c 0,-0.10963 -0.0679,-0.25581 -0.30801,-0.25581 -0.0366,0 -0.1253,0 -0.19838,0.0731 -0.0366,0.0365 -0.0522,0.0522 -0.27147,0.52727 -1.18507,2.62072 -2.11432,3.53431 -5.07959,3.53431 l -3.09578,0 c -0.56382,0 -0.5847,-0.0209 -0.5847,-0.18794 0,-0.0157 0,-0.10441 0.0783,-0.3811 l 1.21639,-4.87598 2.03601,0 c 1.44087,0 1.66014,0.23492 1.66014,0.83528 0,0.19838 -0.0574,0.51162 -0.13052,0.81963 -0.0522,0.16183 -0.0522,0.18272 -0.0522,0.21926 0,0.0365 0.0157,0.25581 0.30801,0.25581 0.25581,0 0.27669,-0.094 0.34978,-0.40198 l 0.99712,-3.98328 c 0.0574,-0.21926 0.0574,-0.25581 0.0574,-0.27669 0,-0.18272 -0.14617,-0.2558 -0.30801,-0.2558 -0.24014,0 -0.2558,0.094 -0.36544,0.47507 -0.38109,1.41998 -0.92925,1.65491 -2.47975,1.65491 l -1.91072,0 1.09631,-4.32783 c 0.14618,-0.56904 0.16184,-0.62125 0.92926,-0.62125 l 2.96527,0 c 2.38579,0 2.98615,0.49073 2.98615,2.1091 0,0.47507 -0.0731,1.02323 -0.0731,1.11198 0,0.14617 0.0522,0.30801 0.30801,0.30801 0.27147,0 0.29235,-0.16184 0.3289,-0.46985 l 0.32367,-3.16887 c 0.0574,-0.54816 -0.0731,-0.54816 -0.52727,-0.54816 l -10.00779,0 c -0.36543,0 -0.5847,0 -0.5847,0.40199 0,0.2558 0.19838,0.2558 0.60037,0.2558 0.29235,0 0.36543,0 0.69433,0.0366 0.36022,0.0365 0.39676,0.0731 0.39676,0.2558 0,0.1253 -0.0522,0.30802 -0.0731,0.39676 l -2.38579,9.52227 c -0.17749,0.71 -0.19838,0.84051 -1.61836,0.84051 -0.3289,0 -0.54294,0 -0.54294,0.39676 0,0.25581 0.21404,0.25581 0.54294,0.25581 l 10.28447,0 c 0.45418,0 0.47506,0 0.62124,-0.32889 z"
         id="path7992" />
      <path
         style="font-style:normal;font-variant:normal;font-weight:normal;font-stretch:normal;letter-spacing:normal;word-spacing:normal;text-anchor:start;fill:#000000;fill-opacity:1;fill-rule:evenodd;stroke:#000000;stroke-width:0;stroke-linecap:butt;stroke-linejoin:miter;stroke-miterlimit:10.43299961;stroke-dasharray:none;stroke-dashoffset:0;stroke-opacity:1"
         inkscape:connector-curvature="0"
         d="m 501.80453,576.77981 0,-0.0157 0,-0.0157 -0.005,-0.005 0,-0.0105 0,-0.005 -0.005,-0.0104 0,-0.0104 -0.005,-0.005 -0.005,-0.0104 -0.005,-0.0104 -0.005,-0.0157 -0.005,-0.0104 -0.0104,-0.0104 -0.0104,-0.0157 -0.0104,-0.0157 -0.0104,-0.0157 -0.0157,-0.0157 -0.0157,-0.0209 -0.005,-0.0104 -0.0104,-0.0104 -0.0104,-0.0104 -0.0104,-0.0104 -0.0104,-0.0104 -0.0104,-0.0157 -0.0104,-0.0104 -0.0104,-0.0104 -0.0104,-0.0157 -0.0157,-0.0104 -0.0104,-0.0157 -0.0157,-0.0157 -0.0104,-0.0157 -0.0157,-0.0157 -0.0157,-0.0157 -0.0157,-0.0157 -0.0157,-0.0157 -0.0157,-0.0157 -0.0209,-0.0209 -0.0157,-0.0157 -0.0209,-0.0209 -0.0157,-0.0157 -0.0209,-0.0209 -0.0209,-0.0209 c -3.2524,-3.2785 -4.08247,-8.19103 -4.08247,-12.16909 0,-4.52621 0.99191,-9.05242 4.18688,-12.30482 0.33934,-0.30801 0.33934,-0.36021 0.33934,-0.43852 0,-0.18272 -0.10442,-0.26103 -0.26103,-0.26103 -0.26103,0 -2.59983,1.76977 -4.13467,5.07437 -1.32602,2.85564 -1.63925,5.7426 -1.63925,7.93 0,2.02557 0.28713,5.17356 1.71756,8.11273 1.56094,3.19497 3.79533,4.88643 4.05636,4.88643 0.15661,0 0.26103,-0.0783 0.26103,-0.25581 z"
         id="path7994" />
      <path
         style="font-style:normal;font-variant:normal;font-weight:normal;font-stretch:normal;letter-spacing:normal;word-spacing:normal;text-anchor:start;fill:#000000;fill-opacity:1;fill-rule:evenodd;stroke:#000000;stroke-width:0;stroke-linecap:butt;stroke-linejoin:miter;stroke-miterlimit:10.43299961;stroke-dasharray:none;stroke-dashoffset:0;stroke-opacity:1"
         inkscape:connector-curvature="0"
         d="m 509.54137,562.31891 -0.0783,-0.67868 0,-7.01641 c 0,-0.86138 0.0522,-1.0441 1.27381,-1.0441 l 2.31271,0 c 4.13467,0 4.13467,2.75644 4.13467,4.03026 0,1.22682 0,4.03025 -4.13467,4.03025 l -3.58652,0 0.0783,0.67868 4.3957,0 c 3.11666,0 5.92531,-2.1091 5.92531,-4.70893 0,-2.54763 -2.57372,-4.83423 -6.13413,-4.83423 l -9.18294,0 0,0.80397 0.62647,0 c 1.99946,0 2.05689,0.28713 2.05689,1.2216 l 0,13.70393 c 0,0.9397 -0.0574,1.22683 -2.05689,1.22683 l -0.62647,0 0,0.80396 7.6742,0 0,-0.80396 -0.62647,0 c -1.99946,0 -2.05167,-0.28713 -2.05167,-1.22683 z"
         id="path7996" />
      <path
         style="font-style:normal;font-variant:normal;font-weight:normal;font-stretch:normal;letter-spacing:normal;word-spacing:normal;text-anchor:start;fill:#000000;fill-opacity:1;fill-rule:evenodd;stroke:#000000;stroke-width:0;stroke-linecap:butt;stroke-linejoin:miter;stroke-miterlimit:10.43299961;stroke-dasharray:none;stroke-dashoffset:0;stroke-opacity:1"
         inkscape:connector-curvature="0"
         d="m 529.00356,568.55745 0.0104,0.0992 0.0157,0.0992 0.0157,0.0992 0.0209,0.094 0.0261,0.0992 0.0313,0.094 0.0313,0.094 0.0365,0.094 0.0365,0.094 0.0418,0.094 0.047,0.0888 0.0522,0.0835 0.0522,0.0888 0.0522,0.0783 0.0627,0.0835 0.0626,0.0731 0.0626,0.0783 0.0679,0.0679 0.0731,0.0679 0.0783,0.0626 0.0783,0.0627 0.0783,0.0522 0.0888,0.0522 0.0888,0.047 0.0887,0.0418 0.094,0.0366 0.0992,0.0365 0.0992,0.0261 0.10441,0.0209 0.10963,0.0157 0.10963,0.005 0.10964,0.005 c 0.54815,0 2.1352,-0.36544 2.1352,-2.46932 l 0,-1.45653 -0.65257,0 0,1.45653 c 0,1.50874 -0.64735,1.66013 -0.93448,1.66013 -0.85617,0 -0.96058,-1.1694 -0.96058,-1.29469 l 0,-5.20488 c 0,-1.0911 0,-2.10388 -0.93969,-3.06968 -1.01279,-1.01279 -2.31271,-1.43043 -3.56042,-1.43043 -2.1352,0 -3.93106,1.22161 -3.93106,2.93916 0,0.78309 0.52205,1.22161 1.20072,1.22161 0.72566,0 1.19551,-0.51683 1.19551,-1.1955 0,-0.30802 -0.13052,-1.16941 -1.32602,-1.19551 0.70477,-0.90837 1.97336,-1.1955 2.80865,-1.1955 1.27381,0 2.75645,1.01278 2.75645,3.3307 l 0,0.96058 0,0.54294 0,2.60505 c 0,2.46932 -1.87418,3.35159 -3.04358,3.35159 -1.27381,0 -2.3388,-0.90837 -2.3388,-2.20829 0,-1.43043 1.09109,-3.59173 5.38238,-3.74835 l 0,0 0,-0.54294 c -1.32602,0.0783 -3.14799,0.15662 -4.78724,0.93448 -1.94726,0.88227 -2.59983,2.23439 -2.59983,3.38291 0,2.10388 2.52674,2.75645 4.16077,2.75645 1.71756,0 2.91306,-1.04411 3.40902,-2.26572 z"
         id="path7998" />
      <path
         style="font-style:normal;font-variant:normal;font-weight:normal;font-stretch:normal;letter-spacing:normal;word-spacing:normal;text-anchor:start;fill:#000000;fill-opacity:1;fill-rule:evenodd;stroke:#000000;stroke-width:0;stroke-linecap:butt;stroke-linejoin:miter;stroke-miterlimit:10.43299961;stroke-dasharray:none;stroke-dashoffset:0;stroke-opacity:1"
         inkscape:connector-curvature="0"
         d="m 537.73752,561.90126 0,-2.86086 -3.61261,0.28713 0,0.80397 c 1.81675,0 2.02557,0.18272 2.02557,1.45653 l 0,6.96942 c 0,1.17463 -0.28713,1.17463 -2.02557,1.17463 l 0,0.80396 6.26465,0 0,-0.80396 -0.54816,0 c -1.92116,0 -1.97336,-0.28713 -1.97336,-1.22683 l 0,-3.99894 c 0,-2.57895 1.09109,-4.89165 3.06968,-4.89165 0.1775,0 0.23492,0 0.28191,0.0261 -0.0783,0.0261 -0.59515,0.33933 -0.59515,1.01278 0,0.72566 0.54816,1.1172 1.1172,1.1172 0.46985,0 1.1172,-0.30801 1.1172,-1.1433 0,-0.83007 -0.80397,-1.58705 -1.92116,-1.58705 -1.90028,0 -2.83476,1.74367 -3.2002,2.86086 z"
         id="path8000" />
      <path
         style="font-style:normal;font-variant:normal;font-weight:normal;font-stretch:normal;letter-spacing:normal;word-spacing:normal;text-anchor:start;fill:#000000;fill-opacity:1;fill-rule:evenodd;stroke:#000000;stroke-width:0;stroke-linecap:butt;stroke-linejoin:miter;stroke-miterlimit:10.43299961;stroke-dasharray:none;stroke-dashoffset:0;stroke-opacity:1"
         inkscape:connector-curvature="0"
         d="m 548.43964,559.0404 -3.64394,0.28713 0,0.80397 c 1.69145,0 1.92638,0.16183 1.92638,1.43565 l 0,6.9903 c 0,1.17463 -0.28713,1.17463 -2.02557,1.17463 l 0,0.80396 5.55988,0 0,-0.80396 c -1.71234,0 -1.81675,-0.13052 -1.81675,-1.1433 z"
         id="path8002" />
      <path
         style="font-style:normal;font-variant:normal;font-weight:normal;font-stretch:normal;letter-spacing:normal;word-spacing:normal;text-anchor:start;fill:#000000;fill-opacity:1;fill-rule:evenodd;stroke:#000000;stroke-width:0;stroke-linecap:butt;stroke-linejoin:miter;stroke-miterlimit:10.43299961;stroke-dasharray:none;stroke-dashoffset:0;stroke-opacity:1"
         inkscape:connector-curvature="0"
         d="m 548.54405,554.51941 -0.005,-0.0783 -0.005,-0.0783 -0.0104,-0.0731 -0.0105,-0.0679 -0.0157,-0.0731 -0.0209,-0.0679 -0.0209,-0.0679 -0.0261,-0.0626 -0.0313,-0.0626 -0.0313,-0.0574 -0.0313,-0.0574 -0.0366,-0.0574 -0.0418,-0.0522 -0.0418,-0.0522 -0.0418,-0.047 -0.047,-0.047 -0.047,-0.047 -0.0522,-0.0365 -0.0522,-0.0418 -0.0574,-0.0366 -0.0522,-0.0313 -0.0574,-0.0313 -0.0626,-0.0313 -0.0574,-0.0261 -0.0626,-0.0209 -0.0626,-0.0209 -0.0679,-0.0157 -0.0627,-0.0157 -0.0679,-0.0104 -0.0679,-0.005 -0.0626,-0.005 -0.0679,0 c -0.80918,0 -1.38344,0.69955 -1.38344,1.37822 0,0.69956 0.57426,1.37823 1.38344,1.37823 0.72566,0 1.37823,-0.54816 1.37823,-1.37823 z"
         id="path8004" />
      <path
         style="font-style:normal;font-variant:normal;font-weight:normal;font-stretch:normal;letter-spacing:normal;word-spacing:normal;text-anchor:start;fill:#000000;fill-opacity:1;fill-rule:evenodd;stroke:#000000;stroke-width:0;stroke-linecap:butt;stroke-linejoin:miter;stroke-miterlimit:10.43299961;stroke-dasharray:none;stroke-dashoffset:0;stroke-opacity:1"
         inkscape:connector-curvature="0"
         d="m 555.12193,560.1315 3.71703,0 0,-0.80397 -3.71703,0 0,-4.78723 -0.65257,0 c -0.0261,2.1352 -0.80396,4.91775 -3.35158,5.02216 l 0,0.56904 2.20829,0 0,7.17824 c 0,3.2002 2.41711,3.51343 3.35158,3.51343 1.8533,0 2.57895,-1.84807 2.57895,-3.51343 l 0,-1.48263 -0.65257,0 0,1.43043 c 0,1.92638 -0.77786,2.91306 -1.73844,2.91306 -1.74366,0 -1.74366,-2.3649 -1.74366,-2.80865 z"
         id="path8006" />
      <path
         style="font-style:normal;font-variant:normal;font-weight:normal;font-stretch:normal;letter-spacing:normal;word-spacing:normal;text-anchor:start;fill:#000000;fill-opacity:1;fill-rule:evenodd;stroke:#000000;stroke-width:0;stroke-linecap:butt;stroke-linejoin:miter;stroke-miterlimit:10.43299961;stroke-dasharray:none;stroke-dashoffset:0;stroke-opacity:1"
         inkscape:connector-curvature="0"
         d="m 570.80966,561.79685 0.0313,-0.0731 0.0365,-0.0731 0.0313,-0.0731 0.0365,-0.0679 0.0365,-0.0679 0.0366,-0.0626 0.0365,-0.0626 0.0365,-0.0626 0.0783,-0.10963 0.0783,-0.10963 0.0835,-0.0992 0.0835,-0.0888 0.0835,-0.0835 0.0888,-0.0783 0.0887,-0.0679 0.0888,-0.0679 0.0888,-0.0574 0.0887,-0.0522 0.0888,-0.047 0.0888,-0.0418 0.0835,-0.0365 0.0888,-0.0313 0.0835,-0.0313 0.0835,-0.0209 0.0835,-0.0209 0.0783,-0.0209 0.0783,-0.0157 0.0731,-0.0104 0.0679,-0.0104 0.0679,-0.005 0.0679,-0.005 0.0574,-0.005 0.0574,0 0.0522,0 0.047,-0.005 0.0365,0 0,-0.80397 -4.21298,0 0,0.80397 c 0.80918,0.0261 1.22683,0.46985 1.22683,1.11719 0,0.26103 -0.0261,0.31846 -0.15662,0.62647 l -2.62593,6.40038 -2.88696,-6.99552 c -0.10442,-0.26103 -0.15662,-0.36544 -0.15662,-0.46985 0,-0.67867 0.96058,-0.67867 1.45653,-0.67867 l 0,-0.80397 -5.35628,0 0,0.80397 c 1.24771,0 1.73844,0 2.10388,0.91359 l 3.89975,9.49095 c -0.13052,0.33934 -0.49073,1.1955 -0.64735,1.53484 -0.57426,1.43043 -1.29991,3.2263 -2.96527,3.2263 -0.13051,0 -0.73087,0 -1.2216,-0.46985 0.80396,-0.10441 1.01278,-0.67345 1.01278,-1.0911 0,-0.67867 -0.49595,-1.09109 -1.09109,-1.09109 -0.52206,0 -1.0911,0.33411 -1.0911,1.1172 0,1.1694 1.0911,2.10387 2.39101,2.10387 1.63925,0 2.70424,-1.48263 3.33071,-2.96526 z"
         id="path8008" />
      <path
         style="font-style:normal;font-variant:normal;font-weight:normal;font-stretch:normal;letter-spacing:normal;word-spacing:normal;text-anchor:start;fill:#000000;fill-opacity:1;fill-rule:evenodd;stroke:#000000;stroke-width:0;stroke-linecap:butt;stroke-linejoin:miter;stroke-miterlimit:10.43299961;stroke-dasharray:none;stroke-dashoffset:0;stroke-opacity:1"
         inkscape:connector-curvature="0"
         d="m 581.63185,564.03646 -0.005,-0.19316 0,-0.2036 -0.005,-0.2036 -0.005,-0.21404 -0.0209,-0.43853 -0.0313,-0.4594 -0.047,-0.48029 -0.0522,-0.49074 -0.0731,-0.51161 -0.0835,-0.52205 -0.10441,-0.5325 -0.12008,-0.54293 -0.14095,-0.54816 -0.15662,-0.55338 -0.18272,-0.55338 -0.2036,-0.55859 -0.11485,-0.27669 -0.11485,-0.28191 -0.12529,-0.27669 -0.13052,-0.27669 c -1.56094,-3.19497 -3.79533,-4.88643 -4.05636,-4.88643 -0.15662,0 -0.26103,0.10441 -0.26103,0.26103 0,0.0783 0,0.13051 0.49073,0.60036 2.55285,2.56851 4.03548,6.7084 4.03548,12.14298 0,4.44791 -0.9658,9.0211 -4.18687,12.2996 -0.33934,0.31324 -0.33934,0.36022 -0.33934,0.44375 0,0.1514 0.10441,0.25581 0.26103,0.25581 0.26103,0 2.59983,-1.76455 4.13467,-5.06915 1.32602,-2.86086 1.63925,-5.74782 1.63925,-7.93001 z"
         id="path8010" />
    </g>
    <path
       style="fill:none;fill-rule:evenodd;stroke:#000000;stroke-width:1px;stroke-linecap:butt;stroke-linejoin:miter;stroke-opacity:1;marker-end:url(#Arrow1Lend)"
       d="m 327.72729,357.88474 c 0.62148,47.24296 -25.666,60.40125 -53.03286,72.19233"
       id="path4243"
       inkscape:connector-curvature="0"
       sodipodi:nodetypes="cc" />
    <path
       style="fill:none;fill-rule:evenodd;stroke:#000000;stroke-width:1px;stroke-linecap:butt;stroke-linejoin:miter;stroke-opacity:1"
       d="M 96.83483,449.05499 96.477686,682.62641"
       id="path4681"
       inkscape:connector-curvature="0"
       sodipodi:nodetypes="cc" />
    <path
       style="fill:none;fill-rule:evenodd;stroke:#000000;stroke-width:1px;stroke-linecap:butt;stroke-linejoin:miter;stroke-opacity:1"
       d="m 521.49794,449.76344 -0.35715,233.57141"
       id="path4681-3"
       inkscape:connector-curvature="0"
       sodipodi:nodetypes="cc" />
    <path
       sodipodi:nodetypes="cc"
       inkscape:connector-curvature="0"
       id="path4313-1-6"
       d="M 177.0571,413.47319 386.9697,734.99395"
       style="fill:none;fill-rule:evenodd;stroke:#000000;stroke-width:1.00150347px;stroke-linecap:butt;stroke-linejoin:miter;stroke-opacity:1" />
    <rect
       clip-path="url(#clipPath5229)"
       transform="matrix(-1.3165201,0.78094382,-0.85155635,-1.3106484,895.76078,1089.8777)"
       y="299.88693"
       x="65.335365"
       height="431.11307"
       width="228.24556"
       id="rect4323-5-9-6"
       style="color:#000000;clip-rule:nonzero;display:inline;overflow:visible;visibility:visible;opacity:1;isolation:auto;mix-blend-mode:normal;color-interpolation:sRGB;color-interpolation-filters:linearRGB;solid-color:#000000;solid-opacity:1;fill:url(#linearGradient4333-3-5-2);fill-opacity:1;fill-rule:nonzero;stroke:none;stroke-width:3;stroke-linecap:butt;stroke-linejoin:miter;stroke-miterlimit:4;stroke-dasharray:none;stroke-dashoffset:0;stroke-opacity:1;color-rendering:auto;image-rendering:auto;shape-rendering:auto;text-rendering:auto;enable-background:accumulate" />
    <g
       transform="translate(351.64843,377.86372)"
       id="g5168">
      <g
         style="font-style:normal;font-variant:normal;font-weight:normal;font-stretch:normal;letter-spacing:normal;word-spacing:normal;text-anchor:start;fill:none;fill-opacity:1;fill-rule:evenodd;stroke:#000000;stroke-linecap:butt;stroke-linejoin:miter;stroke-miterlimit:10.43299961;stroke-dasharray:none;stroke-dashoffset:0;stroke-opacity:1"
         word-spacing="normal"
         letter-spacing="normal"
         font-size-adjust="none"
         font-stretch="normal"
         font-weight="normal"
         font-variant="normal"
         font-style="normal"
         stroke-miterlimit="10.433"
         xml:space="preserve"
         transform="matrix(0.59463248,0,0,-0.59463248,-104.06068,435.46206)"
         id="g5170"><path
           style="fill:#000000;stroke-width:0"
           inkscape:connector-curvature="0"
           id="path5172"
           d="m 487.08,418.85 -1.24,0 c -0.55,-4.98 -1.25,-11.31 -10.41,-11.31 l -4.68,0 c -2.35,0 -2.45,0.35 -2.45,2 l 0,26.55 c 0,1.69 0,2.39 4.74,2.39 l 1.64,0 0,1.54 -15.94,0 0,-1.54 1.19,0 c 3.84,0 3.94,-0.55 3.94,-2.34 l 0,-26.25 c 0,-1.8 -0.1,-2.35 -3.94,-2.35 l -1.19,0 0,-1.54 26.95,0 z" /><path
           style="fill:#000000;stroke-width:0"
           inkscape:connector-curvature="0"
           id="path5174"
           d="m 519.14,418.7 -0.02,0.7 -0.05,0.68 -0.08,0.67 -0.12,0.67 -0.15,0.65 -0.17,0.64 -0.21,0.63 -0.24,0.62 -0.27,0.6 -0.29,0.59 -0.32,0.56 -0.34,0.56 -0.37,0.53 -0.4,0.52 -0.41,0.49 -0.44,0.48 -0.47,0.45 -0.48,0.43 -0.5,0.4 -0.52,0.39 -0.54,0.35 -0.56,0.33 -0.57,0.31 -0.59,0.27 -0.61,0.25 -0.61,0.21 -0.64,0.19 -0.64,0.15 -0.66,0.12 -0.67,0.09 -0.67,0.05 -0.69,0.02 0,-1.25 c 3.39,0 9.01,-2.48 9.01,-11.8 0,-9.81 -5.47,-12.65 -9.01,-12.65 l 0,0 c -3.54,0 -9.02,2.84 -9.02,12.65 0,9.36 5.68,11.8 9.02,11.8 l 0,1.25 c -7.42,0 -13.3,-6.18 -13.3,-13.6 0,-7.52 6.03,-13.4 13.3,-13.4 7.27,0 13.3,5.88 13.3,13.4 z" /><path
           style="fill:#000000;stroke-width:0"
           inkscape:connector-curvature="0"
           id="path5176"
           d="m 540.13,431.11 0,0.07 0,0.07 0,0.07 0,0.07 0,0.06 0,0.06 -0.01,0.06 0,0.06 0,0.05 -0.01,0.06 0,0.05 -0.01,0.04 0,0.05 -0.01,0.04 -0.01,0.04 -0.01,0.04 -0.02,0.04 -0.01,0.03 -0.02,0.03 -0.01,0.03 -0.02,0.03 -0.02,0.02 -0.03,0.03 -0.02,0.02 -0.03,0.01 -0.03,0.02 -0.03,0.01 -0.04,0.01 -0.03,0.01 -0.04,0.01 -0.05,0 -0.04,0 c -0.3,0 -0.35,-0.05 -1.1,-1.14 -0.25,-0.25 -0.75,-1 -0.94,-1.3 -1.89,1.84 -4.19,2.44 -6.23,2.44 -4.53,0 -7.82,-3.39 -7.82,-7.27 0,-2.79 1.59,-4.44 2.19,-5.03 1.5,-1.5 2.49,-1.7 7.07,-2.74 2.7,-0.65 3.19,-0.75 4.34,-1.8 0.25,-0.19 1.59,-1.54 1.59,-3.73 0,-2.49 -1.94,-5.18 -5.38,-5.18 -1.29,0 -3.98,0.2 -6.12,1.94 -2.25,1.74 -2.39,4.19 -2.45,5.53 -0.05,0.4 -0.44,0.45 -0.59,0.45 -0.65,0 -0.65,-0.35 -0.65,-1.25 l 0,-6.72 c 0,-0.8 0,-1.2 0.5,-1.2 0.3,0 0.35,0.05 1.09,1.15 0.25,0.25 0.75,1 0.95,1.29 1.45,-1.29 4.04,-2.44 7.27,-2.44 4.83,0 7.92,3.84 7.92,7.77 0,3.14 -1.94,5.13 -1.94,5.18 -1.84,1.9 -2.64,2.05 -6.87,3.04 -1.05,0.25 -2.79,0.65 -3.09,0.75 -2.49,1 -3.29,2.94 -3.29,4.43 0,2.3 1.99,4.74 5.33,4.74 6.33,0 7.22,-5.83 7.42,-7.42 0.1,-0.36 0.1,-0.65 0.65,-0.65 0.65,0 0.65,0.24 0.65,1.19 z" /><path
           style="fill:#000000;stroke-width:0"
           inkscape:connector-curvature="0"
           id="path5178"
           d="m 568.31,431.45 -22.17,0 0,-1.24 c 3.34,0 3.59,-0.3 3.59,-2.34 l 0,-18.28 c 0,-2.05 -0.25,-2.34 -3.59,-2.34 l 0,-1.25 22.77,0 1.44,9.66 -1.25,0 c -0.84,-6.02 -2.04,-8.41 -8.41,-8.41 l -5.38,0 c -1.75,0 -1.99,0.14 -1.99,2.14 l 0,9.21 3.48,0 c 3.69,0 4.29,-0.99 4.29,-4.33 l 1.24,0 0,9.91 -1.24,0 c 0,-3.34 -0.6,-4.33 -4.29,-4.33 l -3.48,0 0,8.22 c 0,1.99 0.24,2.14 1.99,2.14 l 5.08,0 c 5.78,0 7.07,-1.75 7.62,-7.17 l 1.24,0 z" /></g>    </g>
    <ellipse
       style="opacity:0.73600003;fill:#ffffff;fill-opacity:1;stroke:#000000;stroke-width:2;stroke-miterlimit:4;stroke-dasharray:none;stroke-opacity:1"
       id="path8755-6"
       cx="165.96614"
       cy="443.14154"
       rx="14.475944"
       ry="14.654515" />
    <rect
       style="opacity:0.73600003;fill:#ffffff;fill-opacity:1;stroke:#000000;stroke-width:1.71589792;stroke-miterlimit:4;stroke-dasharray:none;stroke-opacity:1"
       id="rect9036-2"
       width="25.284103"
       height="23.141245"
       x="262.18268"
       y="450.40414" />
    <path
       sodipodi:nodetypes="cc"
       style="fill:none;fill-rule:evenodd;stroke:#000000;stroke-width:1px;stroke-linecap:butt;stroke-linejoin:miter;stroke-opacity:1;marker-end:url(#Arrow2Mend-6-2-7)"
       d="m 287.33839,457.09582 17.79427,-23.0818"
       id="path8762-5-7-6"
       inkscape:connector-curvature="0" />
    <path
       sodipodi:nodetypes="cc"
       style="fill:none;fill-rule:evenodd;stroke:#000000;stroke-width:1px;stroke-linecap:butt;stroke-linejoin:miter;stroke-opacity:1;marker-end:url(#Arrow2Mend-6-2-1)"
       d="m 179.0394,436.51109 22.49303,-18.53293"
       id="path8762-5-7-93"
       inkscape:connector-curvature="0" />
    <path
       transform="translate(17.417187,327.58817)"
       inkscape:connector-curvature="0"
       id="path4334"
       d="m 75.325175,348.79289 c -11.026325,-8.27874 -25.05645,-21.67625 -32.877067,-31.39464 -14.107071,-17.53033 -23.889521,-37.12154 -27.867519,-55.81 -2.32534,-10.92434 -2.952638,-26.50621 -1.508716,-37.47604 3.618854,-27.49335 17.867351,-54.37407 41.174272,-77.67797 6.437919,-6.43709 16.699054,-15.38796 21.897516,-19.10139 l 2.341882,-1.67288 0,112.66339 c 0,61.96487 -0.05682,112.661 -0.126269,112.65808 -0.06945,-0.003 -1.434795,-0.98777 -3.034099,-2.18855 z"
       style="color:#000000;clip-rule:nonzero;display:inline;overflow:visible;visibility:visible;opacity:1;isolation:auto;mix-blend-mode:normal;color-interpolation:sRGB;color-interpolation-filters:linearRGB;solid-color:#000000;solid-opacity:1;fill:#c3edff;fill-opacity:1;fill-rule:nonzero;stroke:none;stroke-width:1;stroke-linecap:butt;stroke-linejoin:round;stroke-miterlimit:4;stroke-dasharray:none;stroke-dashoffset:0;stroke-opacity:1;color-rendering:auto;image-rendering:auto;shape-rendering:auto;text-rendering:auto;enable-background:accumulate" />
    <g
       id="g4451"
       transform="matrix(1,0,0,0.86077793,49.285714,187.27556)">
      <g
         word-spacing="normal"
         letter-spacing="normal"
         font-size-adjust="none"
         font-stretch="normal"
         font-weight="normal"
         font-variant="normal"
         font-style="normal"
         stroke-miterlimit="10.433"
         xml:space="preserve"
         transform="matrix(0.60663837,0,0,-0.60663837,-106.16171,436.74504)"
         id="content"
         style="font-style:normal;font-variant:normal;font-weight:normal;font-stretch:normal;letter-spacing:normal;word-spacing:normal;text-anchor:start;fill:none;fill-opacity:1;fill-rule:evenodd;stroke:#000000;stroke-linecap:butt;stroke-linejoin:miter;stroke-miterlimit:10.43299961;stroke-dasharray:none;stroke-dashoffset:0;stroke-opacity:1"><path
           id="path4454"
           d="m 481.7,440.02 0,0.01 0,0 0,0.01 0,0.01 0,0.01 0,0.01 0,0.02 0,0.02 -0.01,0.02 0,0.02 -0.01,0.02 0,0.02 -0.01,0.03 -0.01,0.02 -0.01,0.03 -0.01,0.02 -0.02,0.02 -0.01,0.03 -0.02,0.02 -0.02,0.03 -0.03,0.02 -0.01,0.01 -0.01,0.01 -0.01,0.01 -0.02,0.01 -0.01,0.01 -0.02,0.01 -0.01,0.01 -0.02,0.01 -0.02,0.01 -0.02,0.01 -0.01,0.01 -0.02,0 -0.03,0.01 -0.02,0.01 -0.02,0 -0.02,0.01 -0.02,0 -0.03,0.01 -0.02,0 -0.03,0 -0.03,0.01 -0.03,0 -0.03,0 -0.03,0 c -0.74,0 -5.47,-0.45 -6.32,-0.55 -0.4,-0.05 -0.7,-0.3 -0.7,-0.95 0,-0.59 0.45,-0.59 1.2,-0.59 2.39,0 2.49,-0.35 2.49,-0.85 l -0.15,-0.99 -2.99,-11.81 c -0.9,1.84 -2.34,3.19 -4.58,3.19 l 0.05,-1.1 c 3.24,0 3.93,-4.08 3.93,-4.38 0,-0.3 -0.1,-0.6 -0.15,-0.85 l -2.49,-9.76 c -0.25,-0.9 -0.25,-1 -0.99,-1.84 -2.19,-2.75 -4.24,-3.54 -5.63,-3.54 -2.49,0 -3.19,2.74 -3.19,4.68 0,2.49 1.59,8.62 2.74,10.91 1.54,2.94 3.78,4.78 5.78,4.78 l -0.05,1.1 c -5.83,0 -12.01,-7.32 -12.01,-14.6 0,-4.68 2.74,-7.97 6.63,-7.97 0.99,0 3.49,0.2 6.47,3.74 0.4,-2.09 2.14,-3.74 4.53,-3.74 1.75,0 2.9,1.15 3.69,2.74 0.85,1.79 1.5,4.83 1.5,4.93 0,0.5 -0.45,0.5 -0.6,0.5 -0.5,0 -0.55,-0.2 -0.7,-0.89 -0.85,-3.24 -1.74,-6.18 -3.78,-6.18 -1.35,0 -1.5,1.29 -1.5,2.29 0,1.2 0.1,1.54 0.3,2.39 z"
           inkscape:connector-curvature="0"
           style="fill:#000000;stroke-width:0" /><path
           id="path4456"
           d="m 503.48,423.14 0,-13.35 c 0,-2.25 -0.55,-2.25 -3.89,-2.25 l 0,-1.54 11.21,0 0,1.54 c -3.34,0 -3.88,0 -3.88,2.25 l 0,9.16 c 0,5.18 3.53,7.97 6.72,7.97 3.14,0 3.69,-2.69 3.69,-5.53 l 0,-11.6 c 0,-2.25 -0.55,-2.25 -3.89,-2.25 l 0,-1.54 11.21,0 0,1.54 c -3.34,0 -3.88,0 -3.88,2.25 l 0,9.16 c 0,5.18 3.53,7.97 6.72,7.97 3.14,0 3.69,-2.69 3.69,-5.53 l 0,-11.6 c 0,-2.25 -0.55,-2.25 -3.89,-2.25 l 0,-1.54 11.21,0 0,1.54 c -2.59,0 -3.84,0 -3.89,1.5 l 0,9.51 c 0,4.29 0,5.83 -1.54,7.63 -0.7,0.84 -2.34,1.84 -5.23,1.84 -4.19,0 -6.38,-2.99 -7.23,-4.88 -0.69,4.33 -4.38,4.88 -6.62,4.88 -3.63,0 -5.98,-2.14 -7.37,-5.23 l 0,5.23 -7.03,-0.55 0,-1.54 c 3.49,0 3.89,-0.35 3.89,-2.79 z"
           inkscape:connector-curvature="0"
           style="fill:#000000;stroke-width:0" /><path
           id="path4458"
           d="m 556.59,409.79 0.02,-0.19 0.03,-0.19 0.03,-0.19 0.04,-0.18 0.05,-0.19 0.06,-0.18 0.06,-0.18 0.07,-0.18 0.07,-0.18 0.08,-0.18 0.09,-0.17 0.1,-0.16 0.1,-0.17 0.1,-0.15 0.12,-0.16 0.12,-0.14 0.12,-0.15 0.13,-0.13 0.14,-0.13 0.15,-0.12 0.15,-0.12 0.15,-0.1 0.17,-0.1 0.17,-0.09 0.17,-0.08 0.18,-0.07 0.19,-0.07 0.19,-0.05 0.2,-0.04 0.21,-0.03 0.21,-0.01 0.21,-0.01 c 1.05,0 4.09,0.7 4.09,4.73 l 0,2.79 -1.25,0 0,-2.79 c 0,-2.89 -1.24,-3.18 -1.79,-3.18 -1.64,0 -1.84,2.24 -1.84,2.48 l 0,9.97 c 0,2.09 0,4.03 -1.8,5.88 -1.94,1.94 -4.43,2.74 -6.82,2.74 -4.09,0 -7.53,-2.34 -7.53,-5.63 0,-1.5 1,-2.34 2.3,-2.34 1.39,0 2.29,0.99 2.29,2.29 0,0.59 -0.25,2.24 -2.54,2.29 1.35,1.74 3.78,2.29 5.38,2.29 2.44,0 5.28,-1.94 5.28,-6.38 l 0,-1.84 0,-1.04 0,-4.99 c 0,-4.73 -3.59,-6.42 -5.83,-6.42 -2.44,0 -4.48,1.74 -4.48,4.23 0,2.74 2.09,6.88 10.31,7.18 l 0,0 0,1.04 c -2.54,-0.15 -6.03,-0.3 -9.17,-1.79 -3.73,-1.69 -4.98,-4.28 -4.98,-6.48 0,-4.03 4.84,-5.28 7.97,-5.28 3.29,0 5.58,2 6.53,4.34 z"
           inkscape:connector-curvature="0"
           style="fill:#000000;stroke-width:0" /><path
           id="path4460"
           d="m 579.3,417.71 0.28,0.36 0.29,0.37 0.3,0.38 0.3,0.38 0.62,0.78 0.3,0.38 0.31,0.38 0.3,0.38 0.3,0.36 0.29,0.36 0.28,0.34 0.14,0.16 0.13,0.16 0.13,0.15 0.13,0.15 0.13,0.14 0.12,0.14 0.11,0.13 0.12,0.13 c 1.54,1.79 3.59,2.54 5.93,2.59 l 0,1.54 -8.87,0 0,-1.54 c 1.04,-0.11 1.45,-0.75 1.45,-1.55 0,-0.79 -0.5,-1.44 -0.75,-1.74 l -3.09,-3.89 -3.89,5.04 c -0.44,0.49 -0.44,0.59 -0.44,0.89 0,0.75 0.74,1.2 1.74,1.25 l 0,1.54 -10.11,0 0,-1.54 c 3.48,0 3.53,-0.05 5.88,-3.04 l 4.93,-6.43 -4.69,-5.93 c -2.39,-2.89 -5.32,-2.99 -6.37,-2.99 l 0,-1.54 8.87,0 0,1.54 c -1.1,0.16 -1.45,0.8 -1.45,1.55 0,1.09 1.45,2.74 4.48,6.32 l 3.79,-4.98 c 0.4,-0.54 1.05,-1.34 1.05,-1.64 0,-0.45 -0.45,-1.2 -1.8,-1.25 l 0,-1.54 10.16,0 0,1.54 c -2.68,0 -3.58,0.1 -4.73,1.55 z"
           inkscape:connector-curvature="0"
           style="fill:#000000;stroke-width:0" /><path
           id="path4462"
           d="m 599.82,428.02 -6.98,-0.55 0,-1.54 c 3.24,0 3.69,-0.31 3.69,-2.75 l 0,-13.39 c 0,-2.25 -0.55,-2.25 -3.88,-2.25 l 0,-1.54 10.65,0 0,1.54 c -3.28,0 -3.48,0.25 -3.48,2.19 z"
           inkscape:connector-curvature="0"
           style="fill:#000000;stroke-width:0" /><path
           id="path4464"
           d="m 600.02,436.68 -0.01,0.15 -0.01,0.15 -0.02,0.14 -0.02,0.13 -0.03,0.14 -0.04,0.13 -0.04,0.13 -0.05,0.12 -0.06,0.12 -0.06,0.11 -0.06,0.11 -0.07,0.11 -0.08,0.1 -0.08,0.1 -0.08,0.09 -0.09,0.09 -0.09,0.09 -0.1,0.07 -0.1,0.08 -0.11,0.07 -0.1,0.06 -0.11,0.06 -0.12,0.06 -0.11,0.05 -0.12,0.04 -0.12,0.04 -0.13,0.03 -0.12,0.03 -0.13,0.02 -0.13,0.01 -0.12,0.01 -0.13,0 c -1.55,0 -2.65,-1.34 -2.65,-2.64 0,-1.34 1.1,-2.64 2.65,-2.64 1.39,0 2.64,1.05 2.64,2.64 z"
           inkscape:connector-curvature="0"
           style="fill:#000000;stroke-width:0" /><path
           id="path4466"
           d="m 610.48,423.14 0,-13.35 c 0,-2.25 -0.55,-2.25 -3.89,-2.25 l 0,-1.54 11.21,0 0,1.54 c -3.33,0 -3.88,0 -3.88,2.25 l 0,9.16 c 0,5.18 3.53,7.97 6.72,7.97 3.14,0 3.69,-2.69 3.69,-5.53 l 0,-11.6 c 0,-2.25 -0.55,-2.25 -3.89,-2.25 l 0,-1.54 11.21,0 0,1.54 c -3.34,0 -3.88,0 -3.88,2.25 l 0,9.16 c 0,5.18 3.53,7.97 6.72,7.97 3.14,0 3.69,-2.69 3.69,-5.53 l 0,-11.6 c 0,-2.25 -0.55,-2.25 -3.89,-2.25 l 0,-1.54 11.21,0 0,1.54 c -2.59,0 -3.84,0 -3.89,1.5 l 0,9.51 c 0,4.29 0,5.83 -1.54,7.63 -0.7,0.84 -2.34,1.84 -5.23,1.84 -4.19,0 -6.38,-2.99 -7.23,-4.88 -0.69,4.33 -4.38,4.88 -6.62,4.88 -3.64,0 -5.98,-2.14 -7.37,-5.23 l 0,5.23 -7.03,-0.55 0,-1.54 c 3.49,0 3.89,-0.35 3.89,-2.79 z"
           inkscape:connector-curvature="0"
           style="fill:#000000;stroke-width:0" /><path
           id="path4468"
           d="m 662.59,409.79 0.02,-0.19 0.03,-0.19 0.03,-0.19 0.04,-0.18 0.05,-0.19 0.06,-0.18 0.06,-0.18 0.07,-0.18 0.07,-0.18 0.08,-0.18 0.09,-0.17 0.1,-0.16 0.1,-0.17 0.1,-0.15 0.12,-0.16 0.12,-0.14 0.12,-0.15 0.13,-0.13 0.14,-0.13 0.15,-0.12 0.15,-0.12 0.15,-0.1 0.17,-0.1 0.17,-0.09 0.17,-0.08 0.18,-0.07 0.19,-0.07 0.19,-0.05 0.2,-0.04 0.21,-0.03 0.21,-0.01 0.21,-0.01 c 1.05,0 4.09,0.7 4.09,4.73 l 0,2.79 -1.25,0 0,-2.79 c 0,-2.89 -1.24,-3.18 -1.79,-3.18 -1.64,0 -1.84,2.24 -1.84,2.48 l 0,9.97 c 0,2.09 0,4.03 -1.8,5.88 -1.94,1.94 -4.43,2.74 -6.82,2.74 -4.09,0 -7.53,-2.34 -7.53,-5.63 0,-1.5 1,-2.34 2.3,-2.34 1.39,0 2.29,0.99 2.29,2.29 0,0.59 -0.25,2.24 -2.54,2.29 1.35,1.74 3.78,2.29 5.38,2.29 2.44,0 5.28,-1.94 5.28,-6.38 l 0,-1.84 0,-1.04 0,-4.99 c 0,-4.73 -3.59,-6.42 -5.83,-6.42 -2.44,0 -4.48,1.74 -4.48,4.23 0,2.74 2.09,6.88 10.31,7.18 l 0,0 0,1.04 c -2.54,-0.15 -6.03,-0.3 -9.17,-1.79 -3.73,-1.69 -4.98,-4.28 -4.98,-6.48 0,-4.03 4.84,-5.28 7.97,-5.28 3.29,0 5.58,2 6.53,4.34 z"
           inkscape:connector-curvature="0"
           style="fill:#000000;stroke-width:0" /><path
           id="path4470"
           d="m 679.82,440.57 -7.17,-0.55 0,-1.54 c 3.48,0 3.88,-0.35 3.88,-2.79 l 0,-25.9 c 0,-2.25 -0.55,-2.25 -3.88,-2.25 l 0,-1.54 11.05,0 0,1.54 c -3.34,0 -3.88,0 -3.88,2.25 z"
           inkscape:connector-curvature="0"
           style="fill:#000000;stroke-width:0" /><path
           id="path4472"
           d="m 725.46,416.66 -0.01,0.59 -0.05,0.59 -0.07,0.58 -0.09,0.57 -0.13,0.56 -0.15,0.55 -0.17,0.54 -0.2,0.53 -0.22,0.52 -0.25,0.5 -0.26,0.49 -0.29,0.47 -0.31,0.46 -0.33,0.44 -0.35,0.42 -0.36,0.41 -0.39,0.39 -0.4,0.36 -0.41,0.35 -0.44,0.33 -0.44,0.3 -0.46,0.29 -0.48,0.26 -0.48,0.23 -0.5,0.21 -0.51,0.19 -0.52,0.16 -0.53,0.13 -0.54,0.1 -0.55,0.08 -0.56,0.04 -0.56,0.02 -0.05,-1.1 c 2.19,0 4.34,-1.1 5.63,-3.24 1.3,-2.14 1.3,-5.03 1.3,-6.92 0,-1.79 0,-4.49 -1.1,-6.68 -1.09,-2.24 -3.28,-3.68 -5.78,-3.68 l 0,0 c -2.14,0 -4.33,1.04 -5.68,3.34 -1.24,2.19 -1.24,5.23 -1.24,7.02 0,1.94 0,4.63 1.2,6.82 1.34,2.3 3.68,3.34 5.67,3.34 l 0.05,1.1 c -6.22,0 -11.05,-5.43 -11.05,-11.66 0,-6.43 5.17,-11.21 11,-11.21 6.03,0 11.06,4.88 11.06,11.21 z"
           inkscape:connector-curvature="0"
           style="fill:#000000;stroke-width:0" /><path
           id="path4474"
           d="m 746.93,408.74 0,-3.29 7.32,0.55 0,1.54 c -3.48,0 -3.88,0.35 -3.88,2.79 l 0,30.24 -7.18,-0.55 0,-1.54 c 3.49,0 3.89,-0.35 3.89,-2.79 l 0,-10.76 c -1.45,1.79 -3.59,3.09 -6.28,3.09 l 0.2,-1.1 c 1.75,0 3.84,-0.74 5.38,-2.99 0.55,-0.84 0.55,-0.95 0.55,-1.84 l 0,0 0,-10.21 c 0,-0.9 0,-1 -0.55,-1.84 -1.49,-2.4 -3.73,-3.49 -5.88,-3.49 -2.24,0 -4.03,1.29 -5.23,3.18 -1.29,2.05 -1.44,4.89 -1.44,6.93 0,1.84 0.1,4.83 1.54,7.07 1.05,1.55 2.94,3.19 5.63,3.19 l -0.2,1.1 c -5.87,0 -11.1,-4.88 -11.1,-11.31 0,-6.33 4.87,-11.26 10.55,-11.26 3.19,0 5.43,1.69 6.68,3.29 z"
           inkscape:connector-curvature="0"
           style="fill:#000000;stroke-width:0" /><path
           id="path4476"
           d="m 774.93,408.74 0,-3.29 7.32,0.55 0,1.54 c -3.48,0 -3.88,0.35 -3.88,2.79 l 0,30.24 -7.18,-0.55 0,-1.54 c 3.49,0 3.89,-0.35 3.89,-2.79 l 0,-10.76 c -1.45,1.79 -3.59,3.09 -6.28,3.09 l 0.2,-1.1 c 1.75,0 3.84,-0.74 5.38,-2.99 0.55,-0.84 0.55,-0.95 0.55,-1.84 l 0,0 0,-10.21 c 0,-0.9 0,-1 -0.55,-1.84 -1.49,-2.4 -3.73,-3.49 -5.88,-3.49 -2.24,0 -4.03,1.29 -5.23,3.18 -1.29,2.05 -1.44,4.89 -1.44,6.93 0,1.84 0.1,4.83 1.54,7.07 1.05,1.55 2.94,3.19 5.63,3.19 l -0.2,1.1 c -5.87,0 -11.1,-4.88 -11.1,-11.31 0,-6.33 4.87,-11.26 10.55,-11.26 3.19,0 5.43,1.69 6.68,3.29 z"
           inkscape:connector-curvature="0"
           style="fill:#000000;stroke-width:0" /></g>    </g>
    <rect
       clip-path="url(#clipPath5279)"
       transform="matrix(-2.2214726,1.1284779,-1.3476124,-2.0565594,1055.3673,1459.265)"
       y="299.88693"
       x="65.335365"
       height="431.11307"
       width="228.24556"
       id="rect4323-5-9-6-6"
       style="color:#000000;clip-rule:nonzero;display:inline;overflow:visible;visibility:visible;opacity:1;isolation:auto;mix-blend-mode:normal;color-interpolation:sRGB;color-interpolation-filters:linearRGB;solid-color:#000000;solid-opacity:1;fill:url(#linearGradient5262);fill-opacity:1;fill-rule:nonzero;stroke:none;stroke-width:3;stroke-linecap:butt;stroke-linejoin:miter;stroke-miterlimit:4;stroke-dasharray:none;stroke-dashoffset:0;stroke-opacity:1;color-rendering:auto;image-rendering:auto;shape-rendering:auto;text-rendering:auto;enable-background:accumulate" />
    <rect
       clip-path="url(#clipPath5328)"
       transform="matrix(-2.2214726,1.1284779,-1.3476124,-2.0565594,969.65373,1482.8364)"
       y="299.88693"
       x="65.335365"
       height="431.11307"
       width="228.24556"
       id="rect4323-5-9-6-6-9"
       style="color:#000000;clip-rule:nonzero;display:inline;overflow:visible;visibility:visible;opacity:1;isolation:auto;mix-blend-mode:normal;color-interpolation:sRGB;color-interpolation-filters:linearRGB;solid-color:#000000;solid-opacity:1;fill:url(#linearGradient5262-9);fill-opacity:1;fill-rule:nonzero;stroke:none;stroke-width:3;stroke-linecap:butt;stroke-linejoin:miter;stroke-miterlimit:4;stroke-dasharray:none;stroke-dashoffset:0;stroke-opacity:1;color-rendering:auto;image-rendering:auto;shape-rendering:auto;text-rendering:auto;enable-background:accumulate" />
    <ellipse
       style="opacity:0.73600003;fill:none;fill-opacity:1;stroke:#000000;stroke-width:4.79799986;stroke-miterlimit:4;stroke-dasharray:none;stroke-opacity:1"
       id="path5881-7"
       cx="-308.43951"
       cy="566.68701"
       rx="280.82242"
       ry="176.7767"
       transform="scale(-1,1)" />
    <g
       transform="translate(-134.89487,377.74479)"
       id="g5404">
      <g
         style="font-style:normal;font-variant:normal;font-weight:normal;font-stretch:normal;letter-spacing:normal;word-spacing:normal;text-anchor:start;fill:none;fill-opacity:1;fill-rule:evenodd;stroke:#000000;stroke-linecap:butt;stroke-linejoin:miter;stroke-miterlimit:10.43299961;stroke-dasharray:none;stroke-dashoffset:0;stroke-opacity:1"
         id="g5406"
         transform="matrix(0.59463248,0,0,-0.59463248,-104.06068,435.46206)"
         xml:space="preserve"
         stroke-miterlimit="10.433"
         font-style="normal"
         font-variant="normal"
         font-weight="normal"
         font-stretch="normal"
         font-size-adjust="none"
         letter-spacing="normal"
         word-spacing="normal"><path
           style="fill:#000000;stroke-width:0"
           inkscape:connector-curvature="0"
           d="m 494.95,411.53 -8.51,24.71 c -0.05,0.2 -0.2,0.55 -0.2,0.74 0,1.5 2.83,1.5 4.18,1.5 l 0,1.54 -13.15,0 0,-1.54 c 2.94,0 3.59,-0.15 4.14,-1.05 0.29,-0.5 1.39,-3.79 1.39,-3.98 0,-0.1 0,-0.15 -0.15,-0.6 l -7.32,-21.32 -8.42,24.56 c -0.25,0.64 -0.25,0.75 -0.25,0.89 0,1.5 2.79,1.5 4.18,1.5 l 0,1.54 -13.2,0 0,-1.54 c 2.99,0 3.94,0 4.59,-1.94 l 10.51,-30.69 c 0.2,-0.55 0.3,-0.95 0.99,-0.95 0.65,0 0.8,0.45 1,1 l 8.77,25.65 8.81,-25.65 c 0.2,-0.55 0.35,-1 1,-1 0.65,0 0.75,0.3 0.99,1 l 10.02,29.09 c 0.45,1.3 1.29,3.44 5.08,3.49 l 0,1.54 -10.46,0 0,-1.54 c 2.69,-0.05 4.23,-1.2 4.23,-2.64 0,-0.25 0,-0.35 -0.24,-1 z"
           id="path5408" /><path
           style="fill:#000000;stroke-width:0"
           inkscape:connector-curvature="0"
           d="m 520.32,427.97 0,0.19 0,0.19 0.01,0.17 0,0.17 0.02,0.15 0.01,0.14 0.02,0.14 0.03,0.13 0.03,0.11 0.04,0.11 0.05,0.1 0.05,0.1 0.06,0.08 0.07,0.08 0.08,0.07 0.09,0.07 0.1,0.06 0.11,0.05 0.12,0.05 0.07,0.02 0.07,0.02 0.07,0.02 0.08,0.01 0.07,0.02 0.09,0.02 0.08,0.01 0.09,0.01 0.09,0.02 0.1,0.01 0.1,0.01 0.1,0.01 0.11,0 0.11,0.01 0.11,0.01 0.12,0 0.13,0.01 0.12,0 0.13,0.01 0.14,0 0.14,0 0.15,0.01 0.15,0 0.15,0 0.16,0 0.16,0 0,1.25 -11.16,0 0,-1.25 c 3.54,0 3.79,-0.25 3.79,-2.39 l 0,-18.33 c 0,-2.14 -0.25,-2.39 -3.79,-2.39 l 0,-1.25 11.16,0 0,1.25 c -3.54,0 -3.78,0.25 -3.78,2.39 z"
           id="path5410" /><path
           style="fill:#000000;stroke-width:0"
           inkscape:connector-curvature="0"
           d="m 535.61,430.96 -0.04,0.06 -0.04,0.05 -0.04,0.05 -0.03,0.05 -0.04,0.05 -0.03,0.04 -0.03,0.04 -0.04,0.03 -0.03,0.03 -0.03,0.03 -0.03,0.03 -0.04,0.03 -0.03,0.02 -0.04,0.02 -0.03,0.02 -0.04,0.01 -0.04,0.02 -0.03,0.01 -0.05,0.01 -0.04,0.01 -0.05,0.01 -0.04,0.01 -0.06,0 -0.05,0 -0.06,0.01 -0.06,0 -0.06,0 -0.07,0 -0.07,0 -0.08,0 -0.08,0 -0.05,0.01 -0.04,0 -5.98,0 0,-1.25 c 1.2,0 2.59,0 3.59,-0.35 l 0,-18.98 c 0,-1.14 0,-3.78 -3.59,-3.78 l 0,-1.25 8.57,0 0,1.25 c -3.59,0 -3.59,2.64 -3.59,3.78 l 0,17.83 0.5,-0.59 15.64,-21.72 c 0.4,-0.55 0.55,-0.55 0.85,-0.55 0.7,0 0.7,0.35 0.7,1.3 l 0,19.27 c 0,1.15 0,3.79 3.59,3.79 l 0,1.25 -8.58,0 0,-1.25 c 3.59,0 3.59,-2.64 3.59,-3.79 l 0,-14.79 z"
           id="path5412" /></g>    </g>
    <path
       sodipodi:nodetypes="cc"
       style="fill:none;fill-rule:evenodd;stroke:#000000;stroke-width:1px;stroke-linecap:butt;stroke-linejoin:miter;stroke-opacity:1;marker-end:url(#Arrow2Mend-6-2-7-0)"
       d="m 272.33739,473.57711 0.21675,32.06993"
       id="path8762-5-7-6-2"
       inkscape:connector-curvature="0" />
    <g
       id="g4380"
       transform="translate(92.934034,471.74124)">
      <g
         id="g4382"
         transform="matrix(0.60982446,0,0,-0.60982446,-106.71928,435.46206)"
         xml:space="preserve"
         stroke-miterlimit="10.433"
         font-style="normal"
         font-variant="normal"
         font-weight="normal"
         font-stretch="normal"
         font-size-adjust="none"
         letter-spacing="normal"
         word-spacing="normal"
         style="font-style:normal;font-variant:normal;font-weight:normal;font-stretch:normal;letter-spacing:normal;word-spacing:normal;text-anchor:start;fill:none;fill-opacity:1;fill-rule:evenodd;stroke:#000000;stroke-linecap:butt;stroke-linejoin:miter;stroke-miterlimit:10.43299961;stroke-dasharray:none;stroke-dashoffset:0;stroke-opacity:1"><path
           d="m 480.16,426.47 -4.18,9.92 c -0.16,0.4 -0.25,0.59 -0.25,0.65 0,0.29 0.84,1.24 2.93,1.44 0.5,0.05 1,0.1 1,0.95 0,0.59 -0.6,0.59 -0.75,0.59 l -11.85,0 c -0.3,0 -0.9,0 -0.9,-0.99 0,-0.55 0.5,-0.55 1.15,-0.55 2.99,0 3.28,-0.5 3.73,-1.6 l 5.88,-13.9 -10.51,-11.3 -0.65,-0.55 c -2.44,-2.64 -4.78,-3.43 -7.32,-3.59 -0.65,-0.04 -1.1,-0.04 -1.1,-0.99 0,-0.05 0,-0.55 0.65,-0.55 l 10.26,0 c 0.3,0 0.9,0 0.9,1 0,0.5 -0.5,0.54 -0.6,0.54 -0.44,0.05 -1.99,0.16 -1.99,1.55 0,0.8 0.75,1.59 1.35,2.24 l 5.07,5.38 4.49,4.88 5.03,-11.9 c 0.2,-0.55 0.25,-0.6 0.25,-0.7 0,-0.4 -0.95,-1.25 -2.89,-1.45 -0.55,-0.04 -1,-0.09 -1,-0.94 0,-0.6 0.55,-0.6 0.75,-0.6 l 11.81,0 c 0.35,0 0.94,0 0.94,0.95 0,0.59 -0.49,0.59 -0.89,0.59 -3.34,0.05 -3.44,0.2 -4.29,2.19 -1.94,4.64 -5.28,12.41 -6.42,15.4 3.38,3.48 8.62,9.41 10.21,10.81 1.44,1.19 3.33,2.39 6.33,2.54 0.64,0.05 1.09,0.05 1.09,0.99 0,0.05 0,0.55 -0.65,0.55 l -10.21,0 c -0.3,0 -0.94,0 -0.94,-0.99 0,-0.35 0.25,-0.5 0.59,-0.55 0.45,-0.05 2,-0.15 2,-1.55 0,-0.69 -0.55,-1.34 -0.95,-1.79 z"
           id="path4384"
           inkscape:connector-curvature="0"
           style="fill:#000000;stroke-width:0" /><path
           d="m 508.68,421.18 0,0.04 0,0.04 0,0.04 0,0.04 0,0.04 0,0.04 0,0.03 0,0.04 -0.01,0.03 0,0.03 0,0.04 0,0.03 -0.01,0.02 0,0.03 0,0.03 -0.01,0.03 0,0.02 0,0.02 -0.02,0.05 -0.01,0.04 -0.01,0.04 -0.02,0.03 -0.02,0.03 -0.02,0.03 -0.03,0.03 -0.02,0.02 -0.03,0.02 -0.04,0.02 -0.03,0.01 -0.04,0.01 -0.05,0.02 -0.05,0 -0.02,0.01 -0.03,0 -0.03,0.01 -0.02,0 -0.03,0 -0.03,0 -0.04,0 -0.03,0.01 -0.03,0 -0.04,0 -0.03,0 -0.04,0 -0.04,0 -0.04,0 -0.04,0 -0.04,0 -0.05,0 -0.04,0 c -2.24,-2.19 -5.41,-2.23 -6.84,-2.23 l 0,-1.25 c 0.84,0 3.14,0 5.06,0.97 l 0,-17.78 c 0,-1.15 0,-1.61 -3.49,-1.61 l -1.33,0 0,-1.25 12.45,0 0,1.25 -1.32,0 c -3.49,0 -3.49,0.46 -3.49,1.61 z"
           id="path4386"
           inkscape:connector-curvature="0"
           style="fill:#000000;stroke-width:0" /></g>    </g>
    <g
       id="g4608"
       transform="translate(-3.0304576,471.74124)">
      <g
         word-spacing="normal"
         letter-spacing="normal"
         font-size-adjust="none"
         font-stretch="normal"
         font-weight="normal"
         font-variant="normal"
         font-style="normal"
         stroke-miterlimit="10.433"
         xml:space="preserve"
         transform="matrix(0.60982446,0,0,-0.60982446,-106.71928,435.46206)"
         id="g4610"
         style="font-style:normal;font-variant:normal;font-weight:normal;font-stretch:normal;letter-spacing:normal;word-spacing:normal;text-anchor:start;fill:none;fill-opacity:1;fill-rule:evenodd;stroke:#000000;stroke-linecap:butt;stroke-linejoin:miter;stroke-miterlimit:10.43299961;stroke-dasharray:none;stroke-dashoffset:0;stroke-opacity:1"><path
           id="path4612"
           d="m 480.16,426.47 -4.18,9.92 c -0.16,0.4 -0.25,0.59 -0.25,0.65 0,0.29 0.84,1.24 2.93,1.44 0.5,0.05 1,0.1 1,0.95 0,0.59 -0.6,0.59 -0.75,0.59 l -11.85,0 c -0.3,0 -0.9,0 -0.9,-0.99 0,-0.55 0.5,-0.55 1.15,-0.55 2.99,0 3.28,-0.5 3.73,-1.6 l 5.88,-13.9 -10.51,-11.3 -0.65,-0.55 c -2.44,-2.64 -4.78,-3.43 -7.32,-3.59 -0.65,-0.04 -1.1,-0.04 -1.1,-0.99 0,-0.05 0,-0.55 0.65,-0.55 l 10.26,0 c 0.3,0 0.9,0 0.9,1 0,0.5 -0.5,0.54 -0.6,0.54 -0.44,0.05 -1.99,0.16 -1.99,1.55 0,0.8 0.75,1.59 1.35,2.24 l 5.07,5.38 4.49,4.88 5.03,-11.9 c 0.2,-0.55 0.25,-0.6 0.25,-0.7 0,-0.4 -0.95,-1.25 -2.89,-1.45 -0.55,-0.04 -1,-0.09 -1,-0.94 0,-0.6 0.55,-0.6 0.75,-0.6 l 11.81,0 c 0.35,0 0.94,0 0.94,0.95 0,0.59 -0.49,0.59 -0.89,0.59 -3.34,0.05 -3.44,0.2 -4.29,2.19 -1.94,4.64 -5.28,12.41 -6.42,15.4 3.38,3.48 8.62,9.41 10.21,10.81 1.44,1.19 3.33,2.39 6.33,2.54 0.64,0.05 1.09,0.05 1.09,0.99 0,0.05 0,0.55 -0.65,0.55 l -10.21,0 c -0.3,0 -0.94,0 -0.94,-0.99 0,-0.35 0.25,-0.5 0.59,-0.55 0.45,-0.05 2,-0.15 2,-1.55 0,-0.69 -0.55,-1.34 -0.95,-1.79 z"
           inkscape:connector-curvature="0"
           style="fill:#000000;stroke-width:0" /><path
           id="path4614"
           d="m 514.99,410.12 0,0.71 -0.02,0.68 -0.03,0.66 -0.04,0.64 -0.06,0.62 -0.08,0.59 -0.09,0.58 -0.11,0.56 -0.12,0.55 -0.15,0.53 -0.17,0.51 -0.19,0.5 -0.21,0.49 -0.24,0.48 -0.26,0.47 -0.14,0.24 -0.15,0.23 c -1.07,1.6 -3.24,2.99 -6.03,2.99 l 0,-0.97 c 1.89,0 3.7,-1.15 4.33,-3.18 0.56,-1.88 0.59,-4.39 0.59,-7.42 0,-2.58 0,-5.17 -0.45,-7.36 -0.7,-3.17 -3.07,-3.94 -4.47,-3.94 l 0,0 c -1.6,0 -3.73,0.94 -4.43,3.8 -0.49,2.06 -0.49,4.92 -0.49,7.5 0,2.54 0,5.19 0.53,7.11 0.73,2.76 2.96,3.49 4.39,3.49 l 0,0.97 c -8.09,0 -8.09,-9.52 -8.09,-12.03 0,-2.51 0,-11.82 8.09,-11.82 8.09,0 8.09,9.31 8.09,11.82 z"
           inkscape:connector-curvature="0"
           style="fill:#000000;stroke-width:0" /></g>    </g>
    <path
       sodipodi:nodetypes="cc"
       style="fill:none;fill-rule:evenodd;stroke:#000000;stroke-width:1px;stroke-linecap:butt;stroke-linejoin:miter;stroke-opacity:1;marker-end:url(#Arrow2Mend-6-2-7-0-3)"
       d="m 336.5119,475.80302 0.21675,32.06993"
       id="path8762-5-7-6-2-7"
       inkscape:connector-curvature="0" />
  </g>
</svg>
