<?xml version="1.0" encoding="UTF-8" standalone="no"?>
<!-- Created with Inkscape (http://www.inkscape.org/) -->

<svg
   xmlns:dc="http://purl.org/dc/elements/1.1/"
   xmlns:cc="http://creativecommons.org/ns#"
   xmlns:rdf="http://www.w3.org/1999/02/22-rdf-syntax-ns#"
   xmlns:svg="http://www.w3.org/2000/svg"
   xmlns="http://www.w3.org/2000/svg"
   xmlns:xlink="http://www.w3.org/1999/xlink"
   xmlns:sodipodi="http://sodipodi.sourceforge.net/DTD/sodipodi-0.dtd"
   xmlns:inkscape="http://www.inkscape.org/namespaces/inkscape"
   width="161.86276mm"
   height="103.13473mm"
   viewBox="0 0 573.52947 365.43801"
   id="svg5861"
   version="1.1"
   inkscape:version="0.91 r13725"
   sodipodi:docname="parity_odd.svg">
  <sodipodi:namedview
     id="base"
     pagecolor="#ffffff"
     bordercolor="#666666"
     borderopacity="1.0"
     inkscape:pageopacity="0.0"
     inkscape:pageshadow="2"
     inkscape:zoom="2.8"
     inkscape:cx="233.44066"
     inkscape:cy="271.83063"
     inkscape:document-units="px"
     inkscape:current-layer="layer1"
     showgrid="false"
     inkscape:snap-smooth-nodes="true"
     inkscape:object-nodes="true"
     inkscape:object-paths="true"
     inkscape:window-width="1855"
     inkscape:window-height="1056"
     inkscape:window-x="65"
     inkscape:window-y="24"
     inkscape:window-maximized="1"
     objecttolerance="10"
     fit-margin-top="1"
     fit-margin-left="1"
     fit-margin-right="1"
     fit-margin-bottom="1" />
  <defs
     id="defs5863">
    <linearGradient
       inkscape:collect="always"
       id="linearGradient10239">
      <stop
         style="stop-color:#deb7b7;stop-opacity:1;"
         offset="0"
         id="stop10241" />
      <stop
         style="stop-color:#deb7b7;stop-opacity:0;"
         offset="1"
         id="stop10243" />
    </linearGradient>
    <marker
       inkscape:isstock="true"
       style="overflow:visible"
       id="Arrow2Mend"
       refX="0"
       refY="0"
       orient="auto"
       inkscape:stockid="Arrow2Mend">
      <path
         inkscape:connector-curvature="0"
         transform="scale(-0.6,-0.6)"
         d="M 8.7185878,4.0337352 -2.2072895,0.01601326 8.7185884,-4.0017078 c -1.7454984,2.3720609 -1.7354408,5.6174519 -6e-7,8.035443 z"
         style="fill:#000000;fill-opacity:1;fill-rule:evenodd;stroke:#000000;stroke-width:0.625;stroke-linejoin:round;stroke-opacity:1"
         id="path8805" />
    </marker>
    <marker
       inkscape:isstock="true"
       style="overflow:visible"
       id="Arrow2Mend-6"
       refX="0"
       refY="0"
       orient="auto"
       inkscape:stockid="Arrow2Mend">
      <path
         transform="scale(-0.6,-0.6)"
         d="M 8.7185878,4.0337352 -2.2072895,0.01601326 8.7185884,-4.0017078 c -1.7454984,2.3720609 -1.7354408,5.6174519 -6e-7,8.035443 z"
         style="fill:#000000;fill-opacity:1;fill-rule:evenodd;stroke:#000000;stroke-width:0.625;stroke-linejoin:round;stroke-opacity:1"
         id="path8805-7"
         inkscape:connector-curvature="0" />
    </marker>
    <marker
       inkscape:isstock="true"
       style="overflow:visible"
       id="Arrow2Mend-3"
       refX="0"
       refY="0"
       orient="auto"
       inkscape:stockid="Arrow2Mend">
      <path
         transform="scale(-0.6,-0.6)"
         d="M 8.7185878,4.0337352 -2.2072895,0.01601326 8.7185884,-4.0017078 c -1.7454984,2.3720609 -1.7354408,5.6174519 -6e-7,8.035443 z"
         style="fill:#000000;fill-opacity:1;fill-rule:evenodd;stroke:#000000;stroke-width:0.625;stroke-linejoin:round;stroke-opacity:1"
         id="path8805-5"
         inkscape:connector-curvature="0" />
    </marker>
    <clipPath
       clipPathUnits="userSpaceOnUse"
       id="clipPath4421">
      <ellipse
         style="color:#000000;clip-rule:nonzero;display:inline;overflow:visible;visibility:visible;opacity:1;isolation:auto;mix-blend-mode:normal;color-interpolation:sRGB;color-interpolation-filters:linearRGB;solid-color:#000000;solid-opacity:1;fill:none;fill-opacity:0.39215686;fill-rule:nonzero;stroke:none;stroke-width:3;stroke-linecap:butt;stroke-linejoin:miter;stroke-miterlimit:4;stroke-dasharray:none;stroke-dashoffset:0;stroke-opacity:1;color-rendering:auto;image-rendering:auto;shape-rendering:auto;text-rendering:auto;enable-background:accumulate"
         id="ellipse4423"
         cx="398.08411"
         cy="394.58789"
         rx="280.15518"
         ry="174.53622"
         transform="matrix(0.89223477,0.45157183,-0.44874771,0.89365849,0,0)" />
    </clipPath>
    <clipPath
       clipPathUnits="userSpaceOnUse"
       id="clipPath4425">
      <ellipse
         style="color:#000000;clip-rule:nonzero;display:inline;overflow:visible;visibility:visible;opacity:1;isolation:auto;mix-blend-mode:normal;color-interpolation:sRGB;color-interpolation-filters:linearRGB;solid-color:#000000;solid-opacity:1;fill:none;fill-opacity:0.39215686;fill-rule:nonzero;stroke:none;stroke-width:3;stroke-linecap:butt;stroke-linejoin:miter;stroke-miterlimit:4;stroke-dasharray:none;stroke-dashoffset:0;stroke-opacity:1;color-rendering:auto;image-rendering:auto;shape-rendering:auto;text-rendering:auto;enable-background:accumulate"
         id="ellipse4427"
         cx="385.56012"
         cy="409.13571"
         rx="271.34131"
         ry="180.97108"
         transform="matrix(0.90312256,0.42938286,-0.47141666,0.88191062,0,0)" />
    </clipPath>
    <clipPath
       clipPathUnits="userSpaceOnUse"
       id="clipPath4429">
      <ellipse
         style="color:#000000;clip-rule:nonzero;display:inline;overflow:visible;visibility:visible;opacity:1;isolation:auto;mix-blend-mode:normal;color-interpolation:sRGB;color-interpolation-filters:linearRGB;solid-color:#000000;solid-opacity:1;fill:none;fill-opacity:0.39215686;fill-rule:nonzero;stroke:none;stroke-width:3;stroke-linecap:butt;stroke-linejoin:miter;stroke-miterlimit:4;stroke-dasharray:none;stroke-dashoffset:0;stroke-opacity:1;color-rendering:auto;image-rendering:auto;shape-rendering:auto;text-rendering:auto;enable-background:accumulate"
         id="ellipse4431"
         cx="394.71136"
         cy="398.02127"
         rx="277.78159"
         ry="176.05489"
         transform="matrix(0.8950779,0.4459098,-0.45442737,0.89078379,0,0)" />
    </clipPath>
    <clipPath
       clipPathUnits="userSpaceOnUse"
       id="clipPath4421-3">
      <ellipse
         style="color:#000000;clip-rule:nonzero;display:inline;overflow:visible;visibility:visible;opacity:1;isolation:auto;mix-blend-mode:normal;color-interpolation:sRGB;color-interpolation-filters:linearRGB;solid-color:#000000;solid-opacity:1;fill:none;fill-opacity:0.39215686;fill-rule:nonzero;stroke:none;stroke-width:3;stroke-linecap:butt;stroke-linejoin:miter;stroke-miterlimit:4;stroke-dasharray:none;stroke-dashoffset:0;stroke-opacity:1;color-rendering:auto;image-rendering:auto;shape-rendering:auto;text-rendering:auto;enable-background:accumulate"
         id="ellipse4423-6"
         cx="398.08411"
         cy="394.58789"
         rx="280.15518"
         ry="174.53622"
         transform="matrix(0.89223477,0.45157183,-0.44874771,0.89365849,0,0)" />
    </clipPath>
    <clipPath
       clipPathUnits="userSpaceOnUse"
       id="clipPath4421-3-1">
      <ellipse
         style="color:#000000;clip-rule:nonzero;display:inline;overflow:visible;visibility:visible;opacity:1;isolation:auto;mix-blend-mode:normal;color-interpolation:sRGB;color-interpolation-filters:linearRGB;solid-color:#000000;solid-opacity:1;fill:none;fill-opacity:0.39215686;fill-rule:nonzero;stroke:none;stroke-width:3;stroke-linecap:butt;stroke-linejoin:miter;stroke-miterlimit:4;stroke-dasharray:none;stroke-dashoffset:0;stroke-opacity:1;color-rendering:auto;image-rendering:auto;shape-rendering:auto;text-rendering:auto;enable-background:accumulate"
         id="ellipse4423-6-8"
         cx="398.08411"
         cy="394.58789"
         rx="280.15518"
         ry="174.53622"
         transform="matrix(0.89223477,0.45157183,-0.44874771,0.89365849,0,0)" />
    </clipPath>
    <marker
       inkscape:isstock="true"
       style="overflow:visible"
       id="Arrow2Mend-6-0"
       refX="0"
       refY="0"
       orient="auto"
       inkscape:stockid="Arrow2Mend">
      <path
         transform="scale(-0.6,-0.6)"
         d="M 8.7185878,4.0337352 -2.2072895,0.01601326 8.7185884,-4.0017078 c -1.7454984,2.3720609 -1.7354408,5.6174519 -6e-7,8.035443 z"
         style="fill:#000000;fill-opacity:1;fill-rule:evenodd;stroke:#000000;stroke-width:0.625;stroke-linejoin:round;stroke-opacity:1"
         id="path8805-7-2"
         inkscape:connector-curvature="0" />
    </marker>
    <linearGradient
       inkscape:collect="always"
       xlink:href="#linearGradient10239"
       id="linearGradient10245"
       x1="607.56702"
       y1="157.16295"
       x2="746.33368"
       y2="146.18451"
       gradientUnits="userSpaceOnUse" />
    <linearGradient
       gradientTransform="translate(-116.81731,22.194737)"
       inkscape:collect="always"
       xlink:href="#linearGradient10239"
       id="linearGradient10245-7"
       x1="607.56702"
       y1="157.16295"
       x2="746.33368"
       y2="146.18451"
       gradientUnits="userSpaceOnUse" />
    <linearGradient
       gradientTransform="translate(-295.46631,77.969708)"
       inkscape:collect="always"
       xlink:href="#linearGradient10239"
       id="linearGradient10245-7-2"
       x1="607.56702"
       y1="157.16295"
       x2="746.33368"
       y2="146.18451"
       gradientUnits="userSpaceOnUse" />
    <clipPath
       clipPathUnits="userSpaceOnUse"
       id="clipPath10297">
      <ellipse
         style="color:#000000;clip-rule:nonzero;display:inline;overflow:visible;visibility:visible;opacity:1;isolation:auto;mix-blend-mode:normal;color-interpolation:sRGB;color-interpolation-filters:linearRGB;solid-color:#000000;solid-opacity:1;fill:none;fill-opacity:1;fill-rule:nonzero;stroke:none;stroke-width:3;stroke-linecap:butt;stroke-linejoin:miter;stroke-miterlimit:4;stroke-dasharray:none;stroke-dashoffset:0;stroke-opacity:1;color-rendering:auto;image-rendering:auto;shape-rendering:auto;text-rendering:auto;enable-background:accumulate"
         id="ellipse10299"
         cx="396.78656"
         cy="393.93286"
         rx="281.3909"
         ry="176.14525"
         transform="matrix(0.89373066,-0.44860396,0.44584424,0.89511056,0,0)" />
    </clipPath>
    <clipPath
       clipPathUnits="userSpaceOnUse"
       id="clipPath10301">
      <ellipse
         style="color:#000000;clip-rule:nonzero;display:inline;overflow:visible;visibility:visible;opacity:1;isolation:auto;mix-blend-mode:normal;color-interpolation:sRGB;color-interpolation-filters:linearRGB;solid-color:#000000;solid-opacity:1;fill:none;fill-opacity:1;fill-rule:nonzero;stroke:none;stroke-width:3;stroke-linecap:butt;stroke-linejoin:miter;stroke-miterlimit:4;stroke-dasharray:none;stroke-dashoffset:0;stroke-opacity:1;color-rendering:auto;image-rendering:auto;shape-rendering:auto;text-rendering:auto;enable-background:accumulate"
         id="ellipse10303"
         cx="396.78659"
         cy="393.93286"
         rx="281.3909"
         ry="176.14525"
         transform="matrix(0.89373066,-0.44860396,0.44584424,0.89511056,0,0)" />
    </clipPath>
    <clipPath
       clipPathUnits="userSpaceOnUse"
       id="clipPath10305">
      <ellipse
         style="color:#000000;clip-rule:nonzero;display:inline;overflow:visible;visibility:visible;opacity:1;isolation:auto;mix-blend-mode:normal;color-interpolation:sRGB;color-interpolation-filters:linearRGB;solid-color:#000000;solid-opacity:1;fill:none;fill-opacity:1;fill-rule:nonzero;stroke:none;stroke-width:3;stroke-linecap:butt;stroke-linejoin:miter;stroke-miterlimit:4;stroke-dasharray:none;stroke-dashoffset:0;stroke-opacity:1;color-rendering:auto;image-rendering:auto;shape-rendering:auto;text-rendering:auto;enable-background:accumulate"
         id="ellipse10307"
         cx="396.78656"
         cy="393.93286"
         rx="281.3909"
         ry="176.14525"
         transform="matrix(0.89373066,-0.44860396,0.44584424,0.89511056,0,0)" />
    </clipPath>
  </defs>
  <metadata
     id="metadata5866">
    <rdf:RDF>
      <cc:Work
         rdf:about="">
        <dc:format>image/svg+xml</dc:format>
        <dc:type
           rdf:resource="http://purl.org/dc/dcmitype/StillImage" />
        <dc:title />
      </cc:Work>
    </rdf:RDF>
  </metadata>
  <g
     transform="translate(-109.21507,-212.03386)"
     id="layer1"
     inkscape:groupmode="layer"
     inkscape:label="Layer 1">
    <rect
       style="color:#000000;clip-rule:nonzero;display:inline;overflow:visible;visibility:visible;opacity:1;isolation:auto;mix-blend-mode:normal;color-interpolation:sRGB;color-interpolation-filters:linearRGB;solid-color:#000000;solid-opacity:1;fill:url(#linearGradient10245-7-2);fill-opacity:1;fill-rule:nonzero;stroke:none;stroke-width:3;stroke-linecap:butt;stroke-linejoin:miter;stroke-miterlimit:4;stroke-dasharray:none;stroke-dashoffset:0;stroke-opacity:1;color-rendering:auto;image-rendering:auto;shape-rendering:auto;text-rendering:auto;enable-background:accumulate"
       id="rect10237-2-7"
       width="260.71265"
       height="386.34958"
       x="368.582"
       y="37.294201"
       transform="matrix(0.89326733,0.44952583,-0.44492615,0.89556726,0,0)"
       clip-path="url(#clipPath10297)" />
    <path
       style="color:#000000;clip-rule:nonzero;display:inline;overflow:visible;visibility:visible;opacity:1;isolation:auto;mix-blend-mode:normal;color-interpolation:sRGB;color-interpolation-filters:linearRGB;solid-color:#000000;solid-opacity:1;fill:#9f3c2f;fill-opacity:0.39215687;fill-rule:nonzero;stroke:none;stroke-width:3;stroke-linecap:butt;stroke-linejoin:miter;stroke-miterlimit:4;stroke-dasharray:none;stroke-dashoffset:0;stroke-opacity:1;color-rendering:auto;image-rendering:auto;shape-rendering:auto;text-rendering:auto;enable-background:accumulate"
       d="m 382.75961,317.12811 c -48.72514,-1.57462 -99.18755,-9.60919 -147.22974,-23.44177 -13.08661,-3.76797 -29.64037,-9.2452 -39.31333,-13.00782 l -6.48338,-2.52192 4.74938,-3.17601 c 15.7767,-10.55018 38.96765,-22.17731 59.28725,-29.72453 30.12015,-11.18739 63.17264,-18.76634 97.17001,-22.2811 26.96314,-2.78755 58.31441,-2.97151 85.35789,-0.50087 60.27788,5.50687 117.28908,23.75368 159.02773,50.89785 l 5.73707,3.73103 -5.73707,2.40908 c -29.68217,12.46395 -62.79175,22.45935 -94.6305,28.56786 -28.10711,5.39256 -52.46946,8.04226 -83.33759,9.06395 -16.30372,0.53963 -17.4278,0.53911 -34.59772,-0.0158 l 0,10e-6 z"
       id="path4303"
       inkscape:connector-curvature="0" />
    <rect
       style="color:#000000;clip-rule:nonzero;display:inline;overflow:visible;visibility:visible;opacity:1;isolation:auto;mix-blend-mode:normal;color-interpolation:sRGB;color-interpolation-filters:linearRGB;solid-color:#000000;solid-opacity:1;fill:url(#linearGradient10245-7);fill-opacity:1;fill-rule:nonzero;stroke:none;stroke-width:3;stroke-linecap:butt;stroke-linejoin:miter;stroke-miterlimit:4;stroke-dasharray:none;stroke-dashoffset:0;stroke-opacity:1;color-rendering:auto;image-rendering:auto;shape-rendering:auto;text-rendering:auto;enable-background:accumulate"
       id="rect10237-2"
       width="260.71265"
       height="386.34958"
       x="547.23102"
       y="-18.480766"
       transform="matrix(0.89326733,0.44952583,-0.44492615,0.89556726,0,0)"
       clip-path="url(#clipPath10305)" />
    <rect
       style="color:#000000;clip-rule:nonzero;display:inline;overflow:visible;visibility:visible;opacity:1;isolation:auto;mix-blend-mode:normal;color-interpolation:sRGB;color-interpolation-filters:linearRGB;solid-color:#000000;solid-opacity:1;fill:url(#linearGradient10245);fill-opacity:1;fill-rule:nonzero;stroke:none;stroke-width:3;stroke-linecap:butt;stroke-linejoin:miter;stroke-miterlimit:4;stroke-dasharray:none;stroke-dashoffset:0;stroke-opacity:1;color-rendering:auto;image-rendering:auto;shape-rendering:auto;text-rendering:auto;enable-background:accumulate"
       id="rect10237"
       width="260.71265"
       height="386.34958"
       x="664.04834"
       y="-40.675507"
       transform="matrix(0.89326733,0.44952583,-0.44492615,0.89556726,0,0)"
       clip-path="url(#clipPath10301)" />
    <g
       id="g4295">
      <path
         style="fill:none;fill-rule:evenodd;stroke:#000000;stroke-width:2.31405973;stroke-linecap:butt;stroke-linejoin:miter;stroke-miterlimit:4;stroke-dasharray:none;stroke-opacity:1"
         d="m 605.03688,276.72209 c -210.92408,94.02822 -419.71039,1.13003 -419.71039,1.13003"
         id="path8745"
         inkscape:connector-curvature="0"
         sodipodi:nodetypes="cc" />
      <ellipse
         style="opacity:0.73600003;fill:none;fill-opacity:1;stroke:#000000;stroke-width:4.79799986;stroke-miterlimit:4;stroke-dasharray:none;stroke-opacity:1"
         id="path5881"
         cx="-395.9798"
         cy="394.75287"
         rx="280.82242"
         ry="176.7767"
         transform="scale(-1,1)" />
    </g>
    <rect
       y="273.78839"
       x="485.47876"
       height="23.141245"
       width="25.284103"
       id="rect9036"
       style="opacity:0.73600003;fill:#ffffff;fill-opacity:1;stroke:#000000;stroke-width:1.71589792;stroke-miterlimit:4;stroke-dasharray:none;stroke-opacity:1" />
    <path
       inkscape:connector-curvature="0"
       id="path8762-5"
       d="m 556.22662,283.67208 53.05688,26.07057"
       style="fill:none;fill-rule:evenodd;stroke:#000000;stroke-width:1px;stroke-linecap:butt;stroke-linejoin:miter;stroke-opacity:1;marker-end:url(#Arrow2Mend-6)"
       sodipodi:nodetypes="cc" />
    <path
       style="color:#000000;clip-rule:nonzero;display:inline;overflow:visible;visibility:visible;opacity:1;isolation:auto;mix-blend-mode:normal;color-interpolation:sRGB;color-interpolation-filters:linearRGB;solid-color:#000000;solid-opacity:1;fill:none;fill-opacity:0;fill-rule:nonzero;stroke:none;stroke-width:3;stroke-linecap:butt;stroke-linejoin:miter;stroke-miterlimit:4;stroke-dasharray:none;stroke-dashoffset:0;stroke-opacity:1;color-rendering:auto;image-rendering:auto;shape-rendering:auto;text-rendering:auto;enable-background:accumulate"
       d="M 273.3524,105.04014 C 224.62726,103.46552 174.16485,95.430945 126.12266,81.598365 113.03605,77.830395 96.482286,72.353161 86.809327,68.59055 l -6.48338,-2.521921 4.749386,-3.176011 C 100.85203,52.342436 124.04298,40.71531 144.36258,33.168089 174.48273,21.980694 207.53522,14.401749 241.53259,10.886981 268.49573,8.0994382 299.847,7.9154744 326.89048,10.386116 387.16836,15.89299 444.17956,34.139793 485.91821,61.283965 l 5.73707,3.731029 -5.73707,2.409078 c -29.68217,12.463949 -62.79175,22.459358 -94.6305,28.567866 -28.10711,5.392562 -52.46946,8.042262 -83.33759,9.063952 -16.30372,0.53963 -17.4278,0.53911 -34.59772,-0.0158 l 0,10e-6 z M 204.91572,61.942423 c 0.80863,-0.591288 1.05655,-0.591288 1.64784,0 0.3828,0.382798 1.25958,0.696 1.94839,0.696 0.95168,0 1.4281,-0.420556 1.98423,-1.751544 0.84735,-2.028002 0.92027,-2.794142 0.26593,-2.794142 -0.25625,0 -0.72844,0.795495 -1.04932,1.767767 -0.57981,1.756837 -1.18615,2.203769 -1.75064,1.290404 -0.16227,-0.262554 0.61981,-4.116158 1.73796,-8.563571 1.11814,-4.447412 2.03298,-8.210074 2.03298,-8.36147 0,-0.372955 -2.75322,-0.349948 -3.74676,0.03131 -1.12854,0.433063 -0.993,1.208654 0.21123,1.208654 1.16723,0 1.18142,0.08303 0.47472,2.77792 -0.91145,3.475682 -0.90639,3.467605 -1.73785,2.777554 -1.72698,-1.433269 -5.59249,0.632979 -7.26145,3.881502 -0.95128,1.851603 -0.70574,5.576371 0.44336,6.725465 1.16992,1.169923 3.427,1.317663 4.79938,0.314152 z m 21.96966,-0.06161 c 0,-0.420895 -0.44896,-0.757614 -1.01015,-0.757614 -0.91206,0 -1.01015,-0.33672 -1.01015,-3.46742 0,-3.723946 1.16392,-6.12903 2.9661,-6.12903 1.65928,0 2.08466,1.102751 2.08466,5.404316 0,3.855414 -0.0811,4.192134 -1.01015,4.192134 -0.5612,0 -1.01016,0.336719 -1.01016,0.757614 0,0.589257 0.67344,0.757614 3.03046,0.757614 2.24347,0 3.03046,-0.181448 3.03046,-0.698707 0,-0.384287 -0.48604,-0.82581 -1.08009,-0.981156 -1.01027,-0.26419 -1.06316,-0.519203 -0.81805,-3.944919 0.2163,-3.023096 0.46387,-3.825892 1.41813,-4.598605 0.63585,-0.514877 1.629,-0.868552 2.20701,-0.785946 0.96554,0.137991 1.06272,0.529753 1.19614,4.822149 0.13713,4.411437 0.0878,4.671956 -0.88388,4.671956 -0.57804,0 -1.02911,0.332067 -1.02911,0.757614 0,0.595732 0.7015,0.757614 3.283,0.757614 2.5815,0 3.28299,-0.161882 3.28299,-0.757614 0,-0.420895 -0.44895,-0.757614 -1.01015,-0.757614 -0.92114,0 -1.01015,-0.33672 -1.01015,-3.821277 0,-3.661465 -0.52007,-5.599499 -1.71711,-6.398784 -0.95862,-0.640088 -3.56614,-0.42004 -4.7365,0.399713 -1.01598,0.711622 -1.22909,0.711622 -2.24507,0 -0.61739,-0.43244 -1.70325,-0.786254 -2.413,-0.786254 -0.70975,0 -1.79561,0.353814 -2.413,0.786254 -1.01598,0.711622 -1.12253,0.711622 -1.12253,0 0,-0.580579 -0.52849,-0.786254 -2.02031,-0.786254 -2.17366,0 -2.88564,1.171122 -1.01015,1.661574 0.90639,0.237026 1.01015,0.688932 1.01015,4.399341 0,3.710412 -0.10376,4.162313 -1.01015,4.399341 -0.55559,0.14529 -1.01015,0.57858 -1.01015,0.962867 0,0.517259 0.78699,0.698707 3.03045,0.698707 2.35703,0 3.03046,-0.168357 3.03046,-0.757614 z m 22.74252,-0.01273 c 0.7629,-0.690424 0.91757,-0.690424 1.49057,0 1.43803,1.73273 4.05118,0.01237 4.05118,-2.667111 0,-1.638063 -1.21889,-1.147741 -1.4225,0.572231 -0.31381,2.650782 -1.10288,1.291324 -1.10288,-1.900122 0,-5.504222 -1.21323,-7.312651 -4.92449,-7.340423 -2.38815,-0.01787 -4.16688,1.275662 -4.16688,3.030246 0,1.357477 1.38872,1.842349 2.39489,0.836178 0.6576,-0.657605 0.68567,-0.940692 0.15649,-1.578319 -0.5305,-0.639207 -0.50692,-0.82991 0.13292,-1.075443 1.57081,-0.602776 3.09629,0.01266 3.60068,1.452664 0.58235,1.662578 0.11247,2.105689 -2.71186,2.557317 -5.38064,0.860399 -5.46048,6.883124 -0.0912,6.883124 0.95803,0 2.12493,-0.346659 2.59312,-0.770357 l 0,1.5e-5 z m 10.37857,-0.51839 c -0.22075,-0.879545 -0.0214,-1.672787 0.62794,-2.498249 l 0.95139,-1.209497 1.1721,1.585355 c 0.76583,1.03583 0.96687,1.653766 0.58,1.782722 -0.32566,0.108551 -0.5921,0.519355 -0.5921,0.91289 0,0.537815 0.75266,0.715527 3.03045,0.715527 2.35703,0 3.03046,-0.168358 3.03046,-0.757615 0,-0.416688 -0.4334,-0.757614 -0.96312,-0.757614 -0.53523,0 -1.88893,-1.105779 -3.047,-2.488966 l -2.08388,-2.488965 1.58804,-1.808684 c 0.87343,-0.994776 2.13094,-1.94494 2.79447,-2.111476 2.07409,-0.520578 1.3202,-1.20345 -1.32859,-1.20345 -2.39101,0 -2.51848,0.0658 -2.24423,1.158519 0.1949,0.776535 -0.0291,1.447988 -0.67933,2.036446 -0.92803,0.839855 -1.00568,0.823617 -1.79068,-0.374441 -0.45132,-0.688802 -0.68518,-1.605202 -0.5197,-2.036446 0.24991,-0.651268 -0.17881,-0.784078 -2.53108,-0.784078 -1.55758,0 -2.83196,0.227284 -2.83196,0.505076 0,0.277792 0.44416,0.505077 0.98702,0.505077 0.58085,0 1.72578,0.967528 2.78226,2.351155 l 1.79524,2.351156 -1.17911,1.563185 c -0.6485,0.859751 -1.8956,1.904112 -2.77132,2.3208 -2.45069,1.166085 -2.04222,2.020305 0.96605,2.020305 2.51385,0 2.57182,-0.03313 2.25668,-1.288747 l 0,1.5e-5 z m 15.36623,0.531118 c 0,-0.420895 -0.44895,-0.757614 -1.01015,-0.757614 -0.94638,0 -1.01015,-0.33672 -1.01015,-5.33379 l 0,-5.333791 -1.85499,0.156759 c -2.0587,0.173971 -2.79996,1.140981 -1.19612,1.560393 0.93681,0.244982 1.0308,0.665344 1.0308,4.609995 0,4.003714 -0.0784,4.340434 -1.01015,4.340434 -0.56119,0 -1.01015,0.336719 -1.01015,0.757614 0,0.589257 0.67343,0.757614 3.03046,0.757614 2.35702,0 3.03045,-0.168357 3.03045,-0.757614 z m 7.57615,0 c 0,-0.420895 -0.44896,-0.757614 -1.01015,-0.757614 -0.92036,0 -1.01016,-0.33672 -1.01016,-3.788073 0,-3.152302 0.17475,-3.962823 1.04121,-4.829283 1.35877,-1.358765 3.10859,-1.09522 3.5597,0.536135 0.44953,1.625631 0.54046,6.247263 0.14328,7.282296 -0.16862,0.439411 -0.62318,0.798925 -1.01015,0.798925 -0.38697,0 -0.70358,0.340926 -0.70358,0.757614 0,0.589257 0.67343,0.757614 3.03046,0.757614 2.35702,0 3.03046,-0.168357 3.03046,-0.757614 0,-0.420895 -0.44896,-0.757614 -1.01016,-0.757614 -0.91205,0 -1.01015,-0.33672 -1.01015,-3.46742 0,-3.723946 1.16392,-6.12903 2.9661,-6.12903 1.65929,0 2.08466,1.102751 2.08466,5.404316 0,3.855414 -0.0811,4.192134 -1.01015,4.192134 -0.56119,0 -1.01015,0.336719 -1.01015,0.757614 0,0.589257 0.67343,0.757614 3.03046,0.757614 2.35702,0 3.03045,-0.168357 3.03045,-0.757614 0,-0.420895 -0.44895,-0.757614 -1.01015,-0.757614 -0.93485,0 -1.01015,-0.33672 -1.01015,-4.517047 0,-4.095225 -0.10483,-4.590471 -1.12254,-5.303301 -1.50232,-1.052265 -3.56092,-0.993064 -4.96358,0.142743 -1.11385,0.901945 -1.17431,0.901945 -2.07626,0 -1.24937,-1.249372 -3.98522,-1.198092 -5.37944,0.100831 l -1.10539,1.029827 0,-1.060316 c 0,-0.913025 -0.25769,-1.038542 -1.855,-0.903559 -1.96543,0.166091 -3.04052,1.419449 -1.21755,1.419449 0.98833,0 1.05224,0.276108 1.05224,4.545686 0,4.208967 -0.0748,4.545687 -1.01015,4.545687 -0.5612,0 -1.01015,0.336719 -1.01015,0.757614 0,0.595732 0.70149,0.757614 3.28299,0.757614 2.5815,0 3.283,-0.161882 3.283,-0.757614 z m 22.11097,-0.02864 c 0.61739,-0.432441 1.12254,-0.561402 1.12254,-0.286575 0,0.80992 1.89749,1.174095 3.01138,0.577964 0.73157,-0.391525 1.02923,-1.056943 1.02923,-2.300825 0,-0.962498 -0.22729,-1.749998 -0.50508,-1.749998 -0.27779,0 -0.50508,0.700793 -0.50508,1.557317 0,1.020612 -0.21758,1.485288 -0.63134,1.348306 -0.41916,-0.138765 -0.68054,-1.588768 -0.77771,-4.31438 -0.13301,-3.731125 -0.26584,-4.199357 -1.45707,-5.136379 -2.67272,-2.102363 -7.45472,-0.814732 -7.13797,1.922018 0.11015,0.951703 0.44789,1.340122 1.16526,1.340122 0.81822,0 0.996,-0.311893 0.93568,-1.641498 -0.0673,-1.484196 0.063,-1.641498 1.36032,-1.641498 0.91011,0 1.72232,0.410494 2.22105,1.122535 1.20688,1.723072 0.95616,2.336464 -1.10779,2.710153 -4.8945,0.886182 -7.09798,3.84281 -4.67195,6.268838 1.23394,1.233942 4.3396,1.350836 5.94853,0.2239 z m 12.23421,0.02864 c 0,-0.420895 -0.44895,-0.757614 -1.01015,-0.757614 -0.97054,0 -1.01015,-0.33672 -1.01015,-8.586297 l 0,-8.586297 -1.47392,0 c -1.7751,0 -3.07177,0.449221 -3.07177,1.06419 0,0.248072 0.45457,0.451039 1.01016,0.451039 0.96637,0 1.01015,0.336718 1.01015,7.769775 0,7.469058 -0.0411,7.780513 -1.06098,8.047224 -1.99817,0.522537 -0.39669,1.355594 2.60602,1.355594 2.33052,0 3.00064,-0.169195 3.00064,-0.757614 z m 18.86661,-0.480959 c 0.73505,-0.681217 1.33645,-1.590354 1.33645,-2.020305 0,-1.1349 -0.41039,-0.971772 -1.84528,0.733497 -0.71689,0.851978 -1.76949,1.515229 -2.40473,1.515229 -1.40482,0 -3.11688,-1.820209 -3.44424,-3.661803 l -0.2469,-1.38896 3.97057,0 3.97058,0 0,-1.476477 c 0,-0.851544 -0.55345,-2.134213 -1.30759,-3.030457 -1.08474,-1.289139 -1.67569,-1.553981 -3.46742,-1.553981 -2.71674,0 -4.59461,1.398537 -5.37491,4.002943 -1.66974,5.573121 4.786,10.612853 8.81347,6.880314 z m 11.27826,-3.68592 c 1.37427,-3.428163 2.31234,-5.075989 3.08722,-5.423069 1.80233,-0.80729 1.28835,-1.269192 -1.41228,-1.269192 -2.64856,0 -3.0383,0.271198 -1.74683,1.215544 0.69284,0.506613 0.65569,0.874194 -0.3374,3.338677 -0.61378,1.523161 -1.26965,2.949911 -1.45751,3.170552 -0.18786,0.220648 -0.80945,-0.802134 -1.3813,-2.272841 -0.57186,-1.470707 -1.19978,-3.07176 -1.39538,-3.557896 -0.25054,-0.62265 -0.11576,-0.883883 0.456,-0.883883 0.44642,0 0.81166,-0.227285 0.81166,-0.505077 0,-0.277792 -1.25007,-0.505076 -2.77792,-0.505076 -2.67234,0 -3.73028,0.632914 -1.89404,1.133106 0.57519,0.156681 1.57165,2.029439 2.85315,5.362209 1.08309,2.816791 2.25079,5.121439 2.59488,5.121439 0.34409,0 1.51398,-2.216022 2.59975,-4.924493 z m 12.82547,3.448115 c 1.35733,-1.357327 1.90986,-2.564232 1.17394,-2.564232 -0.16633,0 -0.93938,0.681853 -1.71787,1.515229 -0.77849,0.833376 -1.86728,1.515229 -2.41953,1.515229 -1.51035,0 -3.09404,-1.564792 -3.45046,-3.409265 l -0.31719,-1.641498 3.82139,0 c 2.10177,0 3.96462,-0.231728 4.13966,-0.51495 0.51282,-0.829766 -0.74649,-3.961394 -1.9249,-4.786785 -0.59614,-0.417549 -1.93887,-0.75918 -2.98384,-0.75918 -5.49304,0 -7.49798,8.252113 -2.71376,11.169524 2.3355,1.424184 4.63263,1.235861 6.39256,-0.524072 z m 8.54744,0.718764 c 0,-0.420895 -0.44895,-0.757614 -1.01015,-0.757614 -0.89668,0 -1.01015,-0.33672 -1.01015,-2.997578 0,-3.720682 0.62387,-5.434374 2.24775,-6.174261 2.19382,-0.999575 2.80301,0.07417 2.80301,4.940534 0,3.894585 -0.0804,4.231305 -1.01015,4.231305 -0.57504,0 -1.01015,0.336719 -1.01015,0.781716 0,0.637361 0.57553,0.753948 3.11664,0.631346 1.92977,-0.09311 3.19602,-0.390798 3.32508,-0.781717 0.11922,-0.361079 -0.21488,-0.631345 -0.78046,-0.631345 -0.88795,0 -1.01232,-0.446114 -1.21827,-4.369968 -0.19876,-3.786944 -0.38314,-4.494489 -1.38198,-5.303301 -1.40755,-1.139772 -3.46474,-1.200663 -4.96893,-0.147079 -1.01599,0.711622 -1.12254,0.711622 -1.12254,0 0,-0.580579 -0.52849,-0.786254 -2.02031,-0.786254 -2.17366,0 -2.88564,1.171122 -1.01015,1.661574 0.9113,0.238309 1.01015,0.688932 1.01015,4.604594 0,4.003714 -0.0784,4.340434 -1.01015,4.340434 -0.56119,0 -1.01015,0.336719 -1.01015,0.757614 0,0.589257 0.67343,0.757614 3.03046,0.757614 2.35702,0 3.03045,-0.168357 3.03045,-0.757614 z M 272.55347,47.684636 c 1.04712,-0.401817 1.03066,-2.526884 -0.0227,-2.931097 -1.62197,-0.622413 -2.84635,1.387947 -1.60272,2.631581 0.70829,0.708287 0.60825,0.689852 1.62544,0.299516 z"
       id="path4257"
       inkscape:connector-curvature="0"
       transform="translate(109.21507,212.03386)" />
    <path
       style="color:#000000;clip-rule:nonzero;display:inline;overflow:visible;visibility:visible;opacity:1;isolation:auto;mix-blend-mode:normal;color-interpolation:sRGB;color-interpolation-filters:linearRGB;solid-color:#000000;solid-opacity:1;fill:#008000;fill-opacity:0;fill-rule:nonzero;stroke:none;stroke-width:3;stroke-linecap:butt;stroke-linejoin:miter;stroke-miterlimit:4;stroke-dasharray:none;stroke-dashoffset:0;stroke-opacity:1;color-rendering:auto;image-rendering:auto;shape-rendering:auto;text-rendering:auto;enable-background:accumulate"
       d="M 273.3524,105.04014 C 224.62726,103.46552 174.16485,95.430945 126.12266,81.598365 113.03605,77.830395 96.482286,72.353161 86.809327,68.59055 l -6.48338,-2.521921 4.749386,-3.176011 C 100.85203,52.342436 124.04298,40.71531 144.36258,33.168089 174.48273,21.980694 207.53522,14.401749 241.53259,10.886981 268.49573,8.0994382 299.847,7.9154744 326.89048,10.386116 387.16836,15.89299 444.17956,34.139793 485.91821,61.283965 l 5.73707,3.731029 -5.73707,2.409078 c -29.68217,12.463949 -62.79175,22.459358 -94.6305,28.567866 -28.10711,5.392562 -52.46946,8.042262 -83.33759,9.063952 -16.30372,0.53963 -17.4278,0.53911 -34.59772,-0.0158 l 0,10e-6 z"
       id="path4259"
       inkscape:connector-curvature="0"
       transform="translate(109.21507,212.03386)" />
    <path
       style="color:#000000;clip-rule:nonzero;display:inline;overflow:visible;visibility:visible;opacity:1;isolation:auto;mix-blend-mode:normal;color-interpolation:sRGB;color-interpolation-filters:linearRGB;solid-color:#000000;solid-opacity:1;fill:#008000;fill-opacity:0;fill-rule:nonzero;stroke:none;stroke-width:3;stroke-linecap:butt;stroke-linejoin:miter;stroke-miterlimit:4;stroke-dasharray:none;stroke-dashoffset:0;stroke-opacity:1;color-rendering:auto;image-rendering:auto;shape-rendering:auto;text-rendering:auto;enable-background:accumulate"
       d="M 273.3524,105.04014 C 224.62726,103.46552 174.16485,95.430945 126.12266,81.598365 113.03605,77.830395 96.482286,72.353161 86.809327,68.59055 l -6.48338,-2.521921 4.749386,-3.176011 C 100.85203,52.342436 124.04298,40.71531 144.36258,33.168089 174.48273,21.980694 207.53522,14.401749 241.53259,10.886981 268.49573,8.0994382 299.847,7.9154744 326.89048,10.386116 387.16836,15.89299 444.17956,34.139793 485.91821,61.283965 l 5.73707,3.731029 -5.73707,2.409078 c -29.68217,12.463949 -62.79175,22.459358 -94.6305,28.567866 -28.10711,5.392562 -52.46946,8.042262 -83.33759,9.063952 -16.30372,0.53963 -17.4278,0.53911 -34.59772,-0.0158 l 0,10e-6 z"
       id="path4261"
       inkscape:connector-curvature="0"
       transform="translate(109.21507,212.03386)" />
    <path
       style="color:#000000;clip-rule:nonzero;display:inline;overflow:visible;visibility:visible;opacity:1;isolation:auto;mix-blend-mode:normal;color-interpolation:sRGB;color-interpolation-filters:linearRGB;solid-color:#000000;solid-opacity:1;fill:#008000;fill-opacity:0;fill-rule:nonzero;stroke:none;stroke-width:3;stroke-linecap:butt;stroke-linejoin:miter;stroke-miterlimit:4;stroke-dasharray:none;stroke-dashoffset:0;stroke-opacity:1;color-rendering:auto;image-rendering:auto;shape-rendering:auto;text-rendering:auto;enable-background:accumulate"
       d="M 273.3524,105.04014 C 224.62726,103.46552 174.16485,95.430945 126.12266,81.598365 113.03605,77.830395 96.482286,72.353161 86.809327,68.59055 l -6.48338,-2.521921 4.749386,-3.176011 C 100.85203,52.342436 124.04298,40.71531 144.36258,33.168089 174.48273,21.980694 207.53522,14.401749 241.53259,10.886981 268.49573,8.0994382 299.847,7.9154744 326.89048,10.386116 387.16836,15.89299 444.17956,34.139793 485.91821,61.283965 l 5.73707,3.731029 -5.73707,2.409078 c -29.68217,12.463949 -62.79175,22.459358 -94.6305,28.567866 -28.10711,5.392562 -52.46946,8.042262 -83.33759,9.063952 -16.30372,0.53963 -17.4278,0.53911 -34.59772,-0.0158 l 0,10e-6 z"
       id="path4263"
       inkscape:connector-curvature="0"
       transform="translate(109.21507,212.03386)" />
    <path
       style="color:#000000;clip-rule:nonzero;display:inline;overflow:visible;visibility:visible;opacity:1;isolation:auto;mix-blend-mode:normal;color-interpolation:sRGB;color-interpolation-filters:linearRGB;solid-color:#000000;solid-opacity:1;fill:#249e24;fill-opacity:0;fill-rule:nonzero;stroke:none;stroke-width:3;stroke-linecap:butt;stroke-linejoin:miter;stroke-miterlimit:4;stroke-dasharray:none;stroke-dashoffset:0;stroke-opacity:1;color-rendering:auto;image-rendering:auto;shape-rendering:auto;text-rendering:auto;enable-background:accumulate"
       d="M 273.3524,105.04014 C 224.62726,103.46552 174.16485,95.430945 126.12266,81.598365 113.03605,77.830395 96.482286,72.353161 86.809327,68.59055 l -6.48338,-2.521921 4.749386,-3.176011 C 100.85203,52.342436 124.04298,40.71531 144.36258,33.168089 174.48273,21.980694 207.53522,14.401749 241.53259,10.886981 268.49573,8.0994382 299.847,7.9154744 326.89048,10.386116 387.16836,15.89299 444.17956,34.139793 485.91821,61.283965 l 5.73707,3.731029 -5.73707,2.409078 c -29.68217,12.463949 -62.79175,22.459358 -94.6305,28.567866 -28.10711,5.392562 -52.46946,8.042262 -83.33759,9.063952 -16.30372,0.53963 -17.4278,0.53911 -34.59772,-0.0158 l 0,10e-6 z"
       id="path4265"
       inkscape:connector-curvature="0"
       transform="translate(109.21507,212.03386)" />
    <path
       style="color:#000000;clip-rule:nonzero;display:inline;overflow:visible;visibility:visible;opacity:1;isolation:auto;mix-blend-mode:normal;color-interpolation:sRGB;color-interpolation-filters:linearRGB;solid-color:#000000;solid-opacity:1;fill:#249e24;fill-opacity:0;fill-rule:nonzero;stroke:none;stroke-width:3;stroke-linecap:butt;stroke-linejoin:miter;stroke-miterlimit:4;stroke-dasharray:none;stroke-dashoffset:0;stroke-opacity:1;color-rendering:auto;image-rendering:auto;shape-rendering:auto;text-rendering:auto;enable-background:accumulate"
       d="M 273.3524,105.04014 C 224.62726,103.46552 174.16485,95.430945 126.12266,81.598365 113.03605,77.830395 96.482286,72.353161 86.809327,68.59055 l -6.48338,-2.521921 4.749386,-3.176011 C 100.85203,52.342436 124.04298,40.71531 144.36258,33.168089 174.48273,21.980694 207.53522,14.401749 241.53259,10.886981 268.49573,8.0994382 299.847,7.9154744 326.89048,10.386116 387.16836,15.89299 444.17956,34.139793 485.91821,61.283965 l 5.73707,3.731029 -5.73707,2.409078 c -29.68217,12.463949 -62.79175,22.459358 -94.6305,28.567866 -28.10711,5.392562 -52.46946,8.042262 -83.33759,9.063952 -16.30372,0.53963 -17.4278,0.53911 -34.59772,-0.0158 l 0,10e-6 z"
       id="path4267"
       inkscape:connector-curvature="0"
       transform="translate(109.21507,212.03386)" />
    <path
       style="color:#000000;clip-rule:nonzero;display:inline;overflow:visible;visibility:visible;opacity:1;isolation:auto;mix-blend-mode:normal;color-interpolation:sRGB;color-interpolation-filters:linearRGB;solid-color:#000000;solid-opacity:1;fill:#249e24;fill-opacity:0;fill-rule:nonzero;stroke:none;stroke-width:3;stroke-linecap:butt;stroke-linejoin:miter;stroke-miterlimit:4;stroke-dasharray:none;stroke-dashoffset:0;stroke-opacity:1;color-rendering:auto;image-rendering:auto;shape-rendering:auto;text-rendering:auto;enable-background:accumulate"
       d="M 273.3524,105.04014 C 224.62726,103.46552 174.16485,95.430945 126.12266,81.598365 113.03605,77.830395 96.482286,72.353161 86.809327,68.59055 l -6.48338,-2.521921 4.749386,-3.176011 C 100.85203,52.342436 124.04298,40.71531 144.36258,33.168089 174.48273,21.980694 207.53522,14.401749 241.53259,10.886981 268.49573,8.0994382 299.847,7.9154744 326.89048,10.386116 387.16836,15.89299 444.17956,34.139793 485.91821,61.283965 l 5.73707,3.731029 -5.73707,2.409078 c -29.68217,12.463949 -62.79175,22.459358 -94.6305,28.567866 -28.10711,5.392562 -52.46946,8.042262 -83.33759,9.063952 -16.30372,0.53963 -17.4278,0.53911 -34.59772,-0.0158 l 0,10e-6 z"
       id="path4269"
       inkscape:connector-curvature="0"
       transform="translate(109.21507,212.03386)" />
    <path
       style="color:#000000;clip-rule:nonzero;display:inline;overflow:visible;visibility:visible;opacity:1;isolation:auto;mix-blend-mode:normal;color-interpolation:sRGB;color-interpolation-filters:linearRGB;solid-color:#000000;solid-opacity:1;fill:#249e24;fill-opacity:0;fill-rule:nonzero;stroke:none;stroke-width:3;stroke-linecap:butt;stroke-linejoin:miter;stroke-miterlimit:4;stroke-dasharray:none;stroke-dashoffset:0;stroke-opacity:1;color-rendering:auto;image-rendering:auto;shape-rendering:auto;text-rendering:auto;enable-background:accumulate"
       d="M 273.3524,105.04014 C 224.62726,103.46552 174.16485,95.430945 126.12266,81.598365 113.03605,77.830395 96.482286,72.353161 86.809327,68.59055 l -6.48338,-2.521921 4.749386,-3.176011 C 100.85203,52.342436 124.04298,40.71531 144.36258,33.168089 174.48273,21.980694 207.53522,14.401749 241.53259,10.886981 268.49573,8.0994382 299.847,7.9154744 326.89048,10.386116 387.16836,15.89299 444.17956,34.139793 485.91821,61.283965 l 5.73707,3.731029 -5.73707,2.409078 c -29.68217,12.463949 -62.79175,22.459358 -94.6305,28.567866 -28.10711,5.392562 -52.46946,8.042262 -83.33759,9.063952 -16.30372,0.53963 -17.4278,0.53911 -34.59772,-0.0158 l 0,10e-6 z"
       id="path4271"
       inkscape:connector-curvature="0"
       transform="translate(109.21507,212.03386)" />
    <path
       style="color:#000000;clip-rule:nonzero;display:inline;overflow:visible;visibility:visible;opacity:1;isolation:auto;mix-blend-mode:normal;color-interpolation:sRGB;color-interpolation-filters:linearRGB;solid-color:#000000;solid-opacity:1;fill:#249e24;fill-opacity:0;fill-rule:nonzero;stroke:none;stroke-width:3;stroke-linecap:butt;stroke-linejoin:miter;stroke-miterlimit:4;stroke-dasharray:none;stroke-dashoffset:0;stroke-opacity:1;color-rendering:auto;image-rendering:auto;shape-rendering:auto;text-rendering:auto;enable-background:accumulate"
       d="M 273.3524,105.04014 C 224.62726,103.46552 174.16485,95.430945 126.12266,81.598365 113.03605,77.830395 96.482286,72.353161 86.809327,68.59055 l -6.48338,-2.521921 4.749386,-3.176011 C 100.85203,52.342436 124.04298,40.71531 144.36258,33.168089 174.48273,21.980694 207.53522,14.401749 241.53259,10.886981 268.49573,8.0994382 299.847,7.9154744 326.89048,10.386116 387.16836,15.89299 444.17956,34.139793 485.91821,61.283965 l 5.73707,3.731029 -5.73707,2.409078 c -29.68217,12.463949 -62.79175,22.459358 -94.6305,28.567866 -28.10711,5.392562 -52.46946,8.042262 -83.33759,9.063952 -16.30372,0.53963 -17.4278,0.53911 -34.59772,-0.0158 l 0,10e-6 z"
       id="path4273"
       inkscape:connector-curvature="0"
       transform="translate(109.21507,212.03386)" />
    <path
       style="color:#000000;clip-rule:nonzero;display:inline;overflow:visible;visibility:visible;opacity:1;isolation:auto;mix-blend-mode:normal;color-interpolation:sRGB;color-interpolation-filters:linearRGB;solid-color:#000000;solid-opacity:1;fill:#249e24;fill-opacity:0;fill-rule:nonzero;stroke:none;stroke-width:3;stroke-linecap:butt;stroke-linejoin:miter;stroke-miterlimit:4;stroke-dasharray:none;stroke-dashoffset:0;stroke-opacity:1;color-rendering:auto;image-rendering:auto;shape-rendering:auto;text-rendering:auto;enable-background:accumulate"
       d="M 273.3524,105.04014 C 224.62726,103.46552 174.16485,95.430945 126.12266,81.598365 113.03605,77.830395 96.482286,72.353161 86.809327,68.59055 l -6.48338,-2.521921 4.749386,-3.176011 C 100.85203,52.342436 124.04298,40.71531 144.36258,33.168089 174.48273,21.980694 207.53522,14.401749 241.53259,10.886981 268.49573,8.0994382 299.847,7.9154744 326.89048,10.386116 387.16836,15.89299 444.17956,34.139793 485.91821,61.283965 l 5.73707,3.731029 -5.73707,2.409078 c -29.68217,12.463949 -62.79175,22.459358 -94.6305,28.567866 -28.10711,5.392562 -52.46946,8.042262 -83.33759,9.063952 -16.30372,0.53963 -17.4278,0.53911 -34.59772,-0.0158 l 0,10e-6 z"
       id="path4275"
       inkscape:connector-curvature="0"
       transform="translate(109.21507,212.03386)" />
    <path
       style="color:#000000;clip-rule:nonzero;display:inline;overflow:visible;visibility:visible;opacity:1;isolation:auto;mix-blend-mode:normal;color-interpolation:sRGB;color-interpolation-filters:linearRGB;solid-color:#000000;solid-opacity:1;fill:#249e24;fill-opacity:0;fill-rule:nonzero;stroke:none;stroke-width:3;stroke-linecap:butt;stroke-linejoin:miter;stroke-miterlimit:4;stroke-dasharray:none;stroke-dashoffset:0;stroke-opacity:1;color-rendering:auto;image-rendering:auto;shape-rendering:auto;text-rendering:auto;enable-background:accumulate"
       d="M 273.3524,105.04014 C 224.62726,103.46552 174.16485,95.430945 126.12266,81.598365 113.03605,77.830395 96.482286,72.353161 86.809327,68.59055 l -6.48338,-2.521921 4.749386,-3.176011 C 100.85203,52.342436 124.04298,40.71531 144.36258,33.168089 174.48273,21.980694 207.53522,14.401749 241.53259,10.886981 268.49573,8.0994382 299.847,7.9154744 326.89048,10.386116 387.16836,15.89299 444.17956,34.139793 485.91821,61.283965 l 5.73707,3.731029 -5.73707,2.409078 c -29.68217,12.463949 -62.79175,22.459358 -94.6305,28.567866 -28.10711,5.392562 -52.46946,8.042262 -83.33759,9.063952 -16.30372,0.53963 -17.4278,0.53911 -34.59772,-0.0158 l 0,10e-6 z"
       id="path4277"
       inkscape:connector-curvature="0"
       transform="translate(109.21507,212.03386)" />
    <path
       style="color:#000000;clip-rule:nonzero;display:inline;overflow:visible;visibility:visible;opacity:1;isolation:auto;mix-blend-mode:normal;color-interpolation:sRGB;color-interpolation-filters:linearRGB;solid-color:#000000;solid-opacity:1;fill:#249e24;fill-opacity:0;fill-rule:nonzero;stroke:none;stroke-width:3;stroke-linecap:butt;stroke-linejoin:miter;stroke-miterlimit:4;stroke-dasharray:none;stroke-dashoffset:0;stroke-opacity:1;color-rendering:auto;image-rendering:auto;shape-rendering:auto;text-rendering:auto;enable-background:accumulate"
       d="M 273.3524,105.04014 C 224.62726,103.46552 174.16485,95.430945 126.12266,81.598365 113.03605,77.830395 96.482286,72.353161 86.809327,68.59055 l -6.48338,-2.521921 4.749386,-3.176011 C 100.85203,52.342436 124.04298,40.71531 144.36258,33.168089 174.48273,21.980694 207.53522,14.401749 241.53259,10.886981 268.49573,8.0994382 299.847,7.9154744 326.89048,10.386116 387.16836,15.89299 444.17956,34.139793 485.91821,61.283965 l 5.73707,3.731029 -5.73707,2.409078 c -29.68217,12.463949 -62.79175,22.459358 -94.6305,28.567866 -28.10711,5.392562 -52.46946,8.042262 -83.33759,9.063952 -16.30372,0.53963 -17.4278,0.53911 -34.59772,-0.0158 l 0,10e-6 z"
       id="path4279"
       inkscape:connector-curvature="0"
       transform="translate(109.21507,212.03386)" />
    <ellipse
       ry="14.654515"
       rx="14.475944"
       cy="273.76352"
       cx="544.59448"
       id="path8755"
       style="opacity:0.73600003;fill:#ffffff;fill-opacity:1;stroke:#000000;stroke-width:2;stroke-miterlimit:4;stroke-dasharray:none;stroke-opacity:1" />
    <path
       style="color:#000000;clip-rule:nonzero;display:inline;overflow:visible;visibility:visible;opacity:1;isolation:auto;mix-blend-mode:normal;color-interpolation:sRGB;color-interpolation-filters:linearRGB;solid-color:#000000;solid-opacity:1;fill:#249e24;fill-opacity:0;fill-rule:nonzero;stroke:none;stroke-width:3;stroke-linecap:butt;stroke-linejoin:miter;stroke-miterlimit:4;stroke-dasharray:none;stroke-dashoffset:0;stroke-opacity:1;color-rendering:auto;image-rendering:auto;shape-rendering:auto;text-rendering:auto;enable-background:accumulate"
       d="M 273.3524,105.04014 C 224.62726,103.46552 174.16485,95.430945 126.12266,81.598365 113.03605,77.830395 96.482286,72.353161 86.809327,68.59055 l -6.48338,-2.521921 4.749386,-3.176011 C 100.85203,52.342436 124.04298,40.71531 144.36258,33.168089 174.48273,21.980694 207.53522,14.401749 241.53259,10.886981 268.49573,8.0994382 299.847,7.9154744 326.89048,10.386116 387.16836,15.89299 444.17956,34.139793 485.91821,61.283965 l 5.73707,3.731029 -5.73707,2.409078 c -29.68217,12.463949 -62.79175,22.459358 -94.6305,28.567866 -28.10711,5.392562 -52.46946,8.042262 -83.33759,9.063952 -16.30372,0.53963 -17.4278,0.53911 -34.59772,-0.0158 l 0,10e-6 z"
       id="path4281"
       inkscape:connector-curvature="0"
       transform="translate(109.21507,212.03386)" />
    <path
       style="color:#000000;clip-rule:nonzero;display:inline;overflow:visible;visibility:visible;opacity:1;isolation:auto;mix-blend-mode:normal;color-interpolation:sRGB;color-interpolation-filters:linearRGB;solid-color:#000000;solid-opacity:1;fill:#249e24;fill-opacity:0;fill-rule:nonzero;stroke:none;stroke-width:3;stroke-linecap:butt;stroke-linejoin:miter;stroke-miterlimit:4;stroke-dasharray:none;stroke-dashoffset:0;stroke-opacity:1;color-rendering:auto;image-rendering:auto;shape-rendering:auto;text-rendering:auto;enable-background:accumulate"
       d="M 273.3524,105.04014 C 224.62726,103.46552 174.16485,95.430945 126.12266,81.598365 113.03605,77.830395 96.482286,72.353161 86.809327,68.59055 l -6.48338,-2.521921 4.749386,-3.176011 C 100.85203,52.342436 124.04298,40.71531 144.36258,33.168089 174.48273,21.980694 207.53522,14.401749 241.53259,10.886981 268.49573,8.0994382 299.847,7.9154744 326.89048,10.386116 387.16836,15.89299 444.17956,34.139793 485.91821,61.283965 l 5.73707,3.731029 -5.73707,2.409078 c -29.68217,12.463949 -62.79175,22.459358 -94.6305,28.567866 -28.10711,5.392562 -52.46946,8.042262 -83.33759,9.063952 -16.30372,0.53963 -17.4278,0.53911 -34.59772,-0.0158 l 0,10e-6 z"
       id="path4283"
       inkscape:connector-curvature="0"
       transform="translate(109.21507,212.03386)" />
    <path
       style="color:#000000;clip-rule:nonzero;display:inline;overflow:visible;visibility:visible;opacity:1;isolation:auto;mix-blend-mode:normal;color-interpolation:sRGB;color-interpolation-filters:linearRGB;solid-color:#000000;solid-opacity:1;fill:#249e24;fill-opacity:0;fill-rule:nonzero;stroke:none;stroke-width:3;stroke-linecap:butt;stroke-linejoin:miter;stroke-miterlimit:4;stroke-dasharray:none;stroke-dashoffset:0;stroke-opacity:1;color-rendering:auto;image-rendering:auto;shape-rendering:auto;text-rendering:auto;enable-background:accumulate"
       d="M 273.3524,105.04014 C 224.62726,103.46552 174.16485,95.430945 126.12266,81.598365 113.03605,77.830395 96.482286,72.353161 86.809327,68.59055 l -6.48338,-2.521921 4.749386,-3.176011 C 100.85203,52.342436 124.04298,40.71531 144.36258,33.168089 174.48273,21.980694 207.53522,14.401749 241.53259,10.886981 268.49573,8.0994382 299.847,7.9154744 326.89048,10.386116 387.16836,15.89299 444.17956,34.139793 485.91821,61.283965 l 5.73707,3.731029 -5.73707,2.409078 c -29.68217,12.463949 -62.79175,22.459358 -94.6305,28.567866 -28.10711,5.392562 -52.46946,8.042262 -83.33759,9.063952 -16.30372,0.53963 -17.4278,0.53911 -34.59772,-0.0158 l 0,10e-6 z"
       id="path4285"
       inkscape:connector-curvature="0"
       transform="translate(109.21507,212.03386)" />
    <path
       style="color:#000000;clip-rule:nonzero;display:inline;overflow:visible;visibility:visible;opacity:1;isolation:auto;mix-blend-mode:normal;color-interpolation:sRGB;color-interpolation-filters:linearRGB;solid-color:#000000;solid-opacity:1;fill:#249e24;fill-opacity:0;fill-rule:nonzero;stroke:none;stroke-width:3;stroke-linecap:butt;stroke-linejoin:miter;stroke-miterlimit:4;stroke-dasharray:none;stroke-dashoffset:0;stroke-opacity:1;color-rendering:auto;image-rendering:auto;shape-rendering:auto;text-rendering:auto;enable-background:accumulate"
       d="M 270.47346,105.09867 C 219.657,103.12224 167.9096,94.42825 118.91591,79.635763 107.2525,76.11427 92.555265,71.046928 82.546493,67.096239 l -2.43771,-0.962218 1.04875,-0.760481 c 0.576812,-0.418264 2.63974,-1.798213 4.584283,-3.06655 C 112.1452,45.085255 143.16459,31.645094 178.04451,22.313852 227.31155,9.1336954 282.81814,5.2207392 335.94456,11.182634 c 53.77799,6.035015 104.1488,22.142538 143.49732,45.887419 4.60536,2.779112 12.25456,7.722331 12.25482,7.919543 2e-4,0.169648 -7.17651,3.207649 -14.26823,6.039952 -31.04197,12.39758 -65.04774,21.797259 -99.50003,27.503237 -21.46266,3.554635 -42.68427,5.676345 -65.78618,6.577215 -7.30763,0.28496 -34.23903,0.27764 -41.6688,-0.0113 l 0,1e-5 z"
       id="path4287"
       inkscape:connector-curvature="0"
       transform="translate(109.21507,212.03386)" />
    <path
       style="color:#000000;clip-rule:nonzero;display:inline;overflow:visible;visibility:visible;opacity:1;isolation:auto;mix-blend-mode:normal;color-interpolation:sRGB;color-interpolation-filters:linearRGB;solid-color:#000000;solid-opacity:1;fill:#249e24;fill-opacity:0;fill-rule:nonzero;stroke:none;stroke-width:3;stroke-linecap:butt;stroke-linejoin:miter;stroke-miterlimit:4;stroke-dasharray:none;stroke-dashoffset:0;stroke-opacity:1;color-rendering:auto;image-rendering:auto;shape-rendering:auto;text-rendering:auto;enable-background:accumulate"
       d="M 270.47346,105.09867 C 219.657,103.12224 167.9096,94.42825 118.91591,79.635763 107.2525,76.11427 92.555265,71.046928 82.546493,67.096239 l -2.43771,-0.962218 1.04875,-0.760481 c 0.576812,-0.418264 2.63974,-1.798213 4.584283,-3.06655 C 112.1452,45.085255 143.16459,31.645094 178.04451,22.313852 227.31155,9.1336954 282.81814,5.2207392 335.94456,11.182634 c 53.77799,6.035015 104.1488,22.142538 143.49732,45.887419 4.60536,2.779112 12.25456,7.722331 12.25482,7.919543 2e-4,0.169648 -7.17651,3.207649 -14.26823,6.039952 -31.04197,12.39758 -65.04774,21.797259 -99.50003,27.503237 -21.46266,3.554635 -42.68427,5.676345 -65.78618,6.577215 -7.30763,0.28496 -34.23903,0.27764 -41.6688,-0.0113 l 0,1e-5 z"
       id="path4289"
       inkscape:connector-curvature="0"
       transform="translate(109.21507,212.03386)" />
    <path
       style="color:#000000;clip-rule:nonzero;display:inline;overflow:visible;visibility:visible;opacity:1;isolation:auto;mix-blend-mode:normal;color-interpolation:sRGB;color-interpolation-filters:linearRGB;solid-color:#000000;solid-opacity:1;fill:#249e24;fill-opacity:0;fill-rule:nonzero;stroke:none;stroke-width:3;stroke-linecap:butt;stroke-linejoin:miter;stroke-miterlimit:4;stroke-dasharray:none;stroke-dashoffset:0;stroke-opacity:1;color-rendering:auto;image-rendering:auto;shape-rendering:auto;text-rendering:auto;enable-background:accumulate"
       d="M 270.47346,105.09867 C 219.657,103.12224 167.9096,94.42825 118.91591,79.635763 107.2525,76.11427 92.555265,71.046928 82.546493,67.096239 l -2.43771,-0.962218 1.04875,-0.760481 c 0.576812,-0.418264 2.63974,-1.798213 4.584283,-3.06655 C 112.1452,45.085255 143.16459,31.645094 178.04451,22.313852 227.31155,9.1336954 282.81814,5.2207392 335.94456,11.182634 c 53.77799,6.035015 104.1488,22.142538 143.49732,45.887419 4.60536,2.779112 12.25456,7.722331 12.25482,7.919543 2e-4,0.169648 -7.17651,3.207649 -14.26823,6.039952 -31.04197,12.39758 -65.04774,21.797259 -99.50003,27.503237 -21.46266,3.554635 -42.68427,5.676345 -65.78618,6.577215 -7.30763,0.28496 -34.23903,0.27764 -41.6688,-0.0113 l 0,1e-5 z"
       id="path4291"
       inkscape:connector-curvature="0"
       transform="translate(109.21507,212.03386)" />
    <path
       style="color:#000000;clip-rule:nonzero;display:inline;overflow:visible;visibility:visible;opacity:1;isolation:auto;mix-blend-mode:normal;color-interpolation:sRGB;color-interpolation-filters:linearRGB;solid-color:#000000;solid-opacity:1;fill:#249e24;fill-opacity:0;fill-rule:nonzero;stroke:none;stroke-width:3;stroke-linecap:butt;stroke-linejoin:miter;stroke-miterlimit:4;stroke-dasharray:none;stroke-dashoffset:0;stroke-opacity:1;color-rendering:auto;image-rendering:auto;shape-rendering:auto;text-rendering:auto;enable-background:accumulate"
       d="M 270.47346,105.09867 C 219.657,103.12224 167.9096,94.42825 118.91591,79.635763 107.2525,76.11427 92.555265,71.046928 82.546493,67.096239 l -2.43771,-0.962218 1.04875,-0.760481 c 0.576812,-0.418264 2.63974,-1.798213 4.584283,-3.06655 C 112.1452,45.085255 143.16459,31.645094 178.04451,22.313852 227.31155,9.1336954 282.81814,5.2207392 335.94456,11.182634 c 53.77799,6.035015 104.1488,22.142538 143.49732,45.887419 4.60536,2.779112 12.25456,7.722331 12.25482,7.919543 2e-4,0.169648 -7.17651,3.207649 -14.26823,6.039952 -31.04197,12.39758 -65.04774,21.797259 -99.50003,27.503237 -21.46266,3.554635 -42.68427,5.676345 -65.78618,6.577215 -7.30763,0.28496 -34.23903,0.27764 -41.6688,-0.0113 l 0,1e-5 z"
       id="path4293"
       inkscape:connector-curvature="0"
       transform="translate(109.21507,212.03386)" />
    <path
       style="color:#000000;clip-rule:nonzero;display:inline;overflow:visible;visibility:visible;opacity:1;isolation:auto;mix-blend-mode:normal;color-interpolation:sRGB;color-interpolation-filters:linearRGB;solid-color:#000000;solid-opacity:1;fill:#249e24;fill-opacity:0;fill-rule:nonzero;stroke:none;stroke-width:3;stroke-linecap:butt;stroke-linejoin:miter;stroke-miterlimit:4;stroke-dasharray:none;stroke-dashoffset:0;stroke-opacity:1;color-rendering:auto;image-rendering:auto;shape-rendering:auto;text-rendering:auto;enable-background:accumulate"
       d="M 273.3524,105.04014 C 224.62726,103.46552 174.16485,95.430945 126.12266,81.598365 113.03605,77.830395 96.482286,72.353161 86.809327,68.59055 l -6.48338,-2.521921 4.749386,-3.176011 C 100.85203,52.342436 124.04298,40.71531 144.36258,33.168089 174.48273,21.980694 207.53522,14.401749 241.53259,10.886981 268.49573,8.0994381 299.847,7.9154743 326.89048,10.386116 387.16836,15.89299 444.17956,34.139793 485.91821,61.283965 l 5.73707,3.731029 -5.73707,2.409078 c -29.68217,12.463949 -62.79175,22.459358 -94.6305,28.567866 -28.10711,5.392562 -52.46946,8.042262 -83.33759,9.063952 -16.30372,0.53963 -17.4278,0.53911 -34.59772,-0.0158 l 0,10e-6 z"
       id="path4299"
       inkscape:connector-curvature="0"
       transform="translate(109.21507,212.03386)" />
    <path
       style="color:#000000;clip-rule:nonzero;display:inline;overflow:visible;visibility:visible;opacity:1;isolation:auto;mix-blend-mode:normal;color-interpolation:sRGB;color-interpolation-filters:linearRGB;solid-color:#000000;solid-opacity:1;fill:#249e24;fill-opacity:0;fill-rule:nonzero;stroke:none;stroke-width:3;stroke-linecap:butt;stroke-linejoin:miter;stroke-miterlimit:4;stroke-dasharray:none;stroke-dashoffset:0;stroke-opacity:1;color-rendering:auto;image-rendering:auto;shape-rendering:auto;text-rendering:auto;enable-background:accumulate"
       d="M 273.3524,105.04014 C 224.62726,103.46552 174.16485,95.430945 126.12266,81.598365 113.03605,77.830395 96.482286,72.353161 86.809327,68.59055 l -6.48338,-2.521921 4.749386,-3.176011 C 100.85203,52.342436 124.04298,40.71531 144.36258,33.168089 174.48273,21.980694 207.53522,14.401749 241.53259,10.886981 268.49573,8.0994381 299.847,7.9154743 326.89048,10.386116 387.16836,15.89299 444.17956,34.139793 485.91821,61.283965 l 5.73707,3.731029 -5.73707,2.409078 c -29.68217,12.463949 -62.79175,22.459358 -94.6305,28.567866 -28.10711,5.392562 -52.46946,8.042262 -83.33759,9.063952 -16.30372,0.53963 -17.4278,0.53911 -34.59772,-0.0158 l 0,10e-6 z"
       id="path4301"
       inkscape:connector-curvature="0"
       transform="translate(109.21507,212.03386)" />
    <ellipse
       style="color:#000000;clip-rule:nonzero;display:inline;overflow:visible;visibility:visible;opacity:1;isolation:auto;mix-blend-mode:normal;color-interpolation:sRGB;color-interpolation-filters:linearRGB;solid-color:#000000;solid-opacity:1;fill:none;fill-opacity:0.39215686;fill-rule:nonzero;stroke:none;stroke-width:3;stroke-linecap:butt;stroke-linejoin:miter;stroke-miterlimit:4;stroke-dasharray:none;stroke-dashoffset:0;stroke-opacity:1;color-rendering:auto;image-rendering:auto;shape-rendering:auto;text-rendering:auto;enable-background:accumulate"
       id="path4353"
       cx="396.57397"
       cy="396.00113"
       rx="280.21609"
       ry="175.48241" />
    <path
       style="fill:none;fill-rule:evenodd;stroke:#000000;stroke-width:1.00150347px;stroke-linecap:butt;stroke-linejoin:miter;stroke-opacity:1"
       d="M 605.83696,274.14748 461.39192,563.76111"
       id="path4313-2"
       inkscape:connector-curvature="0"
       sodipodi:nodetypes="cc" />
    <ellipse
       style="color:#000000;clip-rule:nonzero;display:inline;overflow:visible;visibility:visible;opacity:1;isolation:auto;mix-blend-mode:normal;color-interpolation:sRGB;color-interpolation-filters:linearRGB;solid-color:#000000;solid-opacity:1;fill:none;fill-opacity:0.39215686;fill-rule:nonzero;stroke:none;stroke-width:3;stroke-linecap:butt;stroke-linejoin:miter;stroke-miterlimit:4;stroke-dasharray:none;stroke-dashoffset:0;stroke-opacity:1;color-rendering:auto;image-rendering:auto;shape-rendering:auto;text-rendering:auto;enable-background:accumulate"
       id="path4417"
       cx="453.67706"
       cy="414.33224"
       rx="394.96964"
       ry="16.667517" />
    <g
       transform="translate(80.714037,243.58892)"
       id="g7986">
      <g
         style="font-style:normal;font-variant:normal;font-weight:normal;font-stretch:normal;letter-spacing:normal;word-spacing:normal;text-anchor:start;fill:none;fill-opacity:1;fill-rule:evenodd;stroke:#000000;stroke-linecap:butt;stroke-linejoin:miter;stroke-miterlimit:10.43299961;stroke-dasharray:none;stroke-dashoffset:0;stroke-opacity:1"
         id="g7988"
         transform="matrix(0.52205431,0,0,-0.52205431,-91.359505,430.1471)"
         xml:space="preserve"
         stroke-miterlimit="10.433"
         font-style="normal"
         font-variant="normal"
         font-weight="normal"
         font-stretch="normal"
         font-size-adjust="none"
         letter-spacing="normal"
         word-spacing="normal"><path
           style="fill:#000000;stroke-width:0"
           inkscape:connector-curvature="0"
           d="m 501.68,434.24 0.23,0.41 0.24,0.39 0.24,0.39 0.25,0.37 0.12,0.17 0.13,0.18 0.14,0.17 0.14,0.16 0.14,0.16 0.14,0.16 0.15,0.15 0.16,0.14 0.16,0.14 0.17,0.13 0.17,0.13 0.18,0.12 0.19,0.11 0.2,0.11 0.2,0.1 0.21,0.09 0.22,0.09 0.23,0.07 0.23,0.07 0.25,0.06 0.26,0.06 0.26,0.04 0.28,0.04 0.29,0.03 c 0.45,0.05 0.94,0.05 0.94,0.99 0,0.2 -0.2,0.55 -0.59,0.55 l -9.02,0 c -0.3,0 -0.95,0 -0.95,-0.95 0,-0.54 0.45,-0.59 0.75,-0.59 1.2,-0.05 2.94,-0.45 2.94,-1.94 0,-0.55 -0.25,-0.95 -0.65,-1.65 l -13.45,-23.46 -1.84,24.71 c -0.05,0.99 -0.15,2.29 3.49,2.34 0.84,0 1.34,0 1.34,0.99 0,0.5 -0.55,0.55 -0.75,0.55 l -11.3,0 c -0.3,0 -0.95,0 -0.95,-0.99 0,-0.55 0.5,-0.55 1.19,-0.55 2.2,0 2.55,-0.3 2.64,-1.25 l 0.31,-3.83 -12.61,-21.97 -1.89,25.25 c 0,0.6 0,1.75 3.78,1.8 0.5,0 1.05,0 1.05,0.99 0,0.55 -0.6,0.55 -0.7,0.55 l -11.35,0 c -0.25,0 -0.9,0 -0.9,-0.95 0,-0.59 0.45,-0.59 1.24,-0.59 2.5,0 2.55,-0.45 2.64,-1.84 l 2.25,-30.44 c 0.05,-0.9 0.09,-1.3 0.79,-1.3 0.6,0 0.75,0.3 1.2,1.05 l 14.64,25.41 1.85,-25.16 c 0.1,-1.05 0.2,-1.3 0.79,-1.3 0.65,0 0.95,0.5 1.2,0.95 z"
           id="path7990" /><path
           style="fill:#000000;stroke-width:0"
           inkscape:connector-curvature="0"
           d="m 530.62,407.05 0.01,0.03 0.01,0.02 0,0.02 0.01,0.02 0.01,0.02 0.01,0.01 0.01,0.02 0.01,0.02 0,0.02 0.01,0.02 0.01,0.03 0.02,0.03 0.01,0.03 0.01,0.03 0.01,0.02 0.01,0.03 0,0.02 0.01,0.03 0.01,0.02 0,0.02 0.01,0.02 0,0.01 0.01,0.02 0,0.01 0,0.02 0.01,0.01 0,0.01 0,0.01 0,0.01 0,0.01 0,0.01 0,0.01 0,0.01 0,0 0,0.01 0,0 0,0 c 0,0.21 -0.13,0.49 -0.59,0.49 -0.07,0 -0.24,0 -0.38,-0.14 -0.07,-0.07 -0.1,-0.1 -0.52,-1.01 -2.27,-5.02 -4.05,-6.77 -9.73,-6.77 l -5.93,0 c -1.08,0 -1.12,0.04 -1.12,0.36 0,0.03 0,0.2 0.15,0.73 l 2.33,9.34 3.9,0 c 2.76,0 3.18,-0.45 3.18,-1.6 0,-0.38 -0.11,-0.98 -0.25,-1.57 -0.1,-0.31 -0.1,-0.35 -0.1,-0.42 0,-0.07 0.03,-0.49 0.59,-0.49 0.49,0 0.53,0.18 0.67,0.77 l 1.91,7.63 c 0.11,0.42 0.11,0.49 0.11,0.53 0,0.35 -0.28,0.49 -0.59,0.49 -0.46,0 -0.49,-0.18 -0.7,-0.91 -0.73,-2.72 -1.78,-3.17 -4.75,-3.17 l -3.66,0 2.1,8.29 c 0.28,1.09 0.31,1.19 1.78,1.19 l 5.68,0 c 4.57,0 5.72,-0.94 5.72,-4.04 0,-0.91 -0.14,-1.96 -0.14,-2.13 0,-0.28 0.1,-0.59 0.59,-0.59 0.52,0 0.56,0.31 0.63,0.9 l 0.62,6.07 c 0.11,1.05 -0.14,1.05 -1.01,1.05 l -19.17,0 c -0.7,0 -1.12,0 -1.12,-0.77 0,-0.49 0.38,-0.49 1.15,-0.49 0.56,0 0.7,0 1.33,-0.07 0.69,-0.07 0.76,-0.14 0.76,-0.49 0,-0.24 -0.1,-0.59 -0.14,-0.76 l -4.57,-18.24 c -0.34,-1.36 -0.38,-1.61 -3.1,-1.61 -0.63,0 -1.04,0 -1.04,-0.76 0,-0.49 0.41,-0.49 1.04,-0.49 l 19.7,0 c 0.87,0 0.91,0 1.19,0.63 z"
           id="path7992" /><path
           style="fill:#000000;stroke-width:0"
           inkscape:connector-curvature="0"
           d="m 552.49,394.04 0,0.03 0,0.03 -0.01,0.01 0,0.02 0,0.01 -0.01,0.02 0,0.02 -0.01,0.01 -0.01,0.02 -0.01,0.02 -0.01,0.03 -0.01,0.02 -0.02,0.02 -0.02,0.03 -0.02,0.03 -0.02,0.03 -0.03,0.03 -0.03,0.04 -0.01,0.02 -0.02,0.02 -0.02,0.02 -0.02,0.02 -0.02,0.02 -0.02,0.03 -0.02,0.02 -0.02,0.02 -0.02,0.03 -0.03,0.02 -0.02,0.03 -0.03,0.03 -0.02,0.03 -0.03,0.03 -0.03,0.03 -0.03,0.03 -0.03,0.03 -0.03,0.03 -0.04,0.04 -0.03,0.03 -0.04,0.04 -0.03,0.03 -0.04,0.04 -0.04,0.04 c -6.23,6.28 -7.82,15.69 -7.82,23.31 0,8.67 1.9,17.34 8.02,23.57 0.65,0.59 0.65,0.69 0.65,0.84 0,0.35 -0.2,0.5 -0.5,0.5 -0.5,0 -4.98,-3.39 -7.92,-9.72 -2.54,-5.47 -3.14,-11 -3.14,-15.19 0,-3.88 0.55,-9.91 3.29,-15.54 2.99,-6.12 7.27,-9.36 7.77,-9.36 0.3,0 0.5,0.15 0.5,0.49 z"
           id="path7994" /><path
           style="fill:#000000;stroke-width:0"
           inkscape:connector-curvature="0"
           d="m 567.31,421.74 -0.15,1.3 0,13.44 c 0,1.65 0.1,2 2.44,2 l 4.43,0 c 7.92,0 7.92,-5.28 7.92,-7.72 0,-2.35 0,-7.72 -7.92,-7.72 l -6.87,0 0.15,-1.3 8.42,0 c 5.97,0 11.35,4.04 11.35,9.02 0,4.88 -4.93,9.26 -11.75,9.26 l -17.59,0 0,-1.54 1.2,0 c 3.83,0 3.94,-0.55 3.94,-2.34 l 0,-26.25 c 0,-1.8 -0.11,-2.35 -3.94,-2.35 l -1.2,0 0,-1.54 14.7,0 0,1.54 -1.2,0 c -3.83,0 -3.93,0.55 -3.93,2.35 z"
           id="path7996" /><path
           style="fill:#000000;stroke-width:0"
           inkscape:connector-curvature="0"
           d="m 604.59,409.79 0.02,-0.19 0.03,-0.19 0.03,-0.19 0.04,-0.18 0.05,-0.19 0.06,-0.18 0.06,-0.18 0.07,-0.18 0.07,-0.18 0.08,-0.18 0.09,-0.17 0.1,-0.16 0.1,-0.17 0.1,-0.15 0.12,-0.16 0.12,-0.14 0.12,-0.15 0.13,-0.13 0.14,-0.13 0.15,-0.12 0.15,-0.12 0.15,-0.1 0.17,-0.1 0.17,-0.09 0.17,-0.08 0.18,-0.07 0.19,-0.07 0.19,-0.05 0.2,-0.04 0.21,-0.03 0.21,-0.01 0.21,-0.01 c 1.05,0 4.09,0.7 4.09,4.73 l 0,2.79 -1.25,0 0,-2.79 c 0,-2.89 -1.24,-3.18 -1.79,-3.18 -1.64,0 -1.84,2.24 -1.84,2.48 l 0,9.97 c 0,2.09 0,4.03 -1.8,5.88 -1.94,1.94 -4.43,2.74 -6.82,2.74 -4.09,0 -7.53,-2.34 -7.53,-5.63 0,-1.5 1,-2.34 2.3,-2.34 1.39,0 2.29,0.99 2.29,2.29 0,0.59 -0.25,2.24 -2.54,2.29 1.35,1.74 3.78,2.29 5.38,2.29 2.44,0 5.28,-1.94 5.28,-6.38 l 0,-1.84 0,-1.04 0,-4.99 c 0,-4.73 -3.59,-6.42 -5.83,-6.42 -2.44,0 -4.48,1.74 -4.48,4.23 0,2.74 2.09,6.88 10.31,7.18 l 0,0 0,1.04 c -2.54,-0.15 -6.03,-0.3 -9.17,-1.79 -3.73,-1.69 -4.98,-4.28 -4.98,-6.48 0,-4.03 4.84,-5.28 7.97,-5.28 3.29,0 5.58,2 6.53,4.34 z"
           id="path7998" /><path
           style="fill:#000000;stroke-width:0"
           inkscape:connector-curvature="0"
           d="m 621.32,422.54 0,5.48 -6.92,-0.55 0,-1.54 c 3.48,0 3.88,-0.35 3.88,-2.79 l 0,-13.35 c 0,-2.25 -0.55,-2.25 -3.88,-2.25 l 0,-1.54 12,0 0,1.54 -1.05,0 c -3.68,0 -3.78,0.55 -3.78,2.35 l 0,7.66 c 0,4.94 2.09,9.37 5.88,9.37 0.34,0 0.45,0 0.54,-0.05 -0.15,-0.05 -1.14,-0.65 -1.14,-1.94 0,-1.39 1.05,-2.14 2.14,-2.14 0.9,0 2.14,0.59 2.14,2.19 0,1.59 -1.54,3.04 -3.68,3.04 -3.64,0 -5.43,-3.34 -6.13,-5.48 z"
           id="path8000" /><path
           style="fill:#000000;stroke-width:0"
           inkscape:connector-curvature="0"
           d="m 641.82,428.02 -6.98,-0.55 0,-1.54 c 3.24,0 3.69,-0.31 3.69,-2.75 l 0,-13.39 c 0,-2.25 -0.55,-2.25 -3.88,-2.25 l 0,-1.54 10.65,0 0,1.54 c -3.28,0 -3.48,0.25 -3.48,2.19 z"
           id="path8002" /><path
           style="fill:#000000;stroke-width:0"
           inkscape:connector-curvature="0"
           d="m 642.02,436.68 -0.01,0.15 -0.01,0.15 -0.02,0.14 -0.02,0.13 -0.03,0.14 -0.04,0.13 -0.04,0.13 -0.05,0.12 -0.06,0.12 -0.06,0.11 -0.06,0.11 -0.07,0.11 -0.08,0.1 -0.08,0.1 -0.08,0.09 -0.09,0.09 -0.09,0.09 -0.1,0.07 -0.1,0.08 -0.11,0.07 -0.1,0.06 -0.11,0.06 -0.12,0.06 -0.11,0.05 -0.12,0.04 -0.12,0.04 -0.13,0.03 -0.12,0.03 -0.13,0.02 -0.13,0.01 -0.12,0.01 -0.13,0 c -1.55,0 -2.65,-1.34 -2.65,-2.64 0,-1.34 1.1,-2.64 2.65,-2.64 1.39,0 2.64,1.05 2.64,2.64 z"
           id="path8004" /><path
           style="fill:#000000;stroke-width:0"
           inkscape:connector-curvature="0"
           d="m 654.62,425.93 7.12,0 0,1.54 -7.12,0 0,9.17 -1.25,0 c -0.05,-4.09 -1.54,-9.42 -6.42,-9.62 l 0,-1.09 4.23,0 0,-13.75 c 0,-6.13 4.63,-6.73 6.42,-6.73 3.55,0 4.94,3.54 4.94,6.73 l 0,2.84 -1.25,0 0,-2.74 c 0,-3.69 -1.49,-5.58 -3.33,-5.58 -3.34,0 -3.34,4.53 -3.34,5.38 z"
           id="path8006" /><path
           style="fill:#000000;stroke-width:0"
           inkscape:connector-curvature="0"
           d="m 684.67,422.74 0.06,0.14 0.07,0.14 0.06,0.14 0.07,0.13 0.07,0.13 0.07,0.12 0.07,0.12 0.07,0.12 0.15,0.21 0.15,0.21 0.16,0.19 0.16,0.17 0.16,0.16 0.17,0.15 0.17,0.13 0.17,0.13 0.17,0.11 0.17,0.1 0.17,0.09 0.17,0.08 0.16,0.07 0.17,0.06 0.16,0.06 0.16,0.04 0.16,0.04 0.15,0.04 0.15,0.03 0.14,0.02 0.13,0.02 0.13,0.01 0.13,0.01 0.11,0.01 0.11,0 0.1,0 0.09,0.01 0.07,0 0,1.54 -8.07,0 0,-1.54 c 1.55,-0.05 2.35,-0.9 2.35,-2.14 0,-0.5 -0.05,-0.61 -0.3,-1.2 l -5.03,-12.26 -5.53,13.4 c -0.2,0.5 -0.3,0.7 -0.3,0.9 0,1.3 1.84,1.3 2.79,1.3 l 0,1.54 -10.26,0 0,-1.54 c 2.39,0 3.33,0 4.03,-1.75 L 676.45,406 c -0.25,-0.65 -0.94,-2.29 -1.24,-2.94 -1.1,-2.74 -2.49,-6.18 -5.68,-6.18 -0.25,0 -1.4,0 -2.34,0.9 1.54,0.2 1.94,1.29 1.94,2.09 0,1.3 -0.95,2.09 -2.09,2.09 -1,0 -2.09,-0.64 -2.09,-2.14 0,-2.24 2.09,-4.03 4.58,-4.03 3.14,0 5.18,2.84 6.38,5.68 z"
           id="path8008" /><path
           style="fill:#000000;stroke-width:0"
           inkscape:connector-curvature="0"
           d="m 705.4,418.45 -0.01,0.37 0,0.39 -0.01,0.39 -0.01,0.41 -0.04,0.84 -0.06,0.88 -0.09,0.92 -0.1,0.94 -0.14,0.98 -0.16,1 -0.2,1.02 -0.23,1.04 -0.27,1.05 -0.3,1.06 -0.35,1.06 -0.39,1.07 -0.22,0.53 -0.22,0.54 -0.24,0.53 -0.25,0.53 c -2.99,6.12 -7.27,9.36 -7.77,9.36 -0.3,0 -0.5,-0.2 -0.5,-0.5 0,-0.15 0,-0.25 0.94,-1.15 4.89,-4.92 7.73,-12.85 7.73,-23.26 0,-8.52 -1.85,-17.28 -8.02,-23.56 -0.65,-0.6 -0.65,-0.69 -0.65,-0.85 0,-0.29 0.2,-0.49 0.5,-0.49 0.5,0 4.98,3.38 7.92,9.71 2.54,5.48 3.14,11.01 3.14,15.19 z"
           id="path8010" /></g>    </g>
    <g
       id="g8208"
       transform="translate(161.04981,33.156354)">
      <g
         word-spacing="normal"
         letter-spacing="normal"
         font-size-adjust="none"
         font-stretch="normal"
         font-weight="normal"
         font-variant="normal"
         font-style="normal"
         stroke-miterlimit="10.433"
         xml:space="preserve"
         transform="matrix(0.52205431,0,0,-0.52205431,-91.359505,430.1471)"
         id="content"
         style="font-style:normal;font-variant:normal;font-weight:normal;font-stretch:normal;letter-spacing:normal;word-spacing:normal;text-anchor:start;fill:none;fill-opacity:1;fill-rule:evenodd;stroke:#000000;stroke-linecap:butt;stroke-linejoin:miter;stroke-miterlimit:10.43299961;stroke-dasharray:none;stroke-dashoffset:0;stroke-opacity:1"><path
           id="path8211"
           d="m 481.7,440.02 0,0.01 0,0 0,0.01 0,0.01 0,0.01 0,0.01 0,0.02 0,0.02 -0.01,0.02 0,0.02 -0.01,0.02 0,0.02 -0.01,0.03 -0.01,0.02 -0.01,0.03 -0.01,0.02 -0.02,0.02 -0.01,0.03 -0.02,0.02 -0.02,0.03 -0.03,0.02 -0.01,0.01 -0.01,0.01 -0.01,0.01 -0.02,0.01 -0.01,0.01 -0.02,0.01 -0.01,0.01 -0.02,0.01 -0.02,0.01 -0.02,0.01 -0.01,0.01 -0.02,0 -0.03,0.01 -0.02,0.01 -0.02,0 -0.02,0.01 -0.02,0 -0.03,0.01 -0.02,0 -0.03,0 -0.03,0.01 -0.03,0 -0.03,0 -0.03,0 c -0.74,0 -5.47,-0.45 -6.32,-0.55 -0.4,-0.05 -0.7,-0.3 -0.7,-0.95 0,-0.59 0.45,-0.59 1.2,-0.59 2.39,0 2.49,-0.35 2.49,-0.85 l -0.15,-0.99 -2.99,-11.81 c -0.9,1.84 -2.34,3.19 -4.58,3.19 l 0.05,-1.1 c 3.24,0 3.93,-4.08 3.93,-4.38 0,-0.3 -0.1,-0.6 -0.15,-0.85 l -2.49,-9.76 c -0.25,-0.9 -0.25,-1 -0.99,-1.84 -2.19,-2.75 -4.24,-3.54 -5.63,-3.54 -2.49,0 -3.19,2.74 -3.19,4.68 0,2.49 1.59,8.62 2.74,10.91 1.54,2.94 3.78,4.78 5.78,4.78 l -0.05,1.1 c -5.83,0 -12.01,-7.32 -12.01,-14.6 0,-4.68 2.74,-7.97 6.63,-7.97 0.99,0 3.49,0.2 6.47,3.74 0.4,-2.09 2.14,-3.74 4.53,-3.74 1.75,0 2.9,1.15 3.69,2.74 0.85,1.79 1.5,4.83 1.5,4.93 0,0.5 -0.45,0.5 -0.6,0.5 -0.5,0 -0.55,-0.2 -0.7,-0.89 -0.85,-3.24 -1.74,-6.18 -3.78,-6.18 -1.35,0 -1.5,1.29 -1.5,2.29 0,1.2 0.1,1.54 0.3,2.39 z"
           inkscape:connector-curvature="0"
           style="fill:#000000;stroke-width:0" /><path
           id="path8213"
           d="m 503.48,423.14 0,-13.35 c 0,-2.25 -0.55,-2.25 -3.89,-2.25 l 0,-1.54 11.21,0 0,1.54 c -3.34,0 -3.88,0 -3.88,2.25 l 0,9.16 c 0,5.18 3.53,7.97 6.72,7.97 3.14,0 3.69,-2.69 3.69,-5.53 l 0,-11.6 c 0,-2.25 -0.55,-2.25 -3.89,-2.25 l 0,-1.54 11.21,0 0,1.54 c -3.34,0 -3.88,0 -3.88,2.25 l 0,9.16 c 0,5.18 3.53,7.97 6.72,7.97 3.14,0 3.69,-2.69 3.69,-5.53 l 0,-11.6 c 0,-2.25 -0.55,-2.25 -3.89,-2.25 l 0,-1.54 11.21,0 0,1.54 c -2.59,0 -3.84,0 -3.89,1.5 l 0,9.51 c 0,4.29 0,5.83 -1.54,7.63 -0.7,0.84 -2.34,1.84 -5.23,1.84 -4.19,0 -6.38,-2.99 -7.23,-4.88 -0.69,4.33 -4.38,4.88 -6.62,4.88 -3.63,0 -5.98,-2.14 -7.37,-5.23 l 0,5.23 -7.03,-0.55 0,-1.54 c 3.49,0 3.89,-0.35 3.89,-2.79 z"
           inkscape:connector-curvature="0"
           style="fill:#000000;stroke-width:0" /><path
           id="path8215"
           d="m 556.59,409.79 0.02,-0.19 0.03,-0.19 0.03,-0.19 0.04,-0.18 0.05,-0.19 0.06,-0.18 0.06,-0.18 0.07,-0.18 0.07,-0.18 0.08,-0.18 0.09,-0.17 0.1,-0.16 0.1,-0.17 0.1,-0.15 0.12,-0.16 0.12,-0.14 0.12,-0.15 0.13,-0.13 0.14,-0.13 0.15,-0.12 0.15,-0.12 0.15,-0.1 0.17,-0.1 0.17,-0.09 0.17,-0.08 0.18,-0.07 0.19,-0.07 0.19,-0.05 0.2,-0.04 0.21,-0.03 0.21,-0.01 0.21,-0.01 c 1.05,0 4.09,0.7 4.09,4.73 l 0,2.79 -1.25,0 0,-2.79 c 0,-2.89 -1.24,-3.18 -1.79,-3.18 -1.64,0 -1.84,2.24 -1.84,2.48 l 0,9.97 c 0,2.09 0,4.03 -1.8,5.88 -1.94,1.94 -4.43,2.74 -6.82,2.74 -4.09,0 -7.53,-2.34 -7.53,-5.63 0,-1.5 1,-2.34 2.3,-2.34 1.39,0 2.29,0.99 2.29,2.29 0,0.59 -0.25,2.24 -2.54,2.29 1.35,1.74 3.78,2.29 5.38,2.29 2.44,0 5.28,-1.94 5.28,-6.38 l 0,-1.84 0,-1.04 0,-4.99 c 0,-4.73 -3.59,-6.42 -5.83,-6.42 -2.44,0 -4.48,1.74 -4.48,4.23 0,2.74 2.09,6.88 10.31,7.18 l 0,0 0,1.04 c -2.54,-0.15 -6.03,-0.3 -9.17,-1.79 -3.73,-1.69 -4.98,-4.28 -4.98,-6.48 0,-4.03 4.84,-5.28 7.97,-5.28 3.29,0 5.58,2 6.53,4.34 z"
           inkscape:connector-curvature="0"
           style="fill:#000000;stroke-width:0" /><path
           id="path8217"
           d="m 579.3,417.71 0.28,0.36 0.29,0.37 0.3,0.38 0.3,0.38 0.62,0.78 0.3,0.38 0.31,0.38 0.3,0.38 0.3,0.36 0.29,0.36 0.28,0.34 0.14,0.16 0.13,0.16 0.13,0.15 0.13,0.15 0.13,0.14 0.12,0.14 0.11,0.13 0.12,0.13 c 1.54,1.79 3.59,2.54 5.93,2.59 l 0,1.54 -8.87,0 0,-1.54 c 1.04,-0.11 1.45,-0.75 1.45,-1.55 0,-0.79 -0.5,-1.44 -0.75,-1.74 l -3.09,-3.89 -3.89,5.04 c -0.44,0.49 -0.44,0.59 -0.44,0.89 0,0.75 0.74,1.2 1.74,1.25 l 0,1.54 -10.11,0 0,-1.54 c 3.48,0 3.53,-0.05 5.88,-3.04 l 4.93,-6.43 -4.69,-5.93 c -2.39,-2.89 -5.32,-2.99 -6.37,-2.99 l 0,-1.54 8.87,0 0,1.54 c -1.1,0.16 -1.45,0.8 -1.45,1.55 0,1.09 1.45,2.74 4.48,6.32 l 3.79,-4.98 c 0.4,-0.54 1.05,-1.34 1.05,-1.64 0,-0.45 -0.45,-1.2 -1.8,-1.25 l 0,-1.54 10.16,0 0,1.54 c -2.68,0 -3.58,0.1 -4.73,1.55 z"
           inkscape:connector-curvature="0"
           style="fill:#000000;stroke-width:0" /><path
           id="path8219"
           d="m 599.82,428.02 -6.98,-0.55 0,-1.54 c 3.24,0 3.69,-0.31 3.69,-2.75 l 0,-13.39 c 0,-2.25 -0.55,-2.25 -3.88,-2.25 l 0,-1.54 10.65,0 0,1.54 c -3.28,0 -3.48,0.25 -3.48,2.19 z"
           inkscape:connector-curvature="0"
           style="fill:#000000;stroke-width:0" /><path
           id="path8221"
           d="m 600.02,436.68 -0.01,0.15 -0.01,0.15 -0.02,0.14 -0.02,0.13 -0.03,0.14 -0.04,0.13 -0.04,0.13 -0.05,0.12 -0.06,0.12 -0.06,0.11 -0.06,0.11 -0.07,0.11 -0.08,0.1 -0.08,0.1 -0.08,0.09 -0.09,0.09 -0.09,0.09 -0.1,0.07 -0.1,0.08 -0.11,0.07 -0.1,0.06 -0.11,0.06 -0.12,0.06 -0.11,0.05 -0.12,0.04 -0.12,0.04 -0.13,0.03 -0.12,0.03 -0.13,0.02 -0.13,0.01 -0.12,0.01 -0.13,0 c -1.55,0 -2.65,-1.34 -2.65,-2.64 0,-1.34 1.1,-2.64 2.65,-2.64 1.39,0 2.64,1.05 2.64,2.64 z"
           inkscape:connector-curvature="0"
           style="fill:#000000;stroke-width:0" /><path
           id="path8223"
           d="m 610.48,423.14 0,-13.35 c 0,-2.25 -0.55,-2.25 -3.89,-2.25 l 0,-1.54 11.21,0 0,1.54 c -3.33,0 -3.88,0 -3.88,2.25 l 0,9.16 c 0,5.18 3.53,7.97 6.72,7.97 3.14,0 3.69,-2.69 3.69,-5.53 l 0,-11.6 c 0,-2.25 -0.55,-2.25 -3.89,-2.25 l 0,-1.54 11.21,0 0,1.54 c -3.34,0 -3.88,0 -3.88,2.25 l 0,9.16 c 0,5.18 3.53,7.97 6.72,7.97 3.14,0 3.69,-2.69 3.69,-5.53 l 0,-11.6 c 0,-2.25 -0.55,-2.25 -3.89,-2.25 l 0,-1.54 11.21,0 0,1.54 c -2.59,0 -3.84,0 -3.89,1.5 l 0,9.51 c 0,4.29 0,5.83 -1.54,7.63 -0.7,0.84 -2.34,1.84 -5.23,1.84 -4.19,0 -6.38,-2.99 -7.23,-4.88 -0.69,4.33 -4.38,4.88 -6.62,4.88 -3.64,0 -5.98,-2.14 -7.37,-5.23 l 0,5.23 -7.03,-0.55 0,-1.54 c 3.49,0 3.89,-0.35 3.89,-2.79 z"
           inkscape:connector-curvature="0"
           style="fill:#000000;stroke-width:0" /><path
           id="path8225"
           d="m 662.59,409.79 0.02,-0.19 0.03,-0.19 0.03,-0.19 0.04,-0.18 0.05,-0.19 0.06,-0.18 0.06,-0.18 0.07,-0.18 0.07,-0.18 0.08,-0.18 0.09,-0.17 0.1,-0.16 0.1,-0.17 0.1,-0.15 0.12,-0.16 0.12,-0.14 0.12,-0.15 0.13,-0.13 0.14,-0.13 0.15,-0.12 0.15,-0.12 0.15,-0.1 0.17,-0.1 0.17,-0.09 0.17,-0.08 0.18,-0.07 0.19,-0.07 0.19,-0.05 0.2,-0.04 0.21,-0.03 0.21,-0.01 0.21,-0.01 c 1.05,0 4.09,0.7 4.09,4.73 l 0,2.79 -1.25,0 0,-2.79 c 0,-2.89 -1.24,-3.18 -1.79,-3.18 -1.64,0 -1.84,2.24 -1.84,2.48 l 0,9.97 c 0,2.09 0,4.03 -1.8,5.88 -1.94,1.94 -4.43,2.74 -6.82,2.74 -4.09,0 -7.53,-2.34 -7.53,-5.63 0,-1.5 1,-2.34 2.3,-2.34 1.39,0 2.29,0.99 2.29,2.29 0,0.59 -0.25,2.24 -2.54,2.29 1.35,1.74 3.78,2.29 5.38,2.29 2.44,0 5.28,-1.94 5.28,-6.38 l 0,-1.84 0,-1.04 0,-4.99 c 0,-4.73 -3.59,-6.42 -5.83,-6.42 -2.44,0 -4.48,1.74 -4.48,4.23 0,2.74 2.09,6.88 10.31,7.18 l 0,0 0,1.04 c -2.54,-0.15 -6.03,-0.3 -9.17,-1.79 -3.73,-1.69 -4.98,-4.28 -4.98,-6.48 0,-4.03 4.84,-5.28 7.97,-5.28 3.29,0 5.58,2 6.53,4.34 z"
           inkscape:connector-curvature="0"
           style="fill:#000000;stroke-width:0" /><path
           id="path8227"
           d="m 679.82,440.57 -7.17,-0.55 0,-1.54 c 3.48,0 3.88,-0.35 3.88,-2.79 l 0,-25.9 c 0,-2.25 -0.55,-2.25 -3.88,-2.25 l 0,-1.54 11.05,0 0,1.54 c -3.34,0 -3.88,0 -3.88,2.25 z"
           inkscape:connector-curvature="0"
           style="fill:#000000;stroke-width:0" /><path
           id="path8229"
           d="m 725.46,416.66 -0.01,0.59 -0.05,0.59 -0.07,0.58 -0.09,0.57 -0.13,0.56 -0.15,0.55 -0.17,0.54 -0.2,0.53 -0.22,0.52 -0.25,0.5 -0.26,0.49 -0.29,0.47 -0.31,0.46 -0.33,0.44 -0.35,0.42 -0.36,0.41 -0.39,0.39 -0.4,0.36 -0.41,0.35 -0.44,0.33 -0.44,0.3 -0.46,0.29 -0.48,0.26 -0.48,0.23 -0.5,0.21 -0.51,0.19 -0.52,0.16 -0.53,0.13 -0.54,0.1 -0.55,0.08 -0.56,0.04 -0.56,0.02 -0.05,-1.1 c 2.19,0 4.34,-1.1 5.63,-3.24 1.3,-2.14 1.3,-5.03 1.3,-6.92 0,-1.79 0,-4.49 -1.1,-6.68 -1.09,-2.24 -3.28,-3.68 -5.78,-3.68 l 0,0 c -2.14,0 -4.33,1.04 -5.68,3.34 -1.24,2.19 -1.24,5.23 -1.24,7.02 0,1.94 0,4.63 1.2,6.82 1.34,2.3 3.68,3.34 5.67,3.34 l 0.05,1.1 c -6.22,0 -11.05,-5.43 -11.05,-11.66 0,-6.43 5.17,-11.21 11,-11.21 6.03,0 11.06,4.88 11.06,11.21 z"
           inkscape:connector-curvature="0"
           style="fill:#000000;stroke-width:0" /><path
           id="path8231"
           d="m 746.93,408.74 0,-3.29 7.32,0.55 0,1.54 c -3.48,0 -3.88,0.35 -3.88,2.79 l 0,30.24 -7.18,-0.55 0,-1.54 c 3.49,0 3.89,-0.35 3.89,-2.79 l 0,-10.76 c -1.45,1.79 -3.59,3.09 -6.28,3.09 l 0.2,-1.1 c 1.75,0 3.84,-0.74 5.38,-2.99 0.55,-0.84 0.55,-0.95 0.55,-1.84 l 0,0 0,-10.21 c 0,-0.9 0,-1 -0.55,-1.84 -1.49,-2.4 -3.73,-3.49 -5.88,-3.49 -2.24,0 -4.03,1.29 -5.23,3.18 -1.29,2.05 -1.44,4.89 -1.44,6.93 0,1.84 0.1,4.83 1.54,7.07 1.05,1.55 2.94,3.19 5.63,3.19 l -0.2,1.1 c -5.87,0 -11.1,-4.88 -11.1,-11.31 0,-6.33 4.87,-11.26 10.55,-11.26 3.19,0 5.43,1.69 6.68,3.29 z"
           inkscape:connector-curvature="0"
           style="fill:#000000;stroke-width:0" /><path
           id="path8233"
           d="m 774.93,408.74 0,-3.29 7.32,0.55 0,1.54 c -3.48,0 -3.88,0.35 -3.88,2.79 l 0,30.24 -7.18,-0.55 0,-1.54 c 3.49,0 3.89,-0.35 3.89,-2.79 l 0,-10.76 c -1.45,1.79 -3.59,3.09 -6.28,3.09 l 0.2,-1.1 c 1.75,0 3.84,-0.74 5.38,-2.99 0.55,-0.84 0.55,-0.95 0.55,-1.84 l 0,0 0,-10.21 c 0,-0.9 0,-1 -0.55,-1.84 -1.49,-2.4 -3.73,-3.49 -5.88,-3.49 -2.24,0 -4.03,1.29 -5.23,3.18 -1.29,2.05 -1.44,4.89 -1.44,6.93 0,1.84 0.1,4.83 1.54,7.07 1.05,1.55 2.94,3.19 5.63,3.19 l -0.2,1.1 c -5.87,0 -11.1,-4.88 -11.1,-11.31 0,-6.33 4.87,-11.26 10.55,-11.26 3.19,0 5.43,1.69 6.68,3.29 z"
           inkscape:connector-curvature="0"
           style="fill:#000000;stroke-width:0" /></g>    </g>
    <path
       style="fill:none;fill-rule:evenodd;stroke:#000000;stroke-width:1.00150347px;stroke-linecap:butt;stroke-linejoin:miter;stroke-opacity:1"
       d="M 497.04617,229.44371 330.51885,564.63733"
       id="path4313-2-9"
       inkscape:connector-curvature="0"
       sodipodi:nodetypes="cc" />
    <path
       style="fill:none;fill-rule:evenodd;stroke:#000000;stroke-width:1.00150347px;stroke-linecap:butt;stroke-linejoin:miter;stroke-opacity:1"
       d="M 297.1177,230.34889 166.59993,493.0609"
       id="path4313-2-2"
       inkscape:connector-curvature="0"
       sodipodi:nodetypes="cc" />
    <g
       id="g8758"
       transform="translate(439.29147,227.1784)">
      <g
         id="g8760"
         transform="matrix(0.52205431,0,0,-0.52205431,-91.359505,430.1471)"
         xml:space="preserve"
         stroke-miterlimit="10.433"
         font-style="normal"
         font-variant="normal"
         font-weight="normal"
         font-stretch="normal"
         font-size-adjust="none"
         letter-spacing="normal"
         word-spacing="normal"
         style="font-style:normal;font-variant:normal;font-weight:normal;font-stretch:normal;letter-spacing:normal;word-spacing:normal;text-anchor:start;fill:none;fill-opacity:1;fill-rule:evenodd;stroke:#000000;stroke-linecap:butt;stroke-linejoin:miter;stroke-miterlimit:10.43299961;stroke-dasharray:none;stroke-dashoffset:0;stroke-opacity:1"><path
           d="m 480.16,426.47 -4.18,9.92 c -0.16,0.4 -0.25,0.59 -0.25,0.65 0,0.29 0.84,1.24 2.93,1.44 0.5,0.05 1,0.1 1,0.95 0,0.59 -0.6,0.59 -0.75,0.59 l -11.85,0 c -0.3,0 -0.9,0 -0.9,-0.99 0,-0.55 0.5,-0.55 1.15,-0.55 2.99,0 3.28,-0.5 3.73,-1.6 l 5.88,-13.9 -10.51,-11.3 -0.65,-0.55 c -2.44,-2.64 -4.78,-3.43 -7.32,-3.59 -0.65,-0.04 -1.1,-0.04 -1.1,-0.99 0,-0.05 0,-0.55 0.65,-0.55 l 10.26,0 c 0.3,0 0.9,0 0.9,1 0,0.5 -0.5,0.54 -0.6,0.54 -0.44,0.05 -1.99,0.16 -1.99,1.55 0,0.8 0.75,1.59 1.35,2.24 l 5.07,5.38 4.49,4.88 5.03,-11.9 c 0.2,-0.55 0.25,-0.6 0.25,-0.7 0,-0.4 -0.95,-1.25 -2.89,-1.45 -0.55,-0.04 -1,-0.09 -1,-0.94 0,-0.6 0.55,-0.6 0.75,-0.6 l 11.81,0 c 0.35,0 0.94,0 0.94,0.95 0,0.59 -0.49,0.59 -0.89,0.59 -3.34,0.05 -3.44,0.2 -4.29,2.19 -1.94,4.64 -5.28,12.41 -6.42,15.4 3.38,3.48 8.62,9.41 10.21,10.81 1.44,1.19 3.33,2.39 6.33,2.54 0.64,0.05 1.09,0.05 1.09,0.99 0,0.05 0,0.55 -0.65,0.55 l -10.21,0 c -0.3,0 -0.94,0 -0.94,-0.99 0,-0.35 0.25,-0.5 0.59,-0.55 0.45,-0.05 2,-0.15 2,-1.55 0,-0.69 -0.55,-1.34 -0.95,-1.79 z"
           id="path8762"
           inkscape:connector-curvature="0"
           style="fill:#000000;stroke-width:0" /><path
           d="m 514.99,410.12 0,0.71 -0.02,0.68 -0.03,0.66 -0.04,0.64 -0.06,0.62 -0.08,0.59 -0.09,0.58 -0.11,0.56 -0.12,0.55 -0.15,0.53 -0.17,0.51 -0.19,0.5 -0.21,0.49 -0.24,0.48 -0.26,0.47 -0.14,0.24 -0.15,0.23 c -1.07,1.6 -3.24,2.99 -6.03,2.99 l 0,-0.97 c 1.89,0 3.7,-1.15 4.33,-3.18 0.56,-1.88 0.59,-4.39 0.59,-7.42 0,-2.58 0,-5.17 -0.45,-7.36 -0.7,-3.17 -3.07,-3.94 -4.47,-3.94 l 0,0 c -1.6,0 -3.73,0.94 -4.43,3.8 -0.49,2.06 -0.49,4.92 -0.49,7.5 0,2.54 0,5.19 0.53,7.11 0.73,2.76 2.96,3.49 4.39,3.49 l 0,0.97 c -8.09,0 -8.09,-9.52 -8.09,-12.03 0,-2.51 0,-11.82 8.09,-11.82 8.09,0 8.09,9.31 8.09,11.82 z"
           id="path8764"
           inkscape:connector-curvature="0"
           style="fill:#000000;stroke-width:0" /></g>    </g>
    <g
       id="g8952"
       transform="translate(261.02862,244.94676)">
      <g
         word-spacing="normal"
         letter-spacing="normal"
         font-size-adjust="none"
         font-stretch="normal"
         font-weight="normal"
         font-variant="normal"
         font-style="normal"
         stroke-miterlimit="10.433"
         xml:space="preserve"
         transform="matrix(0.52205431,0,0,-0.52205431,-91.359505,430.1471)"
         id="g8954"
         style="font-style:normal;font-variant:normal;font-weight:normal;font-stretch:normal;letter-spacing:normal;word-spacing:normal;text-anchor:start;fill:none;fill-opacity:1;fill-rule:evenodd;stroke:#000000;stroke-linecap:butt;stroke-linejoin:miter;stroke-miterlimit:10.43299961;stroke-dasharray:none;stroke-dashoffset:0;stroke-opacity:1"><path
           id="path8956"
           d="m 480.16,426.47 -4.18,9.92 c -0.16,0.4 -0.25,0.59 -0.25,0.65 0,0.29 0.84,1.24 2.93,1.44 0.5,0.05 1,0.1 1,0.95 0,0.59 -0.6,0.59 -0.75,0.59 l -11.85,0 c -0.3,0 -0.9,0 -0.9,-0.99 0,-0.55 0.5,-0.55 1.15,-0.55 2.99,0 3.28,-0.5 3.73,-1.6 l 5.88,-13.9 -10.51,-11.3 -0.65,-0.55 c -2.44,-2.64 -4.78,-3.43 -7.32,-3.59 -0.65,-0.04 -1.1,-0.04 -1.1,-0.99 0,-0.05 0,-0.55 0.65,-0.55 l 10.26,0 c 0.3,0 0.9,0 0.9,1 0,0.5 -0.5,0.54 -0.6,0.54 -0.44,0.05 -1.99,0.16 -1.99,1.55 0,0.8 0.75,1.59 1.35,2.24 l 5.07,5.38 4.49,4.88 5.03,-11.9 c 0.2,-0.55 0.25,-0.6 0.25,-0.7 0,-0.4 -0.95,-1.25 -2.89,-1.45 -0.55,-0.04 -1,-0.09 -1,-0.94 0,-0.6 0.55,-0.6 0.75,-0.6 l 11.81,0 c 0.35,0 0.94,0 0.94,0.95 0,0.59 -0.49,0.59 -0.89,0.59 -3.34,0.05 -3.44,0.2 -4.29,2.19 -1.94,4.64 -5.28,12.41 -6.42,15.4 3.38,3.48 8.62,9.41 10.21,10.81 1.44,1.19 3.33,2.39 6.33,2.54 0.64,0.05 1.09,0.05 1.09,0.99 0,0.05 0,0.55 -0.65,0.55 l -10.21,0 c -0.3,0 -0.94,0 -0.94,-0.99 0,-0.35 0.25,-0.5 0.59,-0.55 0.45,-0.05 2,-0.15 2,-1.55 0,-0.69 -0.55,-1.34 -0.95,-1.79 z"
           inkscape:connector-curvature="0"
           style="fill:#000000;stroke-width:0" /><path
           id="path8958"
           d="m 508.68,421.18 0,0.04 0,0.04 0,0.04 0,0.04 0,0.04 0,0.04 0,0.03 0,0.04 -0.01,0.03 0,0.03 0,0.04 0,0.03 -0.01,0.02 0,0.03 0,0.03 -0.01,0.03 0,0.02 0,0.02 -0.02,0.05 -0.01,0.04 -0.01,0.04 -0.02,0.03 -0.02,0.03 -0.02,0.03 -0.03,0.03 -0.02,0.02 -0.03,0.02 -0.04,0.02 -0.03,0.01 -0.04,0.01 -0.05,0.02 -0.05,0 -0.02,0.01 -0.03,0 -0.03,0.01 -0.02,0 -0.03,0 -0.03,0 -0.04,0 -0.03,0.01 -0.03,0 -0.04,0 -0.03,0 -0.04,0 -0.04,0 -0.04,0 -0.04,0 -0.04,0 -0.05,0 -0.04,0 c -2.24,-2.19 -5.41,-2.23 -6.84,-2.23 l 0,-1.25 c 0.84,0 3.14,0 5.06,0.97 l 0,-17.78 c 0,-1.15 0,-1.61 -3.49,-1.61 l -1.33,0 0,-1.25 12.45,0 0,1.25 -1.32,0 c -3.49,0 -3.49,0.46 -3.49,1.61 z"
           inkscape:connector-curvature="0"
           style="fill:#000000;stroke-width:0" /></g>    </g>
    <rect
       style="color:#000000;clip-rule:nonzero;display:inline;overflow:visible;visibility:visible;opacity:1;isolation:auto;mix-blend-mode:normal;color-interpolation:sRGB;color-interpolation-filters:linearRGB;solid-color:#000000;solid-opacity:1;fill:none;fill-opacity:0.39215686;fill-rule:nonzero;stroke:none;stroke-width:3;stroke-linecap:butt;stroke-linejoin:miter;stroke-miterlimit:4;stroke-dasharray:none;stroke-dashoffset:0;stroke-opacity:1;color-rendering:auto;image-rendering:auto;shape-rendering:auto;text-rendering:auto;enable-background:accumulate"
       id="rect9056"
       width="2.8366375"
       height="8.3357735"
       x="494.20953"
       y="229.44371" />
    <path
       inkscape:connector-curvature="0"
       id="path8762-5-3"
       d="m 510.76288,296.92963 84.87669,40.71778"
       style="fill:none;fill-rule:evenodd;stroke:#000000;stroke-width:1px;stroke-linecap:butt;stroke-linejoin:miter;stroke-opacity:1;marker-end:url(#Arrow2Mend-6-0)"
       sodipodi:nodetypes="cc" />
  </g>
</svg>
